<svg width="42" height="47" viewBox="0 0 42 47" fill="none" xmlns="http://www.w3.org/2000/svg">
<path d="M40.076 10.9247C40.107 10.94 40.1334 10.9632 40.1525 10.992C40.1717 11.0208 40.183 11.0541 40.1852 11.0886L41.3365 33.7702C41.3386 33.8052 41.3312 33.84 41.3152 33.8711C41.2991 33.9022 41.275 33.9284 41.2453 33.947L21.9833 46.091C21.8557 46.1716 21.6857 46.0839 21.6774 45.9332L20.5251 23.2532C20.5238 23.2183 20.5318 23.1836 20.5485 23.1528C20.5651 23.122 20.5897 23.0962 20.6197 23.0782L39.8792 10.9307C39.9086 10.9125 39.9423 10.9024 39.9768 10.9013C40.0114 10.9003 40.0456 10.9083 40.076 10.9247ZM35.2096 8.41407C35.3439 8.48335 35.356 8.67255 35.2275 8.75476L18.5493 19.449C18.5199 19.4681 18.486 19.4792 18.451 19.4811C18.416 19.4831 18.3811 19.4759 18.3498 19.4602L13.0516 16.7268C12.9156 16.6567 12.9078 16.4633 13.0363 16.3811L29.7137 5.68852C29.7431 5.67009 29.7768 5.65968 29.8115 5.65832C29.8462 5.65695 29.8806 5.66469 29.9114 5.68076L35.2096 8.41407ZM25.1962 3.24822C25.2269 3.26395 25.2528 3.28753 25.2714 3.31655C25.29 3.34558 25.3006 3.37901 25.3021 3.41346C25.3036 3.4479 25.2959 3.48212 25.2799 3.51263C25.2638 3.54314 25.24 3.56885 25.2107 3.58715L6.20595 15.7541L7.30608 38.2931C7.3081 38.3276 7.30097 38.3619 7.28541 38.3926C7.26984 38.4234 7.24641 38.4495 7.21748 38.4683C7.18856 38.487 7.15518 38.4978 7.12075 38.4994C7.08632 38.5011 7.05205 38.4936 7.02146 38.4777L1.71306 35.7392C1.68261 35.724 1.65675 35.701 1.63817 35.6724C1.61958 35.6439 1.60893 35.611 1.60733 35.577L0.500977 12.9207C0.498957 12.8864 0.506194 12.8523 0.521932 12.8218C0.537669 12.7913 0.561326 12.7656 0.590421 12.7473L19.6935 0.519164C19.7221 0.500342 19.7552 0.489531 19.7894 0.487857C19.8235 0.486182 19.8575 0.493706 19.8878 0.509644L25.1962 3.24822ZM16.2792 23.8283C16.3103 23.8439 16.3365 23.8676 16.3552 23.8969C16.3738 23.9262 16.3841 23.96 16.3849 23.9948L17.3212 43.4599C17.3286 43.6122 17.1691 43.7129 17.0331 43.6427L11.7349 40.9094C11.7041 40.8939 11.6778 40.8706 11.6587 40.8419C11.6395 40.8132 11.6282 40.7799 11.6258 40.7455L10.6913 21.2813C10.6894 21.2465 10.6968 21.2118 10.7128 21.1808C10.7287 21.1498 10.7526 21.1236 10.7819 21.1048C10.8113 21.086 10.8451 21.0754 10.88 21.074C10.9148 21.0726 10.9494 21.0804 10.9802 21.0967L16.2801 23.8309L16.2792 23.8283Z" fill="url(#paint0_linear_10_54)"/>
<defs>
<linearGradient id="paint0_linear_10_54" x1="30.0068" y1="5.72996" x2="11.8303" y2="40.9629" gradientUnits="userSpaceOnUse">
<stop stop-color="#73ABFF"/>
<stop offset="1" stop-color="#DE51EA"/>
</linearGradient>
</defs>
</svg>
