<svg width="73" height="73" viewBox="0 0 73 73" fill="none" xmlns="http://www.w3.org/2000/svg">
<g clip-path="url(#clip0_1_591)">
<path d="M58.8627 21.7457C58.8991 21.7638 58.9301 21.7911 58.9526 21.8249C58.9751 21.8587 58.9883 21.8978 58.9909 21.9384L60.3443 48.5993C60.3467 48.6404 60.338 48.6814 60.3192 48.7179C60.3003 48.7545 60.272 48.7853 60.2371 48.8071L37.5958 63.0817C37.4458 63.1764 37.246 63.0733 37.2361 62.8962L35.8817 36.2372C35.8801 36.1961 35.8896 36.1553 35.9091 36.1191C35.9287 36.0829 35.9576 36.0527 35.9929 36.0315L58.6313 21.7528C58.6659 21.7315 58.7054 21.7195 58.746 21.7183C58.7866 21.717 58.8269 21.7265 58.8627 21.7457ZM53.1424 18.7947C53.3003 18.8761 53.3146 19.0985 53.1635 19.1951L33.5592 31.7656C33.5247 31.788 33.4849 31.8011 33.4437 31.8034C33.4026 31.8057 33.3616 31.7972 33.3248 31.7787L27.097 28.5659C26.9372 28.4834 26.928 28.256 27.0791 28.1594L46.6823 15.5909C46.7169 15.5693 46.7565 15.557 46.7973 15.5554C46.8381 15.5538 46.8785 15.5629 46.9147 15.5818L53.1424 18.7947ZM41.3723 12.7225C41.4084 12.741 41.4389 12.7687 41.4607 12.8028C41.4826 12.837 41.495 12.8763 41.4968 12.9167C41.4985 12.9572 41.4895 12.9974 41.4706 13.0333C41.4518 13.0692 41.4237 13.0994 41.3894 13.1209L19.0504 27.4225L20.3435 53.9158C20.3459 53.9562 20.3375 53.9966 20.3192 54.0327C20.3009 54.0689 20.2734 54.0996 20.2394 54.1216C20.2054 54.1437 20.1661 54.1563 20.1257 54.1583C20.0852 54.1602 20.0449 54.1514 20.0089 54.1327L13.7692 50.9137C13.7334 50.8959 13.7031 50.8688 13.6812 50.8353C13.6594 50.8018 13.6468 50.7631 13.645 50.7231L12.3445 24.092C12.3421 24.0517 12.3506 24.0115 12.3691 23.9757C12.3876 23.9398 12.4154 23.9096 12.4496 23.8882L34.9042 9.51467C34.9378 9.49255 34.9767 9.47984 35.0169 9.47787C35.057 9.4759 35.097 9.48475 35.1326 9.50348L41.3723 12.7225ZM30.8909 36.9132C30.9274 36.9315 30.9583 36.9593 30.9802 36.9938C31.0021 37.0283 31.0141 37.068 31.0151 37.1089L32.1156 59.9889C32.1244 60.168 31.9369 60.2863 31.7771 60.2039L25.5494 56.991C25.5131 56.9728 25.4822 56.9455 25.4597 56.9117C25.4372 56.8779 25.4239 56.8388 25.4211 56.7983L24.3226 33.9193C24.3204 33.8784 24.3291 33.8376 24.3479 33.8012C24.3666 33.7648 24.3946 33.7339 24.4292 33.7119C24.4637 33.6898 24.5035 33.6773 24.5444 33.6757C24.5853 33.674 24.626 33.6832 24.6622 33.7024L30.8919 36.9163L30.8909 36.9132Z" fill="white" fill-opacity="0.1"/>
</g>
<defs>
<clipPath id="clip0_1_591">
<rect width="53.9567" height="53.9567" fill="white" transform="matrix(-0.888705 -0.458479 -0.458479 0.888705 72.6895 24.7378)"/>
</clipPath>
</defs>
</svg>
