<svg width="63" height="63" viewBox="0 0 63 63" fill="none" xmlns="http://www.w3.org/2000/svg">
<g opacity="0.2">
<circle cx="4.1087" cy="4.1087" r="4.1087" fill="#F1C6C3"/>
<circle cx="4.1087" cy="4.1087" r="4.1087" fill="#F1C6C3"/>
<circle cx="4.1087" cy="4.1087" r="4.1087" fill="#F1C6C3"/>
<circle cx="4.1087" cy="17.8045" r="4.1087" fill="#F1C6C3"/>
<circle cx="4.1087" cy="31.4998" r="4.1087" fill="#F1C6C3"/>
<circle cx="4.1087" cy="45.1956" r="4.1087" fill="#F1C6C3"/>
<circle cx="4.1087" cy="58.8914" r="4.1087" fill="#F1C6C3"/>
<circle cx="17.805" cy="4.1087" r="4.1087" fill="#F1C6C3"/>
<circle cx="17.805" cy="4.1087" r="4.1087" fill="#F1C6C3"/>
<circle cx="31.5003" cy="4.1087" r="4.1087" fill="#F1C6C3"/>
<circle cx="17.805" cy="17.8045" r="4.1087" fill="#F1C6C3"/>
<circle cx="17.805" cy="31.4998" r="4.1087" fill="#F1C6C3"/>
<circle cx="17.805" cy="45.1956" r="4.1087" fill="#F1C6C3"/>
<circle cx="17.805" cy="58.8914" r="4.1087" fill="#F1C6C3"/>
<circle cx="45.1956" cy="4.1087" r="4.1087" fill="#F1C6C3"/>
<circle cx="31.5003" cy="4.1087" r="4.1087" fill="#F1C6C3"/>
<circle cx="58.8909" cy="4.1087" r="4.1087" fill="#F1C6C3"/>
<circle cx="31.5003" cy="17.8045" r="4.1087" fill="#F1C6C3"/>
<circle cx="31.5003" cy="31.4998" r="4.1087" fill="#F1C6C3"/>
<circle cx="31.5003" cy="45.1956" r="4.1087" fill="#F1C6C3"/>
<circle cx="31.5003" cy="58.8914" r="4.1087" fill="#F1C6C3"/>
<circle cx="45.1956" cy="4.1087" r="4.1087" fill="#F1C6C3"/>
<circle cx="45.1956" cy="17.8045" r="4.1087" fill="#F1C6C3"/>
<circle cx="45.1956" cy="31.4998" r="4.1087" fill="#F1C6C3"/>
<circle cx="45.1956" cy="45.1956" r="4.1087" fill="#F1C6C3"/>
<circle cx="45.1956" cy="58.8914" r="4.1087" fill="#F1C6C3"/>
<circle cx="58.8909" cy="4.1087" r="4.1087" fill="#F1C6C3"/>
<circle cx="58.8909" cy="17.8045" r="4.1087" fill="#F1C6C3"/>
<circle cx="58.8909" cy="31.4998" r="4.1087" fill="#F1C6C3"/>
<circle cx="58.8909" cy="45.1956" r="4.1087" fill="#F1C6C3"/>
<circle cx="58.8909" cy="58.8914" r="4.1087" fill="#F1C6C3"/>
</g>
</svg>
