<svg width="140" height="261" viewBox="0 0 140 261" fill="none" xmlns="http://www.w3.org/2000/svg">
<g opacity="0.4">
<mask id="path-1-inside-1_72_620" fill="white">
<path d="M60.2482 0.96136C63.6137 0.489318 65.2965 0.253304 66.8027 0.628163C68.0773 0.945387 69.2542 1.57156 70.2294 2.45141C71.3819 3.49111 72.1263 5.01858 73.6153 8.0735L137.522 139.193C139.011 142.248 139.755 143.775 139.864 145.324C139.956 146.634 139.724 147.947 139.189 149.146C138.556 150.563 137.334 151.743 134.888 154.104L29.9343 255.4C27.489 257.76 26.2664 258.94 24.8275 259.522C23.6099 260.015 22.2897 260.2 20.9836 260.062C19.4401 259.898 17.94 259.1 14.9398 257.503L-113.832 188.989C-116.832 187.392 -118.332 186.594 -119.33 185.406C-120.175 184.4 -120.759 183.202 -121.031 181.916C-121.352 180.398 -121.056 178.725 -120.465 175.378L-95.0967 31.7368C-94.5056 28.3902 -94.2101 26.7169 -93.3881 25.4002C-92.6926 24.286 -91.7333 23.3602 -90.5952 22.7046C-89.2502 21.9298 -87.5675 21.6938 -84.202 21.2218L60.2482 0.96136Z"/>
</mask>
<path d="M-93.3881 25.4002L-114.595 12.1612L-93.3881 25.4002ZM-84.202 21.2218L-87.6745 -3.53588L-84.202 21.2218ZM-90.5952 22.7046L-103.074 1.0418L-90.5952 22.7046ZM-119.33 185.406L-138.475 201.483L-119.33 185.406ZM-120.465 175.378L-145.084 171.03L-120.465 175.378ZM-121.031 181.916L-145.49 187.09L-121.031 181.916ZM24.8275 259.522L15.4526 236.347L24.8275 259.522ZM20.9836 260.062L23.621 235.201L20.9836 260.062ZM137.522 139.193L115.049 150.146L137.522 139.193ZM139.864 145.324L164.802 143.569L139.864 145.324ZM139.189 149.146L116.36 138.955L139.189 149.146ZM73.6153 8.0735L51.1424 19.0266L73.6153 8.0735ZM70.2294 2.45141L53.483 21.0137L70.2294 2.45141ZM66.8027 0.628163L60.7649 24.8881L66.8027 0.628163ZM51.1424 19.0266L115.049 150.146L159.995 128.24L96.0881 -2.87957L51.1424 19.0266ZM117.527 136.115L12.5729 237.412L47.2958 273.389L152.25 172.092L117.527 136.115ZM26.6827 235.433L-102.089 166.918L-125.575 211.059L3.19688 279.574L26.6827 235.433ZM-95.8464 179.726L-70.4777 36.0848L-119.716 27.3888L-145.084 171.03L-95.8464 179.726ZM-80.7295 45.9794L63.7207 25.719L56.7758 -23.7963L-87.6745 -3.53588L-80.7295 45.9794ZM-70.4777 36.0848C-70.3213 35.1994 -70.2239 34.6509 -70.139 34.206C-70.0548 33.7645 -70.0378 33.7202 -70.0766 33.8752C-70.1664 34.2341 -70.6872 36.2459 -72.1813 38.6393L-114.595 12.1612C-118.608 18.5897 -119.505 26.1986 -119.716 27.3888L-70.4777 36.0848ZM-87.6745 -3.53588C-88.8714 -3.368 -96.5073 -2.74099 -103.074 1.0418L-78.1163 44.3674C-80.5611 45.7757 -82.5901 46.225 -82.952 46.302C-83.1083 46.3352 -83.0633 46.3198 -82.6191 46.2513C-82.1716 46.1822 -81.6199 46.1043 -80.7295 45.9794L-87.6745 -3.53588ZM-72.1813 38.6393C-73.6594 41.0069 -75.6977 42.9742 -78.1163 44.3674L-103.074 1.0418C-107.769 3.74628 -111.726 7.56514 -114.595 12.1612L-72.1813 38.6393ZM-102.089 166.918C-102.883 166.496 -103.374 166.234 -103.771 166.016C-104.165 165.799 -104.202 165.769 -104.066 165.854C-103.753 166.05 -102 167.167 -100.186 169.328L-138.475 201.483C-133.601 207.287 -126.642 210.491 -125.575 211.059L-102.089 166.918ZM-145.084 171.03C-145.295 172.22 -147.058 179.676 -145.49 187.09L-96.572 176.743C-95.9881 179.503 -96.1879 181.571 -96.2265 181.939C-96.2431 182.098 -96.2439 182.051 -96.1718 181.607C-96.0992 181.16 -96.0028 180.611 -95.8464 179.726L-145.084 171.03ZM-100.186 169.328C-98.3908 171.465 -97.1497 174.012 -96.572 176.743L-145.49 187.09C-144.368 192.391 -141.959 197.334 -138.475 201.483L-100.186 169.328ZM12.5729 237.412C11.9259 238.036 11.5247 238.423 11.1946 238.733C10.8669 239.041 10.827 239.066 10.9496 238.964C11.2332 238.726 12.8371 237.405 15.4526 236.347L34.2025 282.698C41.2278 279.856 46.4261 274.228 47.2958 273.389L12.5729 237.412ZM3.19688 279.574C4.26391 280.142 10.81 284.123 18.3461 284.922L23.621 235.201C26.4267 235.499 28.3323 236.328 28.6703 236.478C28.8163 236.543 28.7708 236.529 28.3712 236.324C27.9685 236.117 27.4764 235.855 26.6827 235.433L3.19688 279.574ZM15.4526 236.347C18.0401 235.3 20.8454 234.907 23.621 235.201L18.3461 284.922C23.734 285.494 29.1797 284.73 34.2025 282.698L15.4526 236.347ZM115.049 150.146C115.443 150.954 115.686 151.455 115.879 151.865C116.07 152.272 116.083 152.318 116.023 152.169C115.885 151.826 115.124 149.893 114.926 147.078L164.802 143.569C164.271 136.01 160.524 129.326 159.995 128.24L115.049 150.146ZM152.25 172.092C153.119 171.253 158.928 166.257 162.018 159.337L116.36 138.955C117.51 136.379 118.888 134.823 119.135 134.548C119.242 134.429 119.215 134.468 118.896 134.785C118.574 135.104 118.174 135.491 117.527 136.115L152.25 172.092ZM114.926 147.078C114.73 144.294 115.222 141.504 116.36 138.955L162.018 159.337C164.226 154.389 165.183 148.974 164.802 143.569L114.926 147.078ZM96.0881 -2.87957C95.5586 -3.96606 92.6027 -11.0345 86.9758 -16.1109L53.483 21.0137C51.3882 19.1238 50.3339 17.3329 50.1489 17.0125C50.0689 16.8741 50.0975 16.9121 50.3 17.3134C50.5039 17.7177 50.7485 18.2183 51.1424 19.0266L96.0881 -2.87957ZM63.7207 25.719C64.6111 25.5941 65.1629 25.5172 65.6122 25.4605C66.0581 25.4042 66.1056 25.4067 65.9462 25.4177C65.5771 25.4432 63.5027 25.5695 60.7649 24.8881L72.8405 -23.6318C65.4865 -25.4621 57.9727 -23.9642 56.7758 -23.7963L63.7207 25.719ZM86.9758 -16.1109C82.9529 -19.7402 78.0982 -22.3232 72.8405 -23.6318L60.7649 24.8881C58.0563 24.214 55.5555 22.8834 53.483 21.0137L86.9758 -16.1109Z" fill="url(#paint0_linear_72_620)" mask="url(#path-1-inside-1_72_620)"/>
</g>
<defs>
<linearGradient id="paint0_linear_72_620" x1="202.488" y1="-35.7419" x2="-60.4142" y2="124.504" gradientUnits="userSpaceOnUse">
<stop stop-color="white"/>
<stop offset="1" stop-color="white" stop-opacity="0"/>
</linearGradient>
</defs>
</svg>
