<svg version="1.1" className="font-display text-xs"
    xmlns="http://www.w3.org/2000/svg" width="650" height="400" viewBox="0 0 650 400" aria-hidden="false" aria-label="Interactive chart">
    <defs aria-hidden="true">
        <clipPath >
            <rect x="0" y="0" width="630" height="338" fill="none"></rect>
        </clipPath>
    </defs>
    <rect fill="none" x="0" y="0" width="650" height="400" rx="0" ry="0" aria-hidden="true"></rect>
    <rect fill="none" x="10" y="47" width="630" height="338" aria-hidden="true"></rect>
    <g data-z-index="0" aria-hidden="true"></g>
    <rect fill="none" data-z-index="1" x="10" y="47" width="630" height="338" aria-hidden="true"></rect>
    <g data-z-index="3" aria-hidden="false">
        <g data-z-index="0.1" opacity="1" transform="translate(10,47) scale(1 1)" className="cursor-pointer" aria-hidden="false" clip-path="none">
            <path fill="#8150ed" d="M 437.88285901566593 129.09457480321797 A 129.2 129.2 0 1 1 314.82054379200116 39.80012463059646 L 314.8219327719392 40.800123665963355 A 128.2 128.2 0 1 0 436.93175329573046 129.4034403233169 Z" data-z-index="-1" fill-opacity="0.25" visibility="hidden"></path>
            <path fill="rgb(142,173,18)" d="M 314.9736854220826 39.80000267978724 A 129.2 129.2 0 0 1 390.8872608813144 64.43536144598724 L 371.91544566098577 90.57652108449042 A 96.9 96.9 0 0 0 314.9802640665619 72.10000200984041 Z" transform="translate(0,0)" stroke="#ffffff" stroke-width="1" opacity="1" stroke-linejoin="round" tabindex="-1" role="img" aria-label="Partenariat &amp; Marketing, 10." className="outline-none"></path>
            <path fill="rgb(217,217,217)" d="M 390.99178755881366 64.5113009765356 A 129.2 129.2 0 0 1 419.4732193653972 92.98693246928138 L 393.3549145240479 111.99019935196102 A 96.9 96.9 0 0 0 371.9938406691102 90.63347573240168 Z" transform="translate(0,0)" stroke="#ffffff" stroke-width="1" opacity="1" stroke-linejoin="round" tabindex="-1" role="img" aria-label="Charité, 5." className="outline-none"></path>
            <path fill="rgb(12,108,242)" d="M 419.5491801836538 93.09144367776517 A 129.2 129.2 0 0 1 437.84289215569567 128.97171191739372 L 407.13216911677176 138.9787839380453 A 96.9 96.9 0 0 0 393.41188513774034 112.06858275832387 Z" transform="translate(0,0)" stroke="#ffffff" stroke-width="1" opacity="1" stroke-linejoin="round" tabindex="-1" role="img" aria-label="Equipe, 5." className="outline-none"></path>
            <path fill="rgb(129,80,237)" d="M 437.88285901566593 129.09457480321797 A 129.2 129.2 0 1 1 314.82054379200116 39.80012463059646 L 314.86540784400086 72.10009347294732 A 96.9 96.9 0 1 0 407.16214426174946 139.07093110241348 Z" transform="translate(0,0)" stroke="#ffffff" stroke-width="1" opacity="1" stroke-linejoin="round" tabindex="-1" role="img" aria-label="Développement , 80." className="outline-none"></path>
        </g>
        <g data-z-index="0.1" opacity="1" transform="translate(10,47) scale(1 1)" aria-hidden="true" clip-path="none"></g>
    </g>
    <text x="325" text-anchor="middle" data-z-index="4" className="text-[rgb(102,102,102)] fill-[rgb(102,102,102)]" y="46" aria-hidden="true"></text>
    <text x="10" text-anchor="start" data-z-index="4" className="text-[rgb(102,102,102)] fill-[rgb(102,102,102)]" y="397" aria-hidden="true"></text>
    <g data-z-index="6" opacity="1" transform="translate(10,47) scale(1 1)" aria-hidden="true" className="cursor-pointer">
        <path fill="none" stroke="#8ead12" stroke-width="1" d="M 369.1955055044917 17.59180260581157 C 364.1955055044917 17.59180260581157 358.63319960574256 34.71081989912433 356.7790976394929 40.41715899689525 L 354.9249956732432 46.123498094666175" opacity="1"></path>
        <path fill="none" stroke="#d9d9d9" stroke-width="1" d="M 432.57139956489834 56.42860043510164 C 427.57139956489834 56.42860043510164 414.8434775035405 69.15652249645949 410.60083681642124 73.39916318357878 L 406.358196129302 77.64180387069807" opacity="1"></path>
        <path fill="none" stroke="#0c6cf2" stroke-width="1" d="M 461.8482386507882 96.72471244146416 C 456.8482386507882 96.72471244146416 440.8101212153975 104.896541436776 435.4640820702673 107.62048443521329 L 430.1180429251371 110.34442743365057" opacity="1"></path>
        <path fill="none" stroke="#8150ed" stroke-width="1" d="M 216.4245878350383 297.79550550449164 C 221.4245878350383 297.79550550449164 232.00472237630282 283.2331996057426 235.53143389005766 278.3790976394929 L 239.0581454038125 273.5249956732432" opacity="1"></path>
        <g data-z-index="1" className="cursor-pointer" transform="translate(374,8)" opacity="1">
            <text x="5" data-z-index="1" y="16" className="text-white fill-white font-bold text-xs">
                <tspan className="font-bold">Partenariat &amp; Marketing</tspan>: 10.0 %</text>
        </g>
        <g data-z-index="1" className="cursor-pointer" transform="translate(438,46)" opacity="1">
            <text x="5" data-z-index="1" y="16" className="text-white fill-white font-bold text-xs">
                <tspan className="font-bold">Charité</tspan>: 5.0 %</text>
        </g>
        <g data-z-index="1" className="cursor-pointer" transform="translate(467,87)" opacity="1">
            <text x="5" data-z-index="1" y="16" className="text-white fill-white font-bold text-xs">
                <tspan className="font-bold">Equipe</tspan>: 5.0 %</text>
        </g>
        <g data-z-index="1" className="cursor-pointer" transform="translate(84,288)" opacity="1">
            <text x="5" data-z-index="1" y="16" className="text-white fill-white font-bold text-xs">
                <tspan className="font-bold">Développement </tspan>: 80.0 %</text>
        </g>
    </g>
</svg>