<svg width="132" height="264" viewBox="0 0 132 264" fill="none" xmlns="http://www.w3.org/2000/svg">
<g opacity="0.4">
<mask id="path-1-inside-1_767_682" fill="white">
<path d="M247.704 55.7189C250.865 56.968 252.445 57.5925 253.571 58.6614C254.523 59.5659 255.238 60.691 255.653 61.9374C256.142 63.4102 256.037 65.1062 255.826 68.498L246.759 214.08C246.548 217.472 246.442 219.168 245.774 220.569C245.208 221.754 244.358 222.782 243.301 223.561C242.052 224.482 240.406 224.906 237.115 225.753L95.8566 262.117C92.5655 262.965 90.9199 263.388 89.3811 263.185C88.0789 263.013 86.8391 262.523 85.7712 261.759C84.5092 260.855 83.5978 259.421 81.775 256.553L3.53893 133.445C1.71613 130.577 0.804736 129.143 0.522514 127.616C0.283677 126.325 0.366544 124.994 0.763781 123.742C1.23319 122.263 2.31548 120.953 4.48007 118.333L97.386 5.88365C99.5506 3.26374 100.633 1.95378 101.997 1.21373C103.152 0.587461 104.443 0.255113 105.756 0.246026C107.308 0.235288 108.889 0.859811 112.049 2.10886L247.704 55.7189Z"/>
</mask>
<path d="M101.997 1.21373L90.0773 -20.7616L101.997 1.21373ZM112.049 2.10886L121.238 -21.1414L112.049 2.10886ZM105.756 0.246026L105.583 -24.7534L105.756 0.246026ZM0.522514 127.616L-24.0607 132.162L0.522514 127.616ZM4.48007 118.333L-14.7929 102.41L4.48007 118.333ZM0.763781 123.742L-23.0655 116.182L0.763781 123.742ZM89.3811 263.185L92.6545 238.4L89.3811 263.185ZM85.7712 261.759L100.326 241.432L85.7712 261.759ZM246.759 214.08L221.808 212.526L246.759 214.08ZM245.774 220.569L268.334 231.341L245.774 220.569ZM243.301 223.561L228.467 203.438L243.301 223.561ZM255.826 68.498L230.874 66.9441L255.826 68.498ZM255.653 61.9374L231.93 69.8271L255.653 61.9374ZM253.571 58.6614L236.354 76.7887L253.571 58.6614ZM230.874 66.9441L221.808 212.526L271.711 215.634L280.777 70.052L230.874 66.9441ZM230.882 201.542L89.624 237.907L102.089 286.328L243.348 249.964L230.882 201.542ZM102.875 243.143L24.6386 120.036L-17.5608 146.854L60.6753 269.962L102.875 243.143ZM23.753 134.256L116.659 21.807L78.1131 -10.0397L-14.7929 102.41L23.753 134.256ZM102.861 25.3591L238.516 78.9692L256.893 32.4687L121.238 -21.1414L102.861 25.3591ZM116.659 21.807C117.232 21.1139 117.587 20.6847 117.88 20.3396C118.171 19.997 118.208 19.9668 118.098 20.0826C117.842 20.3505 116.397 21.8438 113.917 23.1891L90.0773 -20.7616C83.4159 -17.1483 78.8829 -10.9715 78.1131 -10.0397L116.659 21.807ZM121.238 -21.1414C120.114 -21.5856 113.162 -24.8058 105.583 -24.7534L105.929 25.2454C103.108 25.2649 101.121 24.6551 100.768 24.5437C100.616 24.4955 100.663 24.5043 101.083 24.6637C101.506 24.8243 102.025 25.0286 102.861 25.3591L121.238 -21.1414ZM113.917 23.1891C111.464 24.5199 108.72 25.2261 105.929 25.2454L105.583 -24.7534C100.165 -24.7159 94.8399 -23.345 90.0773 -20.7616L113.917 23.1891ZM24.6386 120.036C24.1564 119.277 23.858 118.807 23.6203 118.421C23.3845 118.038 23.3671 117.994 23.4431 118.135C23.6191 118.46 24.5927 120.296 25.1058 123.071L-24.0607 132.162C-22.6828 139.614 -18.209 145.834 -17.5608 146.854L24.6386 120.036ZM-14.7929 102.41C-15.5627 103.341 -20.7736 108.958 -23.0655 116.182L24.5931 131.303C23.7398 133.992 22.5459 135.693 22.3309 135.994C22.238 136.124 22.2608 136.083 22.5422 135.732C22.8259 135.379 23.1803 134.949 23.753 134.256L-14.7929 102.41ZM25.1058 123.071C25.6133 125.815 25.4372 128.643 24.5931 131.303L-23.0655 116.182C-24.7041 121.346 -25.0459 126.834 -24.0607 132.162L25.1058 123.071ZM89.624 237.907C88.7532 238.131 88.2136 238.269 87.7735 238.376C87.3367 238.482 87.2893 238.485 87.4465 238.456C87.8104 238.39 89.8574 238.031 92.6545 238.4L86.1077 287.97C93.6209 288.962 100.919 286.629 102.089 286.328L89.624 237.907ZM60.6753 269.962C61.3236 270.982 65.0551 277.673 71.2168 282.085L100.326 241.432C102.62 243.074 103.868 244.736 104.088 245.033C104.183 245.162 104.151 245.127 103.904 244.751C103.656 244.372 103.357 243.902 102.875 243.143L60.6753 269.962ZM92.6545 238.4C95.4216 238.766 98.0562 239.807 100.326 241.432L71.2168 282.085C75.6221 285.239 80.7363 287.26 86.1077 287.97L92.6545 238.4ZM221.808 212.526C221.752 213.424 221.717 213.98 221.682 214.431C221.648 214.879 221.636 214.925 221.657 214.767C221.706 214.4 221.998 212.343 223.213 209.797L268.334 231.341C271.599 224.502 271.636 216.84 271.711 215.634L221.808 212.526ZM243.348 249.964C244.518 249.662 252.035 248.181 258.135 243.684L228.467 203.438C230.738 201.764 232.704 201.089 233.055 200.972C233.206 200.921 233.163 200.942 232.73 201.06C232.293 201.179 231.753 201.318 230.882 201.542L243.348 249.964ZM223.213 209.797C224.416 207.278 226.22 205.094 228.467 203.438L258.135 243.684C262.497 240.469 265.999 236.23 268.334 231.341L223.213 209.797ZM280.777 70.052C280.852 68.8456 281.767 61.2388 279.375 54.0477L231.93 69.8271C231.04 67.1499 231.006 65.072 231.003 64.702C231.002 64.5422 231.008 64.5894 230.986 65.0383C230.964 65.4907 230.93 66.0467 230.874 66.9441L280.777 70.052ZM238.516 78.9692C239.352 79.2997 239.87 79.5048 240.289 79.6771C240.705 79.848 240.745 79.8736 240.601 79.8045C240.267 79.6447 238.4 78.7316 236.354 76.7887L270.787 40.5341C265.292 35.3153 258.017 32.9129 256.893 32.4687L238.516 78.9692ZM279.375 54.0477C277.665 48.9065 274.716 44.2653 270.787 40.5341L236.354 76.7887C234.331 74.8665 232.811 72.4756 231.93 69.8271L279.375 54.0477Z" fill="url(#paint0_linear_767_682)" fill-opacity="0.26" mask="url(#path-1-inside-1_767_682)"/>
</g>
<defs>
<linearGradient id="paint0_linear_767_682" x1="349.092" y1="-62.5411" x2="107.021" y2="154.094" gradientUnits="userSpaceOnUse">
<stop stop-color="white"/>
<stop offset="1" stop-color="white" stop-opacity="0"/>
</linearGradient>
</defs>
</svg>
