<svg width="47" height="129" viewBox="0 0 47 129" fill="none" xmlns="http://www.w3.org/2000/svg">
<g opacity="0.2">
<circle cx="46.3567" cy="23.9718" r="5.93478" transform="rotate(39.8112 46.3567 23.9718)" fill="#3A2F50"/>
<circle cx="33.6907" cy="39.168" r="5.93478" transform="rotate(39.8112 33.6907 39.168)" fill="#3A2F50"/>
<circle cx="21.0247" cy="54.3642" r="5.93478" transform="rotate(39.8112 21.0247 54.3642)" fill="#3A2F50"/>
<circle cx="8.35867" cy="69.5603" r="5.93478" transform="rotate(39.8112 8.35867 69.5603)" fill="#3A2F50"/>
<circle cx="48.8869" cy="51.834" r="5.93478" transform="rotate(39.8112 48.8869 51.834)" fill="#3A2F50"/>
<circle cx="36.2209" cy="67.0302" r="5.93478" transform="rotate(39.8112 36.2209 67.0302)" fill="#3A2F50"/>
<circle cx="23.5549" cy="82.2263" r="5.93478" transform="rotate(39.8112 23.5549 82.2263)" fill="#3A2F50"/>
<circle cx="51.417" cy="79.6962" r="5.93478" transform="rotate(39.8112 51.417 79.6962)" fill="#3A2F50"/>
<circle cx="38.751" cy="94.8923" r="5.93478" transform="rotate(39.8112 38.751 94.8923)" fill="#3A2F50"/>
<circle cx="53.9472" cy="107.558" r="5.93478" transform="rotate(39.8112 53.9472 107.558)" fill="#3A2F50"/>
</g>
</svg>
