<svg width="174" height="257" viewBox="0 0 174 257" fill="none" xmlns="http://www.w3.org/2000/svg">
<g opacity="0.4">
<mask id="path-1-inside-1_41_142" fill="white">
<path d="M261.091 144.038C262.362 147.19 262.998 148.766 262.998 150.318C262.998 151.632 262.675 152.925 262.057 154.084C261.326 155.453 260.024 156.545 257.419 158.728L145.627 252.423C143.022 254.606 141.72 255.697 140.244 256.177C138.995 256.583 137.665 256.675 136.371 256.446C134.843 256.174 133.403 255.273 130.522 253.47L6.86666 176.103C3.98567 174.3 2.54517 173.399 1.6327 172.143C0.860529 171.081 0.361846 169.844 0.180714 168.543C-0.0333464 167.006 0.378689 165.357 1.20275 162.06L36.5723 20.5495C37.3964 17.2525 37.8084 15.604 38.7206 14.3482C39.4925 13.2855 40.5142 12.4292 41.6955 11.8549C43.0914 11.1762 44.7866 11.0587 48.1769 10.8236L193.692 0.732758C197.082 0.497655 198.777 0.380103 200.253 0.859565C201.502 1.2653 202.633 1.97239 203.544 2.9184C204.621 4.03629 205.256 5.61215 206.528 8.76387L261.091 144.038Z"/>
</mask>
<path d="M200.253 0.859565L207.976 -22.9178L200.253 0.859565ZM206.528 8.76387L229.713 -0.587884L206.528 8.76387ZM203.544 2.9184L221.549 -14.4251L203.544 2.9184ZM38.7206 14.3482L18.4934 -0.344005L38.7206 14.3482ZM48.1769 10.8236L46.4474 -14.1165L48.1769 10.8236ZM41.6955 11.8549L30.7649 -10.6289L41.6955 11.8549ZM1.6327 172.143L21.8564 157.446L1.6327 172.143ZM0.180714 168.543L24.9418 165.096L0.180714 168.543ZM145.627 252.423L129.568 233.262L145.627 252.423ZM140.244 256.177L147.972 279.953L140.244 256.177ZM136.371 256.446L140.744 231.831L136.371 256.446ZM257.419 158.728L241.361 139.567L257.419 158.728ZM262.057 154.084L239.998 142.319L262.057 154.084ZM262.998 150.318L237.998 150.321L262.998 150.318ZM241.361 139.567L129.568 233.262L161.685 271.583L273.478 177.888L241.361 139.567ZM143.782 232.277L20.1269 154.909L-6.39357 197.296L117.262 274.664L143.782 232.277ZM25.4566 168.123L60.8262 26.6116L12.3184 14.4875L-23.0511 155.998L25.4566 168.123ZM49.9064 35.7637L195.421 25.6729L191.962 -24.2073L46.4474 -14.1165L49.9064 35.7637ZM183.342 18.1156L237.906 153.39L284.276 134.687L229.713 -0.587884L183.342 18.1156ZM195.421 25.6729C196.318 25.6107 196.874 25.5726 197.326 25.5475C197.775 25.5226 197.822 25.5284 197.662 25.5282C197.292 25.5278 195.214 25.5084 192.531 24.6369L207.976 -22.9178C200.768 -25.2588 193.168 -24.291 191.962 -24.2073L195.421 25.6729ZM229.713 -0.587884C229.26 -1.7088 226.807 -8.96695 221.549 -14.4251L185.538 20.2619C183.581 18.2298 182.655 16.3695 182.492 16.0369C182.422 15.8933 182.448 15.9332 182.622 16.3477C182.797 16.7653 183.006 17.2818 183.342 18.1156L229.713 -0.587884ZM192.531 24.6369C189.876 23.7747 187.475 22.2721 185.538 20.2619L221.549 -14.4251C217.791 -18.3274 213.129 -21.2441 207.976 -22.9178L192.531 24.6369ZM60.8262 26.6116C61.0442 25.7393 61.1798 25.1989 61.2956 24.7612C61.4106 24.3266 61.4307 24.2836 61.3811 24.4355C61.2664 24.7872 60.6059 26.7576 58.9478 29.0404L18.4934 -0.344005C14.0397 5.78756 12.6115 13.3149 12.3184 14.4875L60.8262 26.6116ZM46.4474 -14.1165C45.2416 -14.0329 37.5805 -13.9424 30.7649 -10.6289L52.6261 34.3387C50.0886 35.5723 48.0331 35.8783 47.6668 35.9297C47.5085 35.952 47.5544 35.9397 48.0024 35.9025C48.4536 35.8649 49.0094 35.8259 49.9064 35.7637L46.4474 -14.1165ZM58.9478 29.0404C57.3074 31.2987 55.1363 33.1183 52.6261 34.3387L30.7649 -10.6289C25.8921 -8.26001 21.6776 -4.72773 18.4934 -0.344005L58.9478 29.0404ZM20.1269 154.909C19.3647 154.432 18.8927 154.136 18.5121 153.891C18.1344 153.647 18.0996 153.615 18.2288 153.709C18.5279 153.927 20.1977 155.164 21.8564 157.446L-18.591 186.84C-14.1358 192.971 -7.4182 196.655 -6.39357 197.296L20.1269 154.909ZM-23.0511 155.998C-23.3442 157.171 -25.6255 164.485 -24.5804 171.991L24.9418 165.096C25.3309 167.89 24.9867 169.94 24.9225 170.304C24.8947 170.461 24.8972 170.414 25.0002 169.976C25.104 169.535 25.2386 168.995 25.4566 168.123L-23.0511 155.998ZM21.8564 157.446C23.4972 159.704 24.5569 162.331 24.9418 165.096L-24.5804 171.991C-23.8332 177.357 -21.7762 182.457 -18.591 186.84L21.8564 157.446ZM129.568 233.262C128.879 233.84 128.452 234.197 128.101 234.484C127.752 234.767 127.711 234.791 127.84 234.697C128.14 234.48 129.832 233.274 132.516 232.402L147.972 279.953C155.179 277.61 160.759 272.36 161.685 271.583L129.568 233.262ZM117.262 274.664C118.286 275.305 124.537 279.735 131.999 281.06L140.744 231.831C143.522 232.324 145.365 233.285 145.691 233.459C145.833 233.534 145.788 233.517 145.404 233.284C145.017 233.049 144.544 232.754 143.782 232.277L117.262 274.664ZM132.516 232.402C135.17 231.539 137.996 231.343 140.744 231.831L131.999 281.06C137.333 282.008 142.819 281.627 147.972 279.953L132.516 232.402ZM273.478 177.888C274.404 177.112 280.549 172.535 284.116 165.849L239.998 142.319C241.326 139.829 242.809 138.374 243.075 138.117C243.19 138.006 243.16 138.043 242.82 138.336C242.477 138.632 242.05 138.99 241.361 139.567L273.478 177.888ZM237.906 153.39C238.242 154.224 238.45 154.741 238.614 155.163C238.776 155.582 238.785 155.629 238.736 155.477C238.622 155.125 237.998 153.142 237.998 150.321L287.998 150.315C287.997 142.737 284.728 135.807 284.276 134.687L237.906 153.39ZM284.116 165.849C286.665 161.068 287.999 155.733 287.998 150.315L237.998 150.321C237.998 147.53 238.685 144.782 239.998 142.319L284.116 165.849Z" fill="url(#paint0_linear_41_142)" mask="url(#path-1-inside-1_41_142)"/>
</g>
<defs>
<linearGradient id="paint0_linear_41_142" x1="331.076" y1="273.195" x2="112.054" y2="56.8028" gradientUnits="userSpaceOnUse">
<stop stop-color="white"/>
<stop offset="1" stop-color="white" stop-opacity="0"/>
</linearGradient>
</defs>
</svg>
