<svg width="171" height="63" viewBox="0 0 171 63" fill="none" xmlns="http://www.w3.org/2000/svg">
<g clip-path="url(#clip0_17_2)">
<path d="M50.076 18.9247C50.107 18.94 50.1334 18.9632 50.1525 18.992C50.1717 19.0208 50.183 19.0541 50.1852 19.0886L51.3365 41.7702C51.3386 41.8052 51.3312 41.84 51.3152 41.8711C51.2991 41.9022 51.275 41.9284 51.2453 41.947L31.9833 54.0911C31.8557 54.1716 31.6857 54.0839 31.6774 53.9332L30.5251 31.2532C30.5238 31.2183 30.5318 31.1836 30.5485 31.1528C30.5651 31.122 30.5897 31.0962 30.6197 31.0782L49.8792 18.9307C49.9086 18.9125 49.9423 18.9024 49.9768 18.9013C50.0114 18.9003 50.0456 18.9083 50.076 18.9247ZM45.2096 16.4141C45.3439 16.4833 45.356 16.6726 45.2275 16.7548L28.5493 27.449C28.5199 27.4681 28.486 27.4792 28.451 27.4811C28.416 27.4831 28.3811 27.4759 28.3498 27.4602L23.0516 24.7268C22.9156 24.6567 22.9078 24.4633 23.0363 24.3811L39.7137 13.6885C39.7431 13.6701 39.7768 13.6597 39.8115 13.6583C39.8462 13.657 39.8806 13.6647 39.9114 13.6808L45.2096 16.4141ZM35.1962 11.2482C35.2269 11.2639 35.2528 11.2875 35.2714 11.3166C35.29 11.3456 35.3006 11.379 35.3021 11.4135C35.3036 11.4479 35.2959 11.4821 35.2799 11.5126C35.2638 11.5431 35.24 11.5689 35.2107 11.5872L16.2059 23.7541L17.3061 46.2931C17.3081 46.3276 17.301 46.3619 17.2854 46.3926C17.2698 46.4234 17.2464 46.4495 17.2175 46.4683C17.1886 46.487 17.1552 46.4978 17.1207 46.4994C17.0863 46.5011 17.0521 46.4936 17.0215 46.4777L11.7131 43.7392C11.6826 43.724 11.6568 43.7009 11.6382 43.6724C11.6196 43.6439 11.6089 43.611 11.6073 43.577L10.501 20.9207C10.499 20.8864 10.5062 20.8523 10.5219 20.8218C10.5377 20.7913 10.5613 20.7656 10.5904 20.7473L29.6935 8.51916C29.7221 8.50034 29.7552 8.48953 29.7894 8.48786C29.8235 8.48618 29.8575 8.49371 29.8878 8.50964L35.1962 11.2482ZM26.2792 31.8283C26.3103 31.8439 26.3365 31.8676 26.3552 31.8969C26.3738 31.9262 26.3841 31.96 26.3849 31.9948L27.3212 51.4599C27.3286 51.6122 27.1691 51.7129 27.0331 51.6427L21.7349 48.9094C21.7041 48.8939 21.6778 48.8706 21.6587 48.8419C21.6395 48.8132 21.6282 48.7799 21.6258 48.7455L20.6913 29.2813C20.6894 29.2465 20.6968 29.2118 20.7128 29.1808C20.7287 29.1498 20.7526 29.1236 20.7819 29.1048C20.8113 29.086 20.8451 29.0754 20.88 29.074C20.9148 29.0726 20.9494 29.0804 20.9802 29.0967L26.2801 31.8309L26.2792 31.8283Z" fill="url(#paint0_linear_17_2)"/>
</g>
<path d="M71.3065 39.4047C71.6332 39.9764 72.0688 40.5617 72.6132 41.1606C73.1849 41.7323 73.8927 42.2495 74.7367 42.7124C75.5806 43.1479 76.5879 43.5155 77.7585 43.8149C78.9292 44.0872 80.2903 44.2233 81.8421 44.2233C83.0672 44.2233 84.3603 44.0599 85.7215 43.7332C87.1099 43.4066 88.335 42.8621 89.3967 42.0998C90.2406 41.5009 90.9212 40.7795 91.4385 39.9355C91.9558 39.0644 92.2144 38.0299 92.2144 36.832C92.2144 35.5253 91.9421 34.4771 91.3977 33.6877C90.8532 32.8709 90.1454 32.2312 89.2742 31.7684C88.4303 31.3056 87.4638 30.9517 86.3749 30.7066C85.2859 30.4616 84.2106 30.2302 83.1488 30.0124C82.0327 29.7946 80.9982 29.5769 80.0453 29.3591C79.0925 29.1141 78.2622 28.8418 77.5543 28.5424C76.8465 28.2157 76.2884 27.8481 75.8801 27.4398C75.499 27.0042 75.3084 26.4733 75.3084 25.8472C75.3084 25.0033 75.5398 24.3227 76.0026 23.8054C76.4654 23.2882 77.0507 22.8798 77.7585 22.5803C78.4936 22.2809 79.2831 22.0767 80.127 21.9678C80.9982 21.8589 81.7877 21.8045 82.4955 21.8045C83.9656 21.8045 85.3268 22.1039 86.579 22.7028C87.8313 23.3018 88.7706 24.1049 89.3967 25.1122L91.8877 23.7237C91.0982 22.0903 89.8731 20.9605 88.2125 20.3344C86.5518 19.681 84.5236 19.3543 82.128 19.3543C81.1751 19.3543 80.1406 19.4496 79.0244 19.6402C77.9355 19.8307 76.9146 20.1846 75.9618 20.7019C75.0634 21.1919 74.3147 21.8453 73.7158 22.662C73.1169 23.4515 72.8174 24.4588 72.8174 25.6839C72.8174 26.8545 73.0488 27.8345 73.5116 28.624C74.0016 29.4135 74.6278 30.0669 75.3901 30.5841C76.1795 31.0742 77.0507 31.4689 78.0035 31.7684C78.9836 32.0406 79.9773 32.272 80.9846 32.4626C81.9918 32.6532 82.9719 32.8301 83.9247 32.9934C84.8776 33.1296 85.7079 33.2929 86.4157 33.4835C87.2596 33.7285 88.0219 34.096 88.7025 34.586C89.4103 35.0761 89.7642 35.7567 89.7642 36.6278C89.7642 37.4173 89.5737 38.1115 89.1925 38.7104C88.8386 39.2821 88.3486 39.7722 87.7224 40.1805C86.933 40.6978 85.9665 41.0789 84.8231 41.3239C83.7069 41.5417 82.4955 41.6506 81.1887 41.6506C79.5553 41.6506 78.0716 41.3512 76.7376 40.7522C75.4037 40.1533 74.3828 39.2413 73.675 38.0162L71.3065 39.4047ZM74.3692 35.8519C74.7503 36.5598 75.1178 37.1723 75.4717 37.6896C75.8529 38.1796 76.2884 38.5879 76.7785 38.9146C77.2957 39.2413 77.8946 39.4863 78.5752 39.6497C79.2831 39.7858 80.1542 39.8539 81.1887 39.8539C82.2777 39.8539 83.285 39.7722 84.2106 39.6088C85.1362 39.4455 85.9121 39.1733 86.5382 38.7921C87.491 38.2204 87.9675 37.499 87.9675 36.6278C87.9675 36.3011 87.7633 36.0289 87.3549 35.8111C86.9466 35.5661 86.4702 35.3619 85.9257 35.1986C85.1634 34.9808 84.265 34.8038 83.2305 34.6677C82.196 34.5044 81.1207 34.3138 80.0045 34.096C78.9155 33.8782 77.8266 33.5924 76.7376 33.2385C75.6759 32.8573 74.7231 32.3537 73.8791 31.7275C73.0352 31.1014 72.3546 30.2983 71.8373 29.3182C71.3201 28.3382 71.0615 27.1267 71.0615 25.6839C71.0615 24.1321 71.4018 22.8526 72.0824 21.8453C72.763 20.838 73.6205 20.0213 74.655 19.3951C75.7984 18.7146 77.0371 18.2381 78.3711 17.9659C79.705 17.6937 80.9573 17.5575 82.128 17.5575C83.4347 17.5575 84.7142 17.68 85.9665 17.9251C87.2188 18.1429 88.3758 18.524 89.4375 19.0685C90.4993 19.5857 91.4385 20.2663 92.2552 21.1102C93.0719 21.9542 93.7117 23.0023 94.1745 24.2546L88.825 27.3173C88.0627 26.2283 87.1099 25.3299 85.9665 24.6221C84.8231 23.9143 83.6661 23.5604 82.4955 23.5604C81.9782 23.5604 81.4065 23.5876 80.7804 23.6421C80.1814 23.6965 79.6097 23.8054 79.0653 23.9688C78.5208 24.1321 78.058 24.3635 77.6769 24.663C77.2957 24.9624 77.1052 25.3572 77.1052 25.8472C77.1052 26.1467 77.3366 26.4189 77.7994 26.6639C78.2894 26.9089 78.9019 27.1539 79.637 27.399C80.4537 27.6712 81.3793 27.9026 82.4138 28.0932C83.4483 28.2837 84.4964 28.5015 85.5582 28.7465C86.6199 28.9643 87.6544 29.2502 88.6617 29.6041C89.669 29.958 90.5673 30.448 91.3568 31.0742C92.1463 31.6731 92.7725 32.4354 93.2353 33.361C93.7253 34.2866 93.9703 35.4436 93.9703 36.832C93.9703 38.3293 93.6572 39.6224 93.0311 40.7114C92.4049 41.7731 91.6018 42.6715 90.6218 43.4066C89.3695 44.3322 87.9402 44.9992 86.334 45.4075C84.7551 45.8159 83.2577 46.02 81.8421 46.02C78.4391 46.02 75.6487 45.3667 73.4708 44.0599C71.2929 42.7532 69.8092 41.0109 69.0197 38.833L74.3692 35.8519ZM108.566 22.4578C109.6 22.4578 110.512 22.5395 111.302 22.7028C112.091 22.839 112.799 23.0568 113.425 23.3562C115.168 24.2002 116.039 25.6158 116.039 27.6031C116.039 28.6104 115.794 29.4407 115.304 30.0941C114.841 30.7203 114.242 31.2239 113.507 31.605C112.636 32.0678 111.669 32.3673 110.608 32.5034C109.573 32.6395 108.593 32.7076 107.668 32.7076H101.175V22.4578H108.566ZM108.933 35.0761C110.05 35.0761 111.139 34.9536 112.2 34.7085C113.289 34.4363 114.269 34.0143 115.14 33.4426C116.039 32.8437 116.76 32.0678 117.305 31.115C117.876 30.1622 118.162 28.9915 118.162 27.6031C118.162 26.133 117.904 24.9352 117.386 24.0096C116.869 23.0568 116.134 22.2945 115.181 21.7228C114.12 21.0694 112.854 20.6338 111.384 20.416C109.941 20.171 108.362 20.0485 106.647 20.0485H98.8878V43.8966H101.175V35.0761H108.933ZM102.931 36.8728V45.6934H97.0911V18.2517H106.647C108.634 18.2517 110.472 18.4015 112.159 18.7009C113.875 19.0004 115.345 19.5585 116.57 20.3752C117.631 21.083 118.462 22.0222 119.061 23.1929C119.66 24.3363 119.959 25.8064 119.959 27.6031C119.959 29.3182 119.632 30.7747 118.979 31.9726C118.326 33.1432 117.468 34.096 116.406 34.8311C115.372 35.5389 114.201 36.0561 112.894 36.3828C111.588 36.7095 110.267 36.8728 108.933 36.8728H102.931ZM102.931 24.2546V30.9108H107.668C108.375 30.9108 109.138 30.87 109.954 30.7883C110.798 30.7066 111.561 30.5161 112.241 30.2166C112.813 29.9716 113.289 29.6449 113.67 29.2366C114.051 28.801 114.242 28.2565 114.242 27.6031C114.242 26.2692 113.534 25.3299 112.119 24.7855C111.247 24.4316 110.063 24.2546 108.566 24.2546H102.931ZM122.559 22.7028H130.971V43.8966H133.299V22.7028H141.139L141.425 20.0485H122.559V22.7028ZM120.803 18.2517H143.548L142.895 24.4996H135.095V45.6934H129.174V24.4996H120.803V18.2517ZM146.099 22.7028H154.511V43.8966H156.839V22.7028H164.679L164.965 20.0485H146.099V22.7028ZM144.343 18.2517H167.089L166.435 24.4996H158.636V45.6934H152.714V24.4996H144.343V18.2517Z" fill="white"/>
<defs>
<linearGradient id="paint0_linear_17_2" x1="40.0068" y1="13.73" x2="21.8303" y2="48.9629" gradientUnits="userSpaceOnUse">
<stop stop-color="#73ABFF"/>
<stop offset="1" stop-color="#DE51EA"/>
</linearGradient>
<clipPath id="clip0_17_2">
<rect width="45.9034" height="45.9034" fill="white" transform="matrix(-0.888705 -0.458479 -0.458479 0.888705 61.8398 21.4702)"/>
</clipPath>
</defs>
</svg>
