<svg width="307" height="167" viewBox="0 0 307 167" fill="none" xmlns="http://www.w3.org/2000/svg">
<rect width="307" height="167" rx="25" fill="#1D1B27" fill-opacity="0.5"/>
<path opacity="0.8" d="M57.1755 34H58.6955V23.408H61.9115V22.08H53.9275V23.408H57.1755V34ZM65.8112 34.192C68.2592 34.192 70.1792 32.32 70.1792 29.744C70.1792 27.168 68.2752 25.328 65.8112 25.328C63.3472 25.328 61.4432 27.168 61.4432 29.744C61.4432 32.32 63.3632 34.192 65.8112 34.192ZM65.8112 32.864C64.1632 32.864 62.8992 31.536 62.8992 29.76C62.8992 27.984 64.1632 26.656 65.8112 26.656C67.4592 26.656 68.7232 27.984 68.7232 29.76C68.7232 31.536 67.4592 32.864 65.8112 32.864ZM74.8016 34.096C75.0416 34.096 75.3776 34.08 75.6496 34.016V32.896C75.4736 32.928 75.2336 32.944 75.0576 32.944C73.6016 32.944 73.5056 31.952 73.5056 31.408V26.832H75.5536V25.52H73.5056V22.768H72.1296V24.272C72.1296 25.024 71.6496 25.52 70.9136 25.52H70.4816V26.832H72.1296V31.408C72.1296 33.12 73.0896 34.096 74.8016 34.096ZM80.1369 25.328C78.5689 25.328 77.1929 26.224 76.7129 27.376L77.9449 28.016C78.3129 27.184 79.1129 26.64 80.1369 26.64C81.2569 26.64 82.0569 27.28 82.0569 28.256V28.496L79.1129 29.152C77.4009 29.536 76.3929 30.4 76.3929 31.648C76.3929 33.136 77.6089 34.192 79.4169 34.192C80.5049 34.192 81.5129 33.664 82.0889 32.816V34H83.4329V28.256C83.4329 26.528 82.0729 25.328 80.1369 25.328ZM79.4969 32.96C78.4889 32.96 77.8489 32.448 77.8489 31.648C77.8489 30.96 78.4729 30.432 79.4329 30.224L82.0569 29.616V30.352C82.0569 31.84 80.9849 32.96 79.4969 32.96ZM84.8242 34H86.2002V22.08H84.8242V34ZM93.2026 34.192C95.0266 34.192 96.2906 33.184 96.2906 31.712C96.2906 30.576 95.5226 29.744 94.0986 29.328L92.6586 28.896C91.9226 28.672 91.4426 28.288 91.4426 27.712C91.4426 27.04 92.0506 26.592 92.9626 26.592C93.9706 26.592 94.7706 27.12 95.1226 28.032L96.2746 27.472C95.7786 26.144 94.5306 25.328 92.9626 25.328C91.2026 25.328 90.0186 26.32 90.0186 27.792C90.0186 28.944 90.7546 29.76 92.1786 30.16L93.5706 30.544C94.3546 30.768 94.8666 31.104 94.8666 31.712C94.8666 32.416 94.1946 32.928 93.2026 32.928C92.1466 32.928 91.2346 32.368 90.8026 31.296L89.6346 31.872C90.1786 33.312 91.5386 34.192 93.2026 34.192ZM102.806 25.52V30.656C102.806 31.984 101.958 32.864 100.71 32.864C99.4295 32.864 98.5975 32 98.5975 30.656V25.52H97.2215V30.912C97.2215 32.72 98.5655 34.192 100.406 34.192C101.43 34.192 102.342 33.76 102.838 33.024V34H104.182V25.52H102.806ZM110.264 25.328C108.952 25.328 107.8 25.888 107.224 26.816V25.52H105.88V37.2H107.256V32.832C107.88 33.68 108.984 34.192 110.232 34.192C112.648 34.192 114.552 32.32 114.552 29.744C114.552 27.168 112.648 25.328 110.264 25.328ZM110.184 32.864C108.488 32.864 107.256 31.552 107.256 29.76C107.256 27.968 108.504 26.656 110.184 26.656C111.848 26.656 113.096 27.968 113.096 29.76C113.096 31.552 111.864 32.864 110.184 32.864ZM120.153 25.328C118.841 25.328 117.689 25.888 117.113 26.816V25.52H115.769V37.2H117.145V32.832C117.769 33.68 118.873 34.192 120.121 34.192C122.537 34.192 124.441 32.32 124.441 29.744C124.441 27.168 122.537 25.328 120.153 25.328ZM120.073 32.864C118.377 32.864 117.145 31.552 117.145 29.76C117.145 27.968 118.393 26.656 120.073 26.656C121.737 26.656 122.985 27.968 122.985 29.76C122.985 31.552 121.753 32.864 120.073 32.864ZM125.658 34H127.034V22.08H125.658V34ZM134.718 25.504L132.11 32.064L129.502 25.504H127.934L131.326 33.92L130.958 34.8C130.702 35.392 130.382 36.16 129.134 36.16C128.798 36.16 128.414 36.112 128.254 36.064V37.296C128.574 37.424 128.99 37.472 129.374 37.472C131.358 37.472 131.966 36.128 132.398 35.056L136.318 25.504H134.718Z" fill="white"/>
<path opacity="0.75" d="M24.7092 121.168C26.7952 121.168 28.2232 119.992 28.2232 118.27C28.2232 116.87 27.3692 115.988 25.6612 115.47L23.7992 114.91C22.7772 114.616 22.2312 114 22.2312 113.202C22.2312 112.222 23.0572 111.564 24.3172 111.564C25.5912 111.564 26.5432 112.236 26.9772 113.468L28.1392 112.922C27.6632 111.536 26.2212 110.402 24.3032 110.402C22.3012 110.402 20.9012 111.592 20.9012 113.286C20.9012 114.574 21.7412 115.624 23.4072 116.114L25.3532 116.702C26.3892 117.01 26.8932 117.486 26.8932 118.368C26.8932 119.334 26.0252 120.006 24.7092 120.006C23.3232 120.006 22.2452 119.25 21.7552 117.822L20.5792 118.34C21.0832 119.922 22.6652 121.168 24.7092 121.168ZM33.2166 113.412C32.0686 113.412 31.0606 113.902 30.5566 114.714V113.58H29.3806V123.8H30.5846V119.978C31.1306 120.72 32.0966 121.168 33.1886 121.168C35.3026 121.168 36.9686 119.53 36.9686 117.276C36.9686 115.022 35.3026 113.412 33.2166 113.412ZM33.1466 120.006C31.6626 120.006 30.5846 118.858 30.5846 117.29C30.5846 115.722 31.6766 114.574 33.1466 114.574C34.6026 114.574 35.6946 115.722 35.6946 117.29C35.6946 118.858 34.6166 120.006 33.1466 120.006ZM41.1464 113.496C40.2504 113.496 39.5364 113.818 39.1444 114.504V113.58H37.9824V121H39.1864V116.576C39.1864 115.344 39.9004 114.644 40.9644 114.644H41.7484V113.496H41.1464ZM49.2829 116.968C49.2829 115.078 47.9389 113.412 45.8249 113.412C43.7529 113.412 42.2129 115.036 42.2129 117.276C42.2129 119.516 43.7949 121.168 45.9229 121.168C47.4489 121.168 48.6529 120.342 49.1149 119.32L48.0649 118.76C47.6729 119.516 46.9869 120.076 45.9369 120.076C44.6349 120.076 43.5289 119.124 43.4729 117.654H49.2269C49.2689 117.416 49.2829 117.178 49.2829 116.968ZM43.5009 116.618C43.6689 115.274 44.6629 114.476 45.8249 114.476C46.9169 114.476 47.9389 115.386 47.9529 116.618H43.5009ZM53.0243 113.412C51.6523 113.412 50.4483 114.196 50.0283 115.204L51.1063 115.764C51.4283 115.036 52.1283 114.56 53.0243 114.56C54.0043 114.56 54.7043 115.12 54.7043 115.974V116.184L52.1283 116.758C50.6303 117.094 49.7483 117.85 49.7483 118.942C49.7483 120.244 50.8123 121.168 52.3943 121.168C53.3463 121.168 54.2283 120.706 54.7323 119.964V121H55.9083V115.974C55.9083 114.462 54.7183 113.412 53.0243 113.412ZM52.4643 120.09C51.5823 120.09 51.0223 119.642 51.0223 118.942C51.0223 118.34 51.5683 117.878 52.4083 117.696L54.7043 117.164V117.808C54.7043 119.11 53.7663 120.09 52.4643 120.09ZM63.0388 110.57V114.672C62.5068 113.888 61.5128 113.412 60.3928 113.412C58.3068 113.412 56.6548 115.05 56.6548 117.29C56.6548 119.53 58.2928 121.168 60.4068 121.168C61.5268 121.168 62.5208 120.72 63.0668 119.922V121H64.2428V110.57H63.0388ZM60.4768 120.006C59.0068 120.006 57.9288 118.858 57.9288 117.29C57.9288 115.736 59.0068 114.574 60.4768 114.574C61.9468 114.574 63.0388 115.736 63.0388 117.29C63.0388 118.858 61.9468 120.006 60.4768 120.006ZM70.0268 121H71.3568V111.732H74.1708V110.57H67.1848V111.732H70.0268V121ZM80.7801 116.968C80.7801 115.078 79.4361 113.412 77.3221 113.412C75.2501 113.412 73.7101 115.036 73.7101 117.276C73.7101 119.516 75.2921 121.168 77.4201 121.168C78.9461 121.168 80.1501 120.342 80.6121 119.32L79.5621 118.76C79.1701 119.516 78.4841 120.076 77.4341 120.076C76.1321 120.076 75.0261 119.124 74.9701 117.654H80.7241C80.7661 117.416 80.7801 117.178 80.7801 116.968ZM74.9981 116.618C75.1661 115.274 76.1601 114.476 77.3221 114.476C78.4141 114.476 79.4361 115.386 79.4501 116.618H74.9981ZM84.9554 121.168C86.3974 121.168 87.6434 120.3 88.1054 119.208L87.0274 118.648C86.6634 119.46 85.9214 120.006 84.9554 120.006C83.5554 120.006 82.5194 118.83 82.5194 117.29C82.5194 115.722 83.5554 114.574 84.9554 114.574C85.9214 114.574 86.6634 115.12 87.0274 115.932L88.1054 115.372C87.6434 114.266 86.4114 113.412 84.9554 113.412C82.8274 113.412 81.2454 115.05 81.2454 117.276C81.2454 119.502 82.8274 121.168 84.9554 121.168ZM92.3 113.412C91.404 113.412 90.634 113.776 90.186 114.392V110.57H88.982V121H90.186V116.506C90.186 115.344 90.928 114.574 92.034 114.574C93.154 114.574 93.868 115.344 93.868 116.506V121H95.072V116.128C95.072 114.56 93.91 113.412 92.3 113.412ZM100.717 121H102.047V111.732H104.861V110.57H97.8752V111.732H100.717V121ZM108.223 121.168C110.365 121.168 112.045 119.53 112.045 117.276C112.045 115.022 110.379 113.412 108.223 113.412C106.067 113.412 104.401 115.022 104.401 117.276C104.401 119.53 106.081 121.168 108.223 121.168ZM108.223 120.006C106.781 120.006 105.675 118.844 105.675 117.29C105.675 115.736 106.781 114.574 108.223 114.574C109.665 114.574 110.771 115.736 110.771 117.29C110.771 118.844 109.665 120.006 108.223 120.006ZM119.129 113.58H117.687L114.271 117.22V110.57H113.067V121H114.271V118.858L115.587 117.444L117.743 121H119.129L116.385 116.548L119.129 113.58ZM126.24 116.968C126.24 115.078 124.896 113.412 122.782 113.412C120.71 113.412 119.17 115.036 119.17 117.276C119.17 119.516 120.752 121.168 122.88 121.168C124.406 121.168 125.61 120.342 126.072 119.32L125.022 118.76C124.63 119.516 123.944 120.076 122.894 120.076C121.592 120.076 120.486 119.124 120.43 117.654H126.184C126.226 117.416 126.24 117.178 126.24 116.968ZM120.458 116.618C120.626 115.274 121.62 114.476 122.782 114.476C123.874 114.476 124.896 115.386 124.91 116.618H120.458ZM130.444 113.412C129.534 113.412 128.736 113.79 128.302 114.434V113.58H127.126V121H128.33V116.506C128.33 115.344 129.072 114.574 130.178 114.574C131.298 114.574 132.012 115.33 132.012 116.506V121H133.216V116.114C133.216 114.56 132.054 113.412 130.444 113.412Z" fill="white"/>
<path d="M24.627 94H28.967V73.14L20.707 73.168V76.808H24.627V94ZM41.3671 94.336C46.4351 94.336 49.7951 89.996 49.7951 83.556C49.7951 77.116 46.4351 72.804 41.3391 72.804C36.299 72.804 32.911 77.088 32.911 83.556C32.911 90.024 36.327 94.336 41.3671 94.336ZM41.3671 90.416C38.763 90.416 37.2231 87.868 37.2231 83.556C37.2231 79.216 38.735 76.724 41.3391 76.724C43.9711 76.724 45.4831 79.244 45.4831 83.556C45.4831 87.896 43.9711 90.416 41.3671 90.416ZM59.5255 94.336C64.5935 94.336 67.9535 89.996 67.9535 83.556C67.9535 77.116 64.5935 72.804 59.4975 72.804C54.4575 72.804 51.0695 77.088 51.0695 83.556C51.0695 90.024 54.4855 94.336 59.5255 94.336ZM59.5255 90.416C56.9215 90.416 55.3815 87.868 55.3815 83.556C55.3815 79.216 56.8935 76.724 59.4975 76.724C62.1295 76.724 63.6415 79.244 63.6415 83.556C63.6415 87.896 62.1295 90.416 59.5255 90.416ZM69.9279 97.22H72.7279L74.8559 89.8H71.0759L69.9279 97.22ZM85.561 94.336C90.629 94.336 93.989 89.996 93.989 83.556C93.989 77.116 90.629 72.804 85.533 72.804C80.493 72.804 77.105 77.088 77.105 83.556C77.105 90.024 80.521 94.336 85.561 94.336ZM85.561 90.416C82.957 90.416 81.417 87.868 81.417 83.556C81.417 79.216 82.929 76.724 85.533 76.724C88.165 76.724 89.677 79.244 89.677 83.556C89.677 87.896 88.165 90.416 85.561 90.416ZM103.719 94.336C108.787 94.336 112.147 89.996 112.147 83.556C112.147 77.116 108.787 72.804 103.691 72.804C98.6514 72.804 95.2634 77.088 95.2634 83.556C95.2634 90.024 98.6794 94.336 103.719 94.336ZM103.719 90.416C101.115 90.416 99.5754 87.868 99.5754 83.556C99.5754 79.216 101.087 76.724 103.691 76.724C106.323 76.724 107.835 79.244 107.835 83.556C107.835 87.896 106.323 90.416 103.719 90.416ZM121.878 94.336C126.946 94.336 130.306 89.996 130.306 83.556C130.306 77.116 126.946 72.804 121.85 72.804C116.81 72.804 113.422 77.088 113.422 83.556C113.422 90.024 116.838 94.336 121.878 94.336ZM121.878 90.416C119.274 90.416 117.734 87.868 117.734 83.556C117.734 79.216 119.246 76.724 121.85 76.724C124.482 76.724 125.994 79.244 125.994 83.556C125.994 87.896 124.482 90.416 121.878 90.416ZM132.28 97.22H135.08L137.208 89.8H133.428L132.28 97.22ZM147.913 94.336C152.981 94.336 156.341 89.996 156.341 83.556C156.341 77.116 152.981 72.804 147.885 72.804C142.845 72.804 139.457 77.088 139.457 83.556C139.457 90.024 142.873 94.336 147.913 94.336ZM147.913 90.416C145.309 90.416 143.769 87.868 143.769 83.556C143.769 79.216 145.281 76.724 147.885 76.724C150.517 76.724 152.029 79.244 152.029 83.556C152.029 87.896 150.517 90.416 147.913 90.416ZM166.072 94.336C171.14 94.336 174.5 89.996 174.5 83.556C174.5 77.116 171.14 72.804 166.044 72.804C161.004 72.804 157.616 77.088 157.616 83.556C157.616 90.024 161.032 94.336 166.072 94.336ZM166.072 90.416C163.468 90.416 161.928 87.868 161.928 83.556C161.928 79.216 163.44 76.724 166.044 76.724C168.676 76.724 170.188 79.244 170.188 83.556C170.188 87.896 168.676 90.416 166.072 90.416ZM184.23 94.336C189.298 94.336 192.658 89.996 192.658 83.556C192.658 77.116 189.298 72.804 184.202 72.804C179.162 72.804 175.774 77.088 175.774 83.556C175.774 90.024 179.19 94.336 184.23 94.336ZM184.23 90.416C181.626 90.416 180.086 87.868 180.086 83.556C180.086 79.216 181.598 76.724 184.202 76.724C186.834 76.724 188.346 79.244 188.346 83.556C188.346 87.896 186.834 90.416 184.23 90.416ZM194.633 97.22H197.433L199.561 89.8H195.781L194.633 97.22ZM210.266 94.336C215.334 94.336 218.694 89.996 218.694 83.556C218.694 77.116 215.334 72.804 210.238 72.804C205.198 72.804 201.81 77.088 201.81 83.556C201.81 90.024 205.226 94.336 210.266 94.336ZM210.266 90.416C207.662 90.416 206.122 87.868 206.122 83.556C206.122 79.216 207.634 76.724 210.238 76.724C212.87 76.724 214.382 79.244 214.382 83.556C214.382 87.896 212.87 90.416 210.266 90.416ZM228.424 94.336C233.492 94.336 236.852 89.996 236.852 83.556C236.852 77.116 233.492 72.804 228.396 72.804C223.356 72.804 219.968 77.088 219.968 83.556C219.968 90.024 223.384 94.336 228.424 94.336ZM228.424 90.416C225.82 90.416 224.28 87.868 224.28 83.556C224.28 79.216 225.792 76.724 228.396 76.724C231.028 76.724 232.54 79.244 232.54 83.556C232.54 87.896 231.028 90.416 228.424 90.416ZM246.583 94.336C251.651 94.336 255.011 89.996 255.011 83.556C255.011 77.116 251.651 72.804 246.555 72.804C241.515 72.804 238.127 77.088 238.127 83.556C238.127 90.024 241.543 94.336 246.583 94.336ZM246.583 90.416C243.979 90.416 242.439 87.868 242.439 83.556C242.439 79.216 243.951 76.724 246.555 76.724C249.187 76.724 250.699 79.244 250.699 83.556C250.699 87.896 249.187 90.416 246.583 90.416Z" fill="white"/>
<path fill-rule="evenodd" clip-rule="evenodd" d="M27.3021 20.7697C27.699 21.0813 27.9272 21.5461 27.9272 22.0447C27.9272 26.0643 28.0629 27.146 28.6175 27.5576C28.9814 27.8262 29.4801 27.8234 31.1603 27.7767C31.9413 27.7537 32.9414 27.7244 34.2513 27.7244C34.7738 27.7244 35.2661 27.9481 35.5997 28.3377C35.9096 28.6997 36.0452 29.1727 35.9737 29.6384C35.3614 33.603 31.9881 36.4822 27.9529 36.4822C23.4759 36.4822 19.834 32.8403 19.834 28.3642C19.834 24.8149 22.518 21.2656 25.8171 20.4534C26.3322 20.3278 26.8859 20.4452 27.3021 20.7697ZM26.2342 21.778C26.2048 21.778 26.1755 21.7817 26.1462 21.789C23.4237 22.4591 21.209 25.4089 21.209 28.3642C21.209 32.0822 24.234 35.1072 27.9529 35.1072C31.3052 35.1072 34.1065 32.7193 34.6143 29.4285C34.618 29.401 34.6308 29.3212 34.5557 29.2323C34.4842 29.1489 34.3705 29.0994 34.2513 29.0994C32.9579 29.0994 31.9707 29.1287 31.1997 29.1507C29.3334 29.2067 28.5616 29.2277 27.7989 28.6622C26.7084 27.8542 26.565 26.496 26.5531 22.6846L26.5522 22.0447C26.5522 21.9677 26.5192 21.9036 26.4532 21.8522C26.3918 21.8037 26.3139 21.778 26.2342 21.778ZM36.3802 19.4224C37.9917 21.033 39.0147 23.1496 38.9853 24.8152C38.9743 25.4651 38.5023 26.0078 37.8643 26.104C36.6194 26.2919 35.1619 26.3488 33.8722 26.3488C32.6714 26.3488 31.6144 26.3002 31.0067 26.2654C30.2422 26.2204 29.6335 25.6109 29.5895 24.8464C29.518 23.6345 29.3631 20.5554 29.4731 18.1739C29.5034 17.4819 30.0625 16.9309 30.7464 16.919C32.7053 16.8622 34.7265 17.7715 36.3802 19.4224ZM30.8637 18.2931H30.8435C30.7427 20.6022 30.8921 23.585 30.9618 24.7666C30.9654 24.8372 31.0168 24.8885 31.0864 24.8922C32.0288 24.9463 35.2756 25.0966 37.6104 24.7529C37.6159 23.4659 36.7349 21.7205 35.4085 20.395C34.0482 19.0365 32.4385 18.2931 30.8637 18.2931Z" fill="#8EAD12"/>
</svg>
