<svg width="212" height="111" viewBox="0 0 212 111" fill="none" xmlns="http://www.w3.org/2000/svg">
<rect width="212" height="111" rx="20" fill="#1D1B27" fill-opacity="0.5"/>
<path opacity="0.8" d="M30.9576 43H32.4776V32.408H35.6936V31.08H27.7096V32.408H30.9576V43ZM39.5934 43.192C42.0414 43.192 43.9614 41.32 43.9614 38.744C43.9614 36.168 42.0574 34.328 39.5934 34.328C37.1294 34.328 35.2254 36.168 35.2254 38.744C35.2254 41.32 37.1454 43.192 39.5934 43.192ZM39.5934 41.864C37.9454 41.864 36.6814 40.536 36.6814 38.76C36.6814 36.984 37.9454 35.656 39.5934 35.656C41.2414 35.656 42.5054 36.984 42.5054 38.76C42.5054 40.536 41.2414 41.864 39.5934 41.864ZM48.5837 43.096C48.8237 43.096 49.1597 43.08 49.4317 43.016V41.896C49.2557 41.928 49.0157 41.944 48.8397 41.944C47.3837 41.944 47.2877 40.952 47.2877 40.408V35.832H49.3357V34.52H47.2877V31.768H45.9117V33.272C45.9117 34.024 45.4317 34.52 44.6957 34.52H44.2637V35.832H45.9117V40.408C45.9117 42.12 46.8717 43.096 48.5837 43.096ZM53.919 34.328C52.351 34.328 50.975 35.224 50.495 36.376L51.727 37.016C52.095 36.184 52.895 35.64 53.919 35.64C55.039 35.64 55.839 36.28 55.839 37.256V37.496L52.895 38.152C51.183 38.536 50.175 39.4 50.175 40.648C50.175 42.136 51.391 43.192 53.199 43.192C54.287 43.192 55.295 42.664 55.871 41.816V43H57.215V37.256C57.215 35.528 55.855 34.328 53.919 34.328ZM53.279 41.96C52.271 41.96 51.631 41.448 51.631 40.648C51.631 39.96 52.255 39.432 53.215 39.224L55.839 38.616V39.352C55.839 40.84 54.767 41.96 53.279 41.96ZM58.6064 43H59.9824V31.08H58.6064V43ZM66.9848 43.192C68.8088 43.192 70.0728 42.184 70.0728 40.712C70.0728 39.576 69.3048 38.744 67.8808 38.328L66.4408 37.896C65.7048 37.672 65.2248 37.288 65.2248 36.712C65.2248 36.04 65.8328 35.592 66.7448 35.592C67.7528 35.592 68.5528 36.12 68.9048 37.032L70.0568 36.472C69.5608 35.144 68.3128 34.328 66.7448 34.328C64.9848 34.328 63.8008 35.32 63.8008 36.792C63.8008 37.944 64.5368 38.76 65.9608 39.16L67.3528 39.544C68.1368 39.768 68.6488 40.104 68.6488 40.712C68.6488 41.416 67.9768 41.928 66.9848 41.928C65.9288 41.928 65.0168 41.368 64.5848 40.296L63.4168 40.872C63.9608 42.312 65.3207 43.192 66.9848 43.192ZM74.7156 43.096C74.9556 43.096 75.2916 43.08 75.5636 43.016V41.896C75.3876 41.928 75.1476 41.944 74.9716 41.944C73.5156 41.944 73.4196 40.952 73.4196 40.408V35.832H75.4676V34.52H73.4196V31.768H72.0436V33.272C72.0436 34.024 71.5636 34.52 70.8276 34.52H70.3956V35.832H72.0436V40.408C72.0436 42.12 73.0036 43.096 74.7156 43.096ZM80.0509 34.328C78.4829 34.328 77.1069 35.224 76.6269 36.376L77.8589 37.016C78.2269 36.184 79.0269 35.64 80.0509 35.64C81.1709 35.64 81.9709 36.28 81.9709 37.256V37.496L79.0269 38.152C77.3149 38.536 76.3069 39.4 76.3069 40.648C76.3069 42.136 77.5229 43.192 79.3309 43.192C80.4189 43.192 81.4269 42.664 82.0029 41.816V43H83.3469V37.256C83.3469 35.528 81.9869 34.328 80.0509 34.328ZM79.4109 41.96C78.4029 41.96 77.7629 41.448 77.7629 40.648C77.7629 39.96 78.3869 39.432 79.3469 39.224L81.9709 38.616V39.352C81.9709 40.84 80.8989 41.96 79.4109 41.96ZM91.6662 34.52H90.0182L86.1142 38.68V31.08H84.7382V43H86.1142V40.552L87.6182 38.936L90.0822 43H91.6662L88.5302 37.912L91.6662 34.52ZM99.8521 38.392C99.8521 36.232 98.3161 34.328 95.9001 34.328C93.5321 34.328 91.7721 36.184 91.7721 38.744C91.7721 41.304 93.5801 43.192 96.0121 43.192C97.7561 43.192 99.1321 42.248 99.6601 41.08L98.4601 40.44C98.0121 41.304 97.2281 41.944 96.0281 41.944C94.5401 41.944 93.2761 40.856 93.2121 39.176H99.7881C99.8361 38.904 99.8521 38.632 99.8521 38.392ZM93.2441 37.992C93.4361 36.456 94.5721 35.544 95.9001 35.544C97.1481 35.544 98.3161 36.584 98.3321 37.992H93.2441ZM104.538 34.424C103.514 34.424 102.698 34.792 102.25 35.576V34.52H100.922V43H102.298V37.944C102.298 36.536 103.114 35.736 104.33 35.736H105.226V34.424H104.538ZM109.256 43.192C111.08 43.192 112.344 42.184 112.344 40.712C112.344 39.576 111.576 38.744 110.152 38.328L108.712 37.896C107.976 37.672 107.496 37.288 107.496 36.712C107.496 36.04 108.104 35.592 109.016 35.592C110.024 35.592 110.824 36.12 111.176 37.032L112.328 36.472C111.832 35.144 110.584 34.328 109.016 34.328C107.256 34.328 106.072 35.32 106.072 36.792C106.072 37.944 106.808 38.76 108.232 39.16L109.624 39.544C110.408 39.768 110.92 40.104 110.92 40.712C110.92 41.416 110.248 41.928 109.256 41.928C108.2 41.928 107.288 41.368 106.856 40.296L105.688 40.872C106.232 42.312 107.592 43.192 109.256 43.192Z" fill="white"/>
<path d="M39.4841 74.78C39.4841 72.74 38.2241 71.4 35.7241 70.62L35.2641 70.48V66.96C36.0041 67.36 36.5441 68.02 36.8441 68.86L39.4441 67.64C38.8041 65.9 37.2841 64.56 35.2641 64.06V62.1H33.2641V63.86C30.2041 63.96 28.1841 65.72 28.1841 68.3C28.1841 70.28 29.3841 71.72 31.9241 72.52L33.2641 72.94V76.46C32.0241 76.22 30.8641 75.3 30.2641 73.84L27.6641 75.06C28.4241 77.38 30.6041 78.96 33.2641 79.2V81H35.2641V79.14C37.8441 78.74 39.4841 77.1 39.4841 74.78ZM32.7641 69.7C31.8041 69.4 31.2841 68.88 31.2841 68.18C31.2841 67.32 32.0641 66.66 33.2641 66.58V69.86L32.7641 69.7ZM35.2641 76.32V73.58C35.9641 73.86 36.3841 74.28 36.3841 74.96C36.3841 75.54 35.9841 76.06 35.2641 76.32ZM42.8858 79H45.9858V64.1L40.0858 64.12V66.72H42.8858V79ZM54.0064 63.86C50.9064 63.86 48.6864 65.98 48.6864 68.8C48.6864 71.4 50.6864 73.66 53.4464 73.66H53.4664L49.7064 79H53.2064L57.8264 72.5C58.7664 71.18 59.3264 70.12 59.3264 68.8C59.3264 65.98 57.1064 63.86 54.0064 63.86ZM54.0064 71.12C52.7864 71.12 51.7864 70.24 51.7864 68.9C51.7864 67.56 52.7864 66.66 54.0064 66.66C55.2264 66.66 56.2264 67.56 56.2264 68.9C56.2264 70.24 55.2264 71.12 54.0064 71.12ZM60.6143 81.3H62.6143L64.1343 76H61.4343L60.6143 81.3ZM71.5043 69.44H71.4843L75.2443 64.1H71.7443L67.1243 70.6C66.2043 71.88 65.6243 72.96 65.6243 74.3C65.6243 77.12 67.8443 79.24 70.9443 79.24C74.0443 79.24 76.2643 77.12 76.2643 74.3C76.2643 71.7 74.2643 69.44 71.5043 69.44ZM70.9443 76.44C69.7243 76.44 68.7243 75.54 68.7243 74.2C68.7243 72.86 69.7243 71.98 70.9443 71.98C72.1643 71.98 73.1643 72.86 73.1643 74.2C73.1643 75.54 72.1643 76.44 70.9443 76.44ZM86.1122 71.18C87.1122 70.52 87.7322 69.3 87.7322 68C87.7322 65.6 85.6122 63.86 82.7322 63.86C79.8322 63.86 77.7522 65.6 77.7522 68C77.7522 69.32 78.3722 70.54 79.3722 71.18C77.9722 71.9 77.2522 73.08 77.2522 74.58C77.2522 77.26 79.5922 79.24 82.7322 79.24C85.8922 79.24 88.2522 77.26 88.2522 74.58C88.2522 73.1 87.5122 71.94 86.1122 71.18ZM82.7322 66.46C83.8322 66.46 84.5722 67.18 84.5722 68.24C84.5722 69.28 83.8322 69.98 82.7322 69.98C81.6322 69.98 80.8922 69.28 80.8922 68.24C80.8922 67.18 81.6322 66.46 82.7322 66.46ZM82.7322 76.64C81.3122 76.64 80.3722 75.82 80.3722 74.6C80.3722 73.38 81.3122 72.58 82.7322 72.58C84.1722 72.58 85.1322 73.38 85.1322 74.6C85.1322 75.82 84.1722 76.64 82.7322 76.64ZM101.622 73.2H99.1419V64.1H95.8419L89.2419 73.2V75.8H96.0419V79H99.1419V75.8H101.622V73.2ZM92.2619 73.2L96.0419 67.84V73.2H92.2619ZM102.913 79H105.913V76H102.913V79ZM112.73 63.86C109.63 63.86 107.41 65.98 107.41 68.8C107.41 71.4 109.41 73.66 112.17 73.66H112.19L108.43 79H111.93L116.55 72.5C117.49 71.18 118.05 70.12 118.05 68.8C118.05 65.98 115.83 63.86 112.73 63.86ZM112.73 71.12C111.51 71.12 110.51 70.24 110.51 68.9C110.51 67.56 111.51 66.66 112.73 66.66C113.95 66.66 114.95 67.56 114.95 68.9C114.95 70.24 113.95 71.12 112.73 71.12ZM127.898 71.18C128.898 70.52 129.518 69.3 129.518 68C129.518 65.6 127.398 63.86 124.518 63.86C121.618 63.86 119.538 65.6 119.538 68C119.538 69.32 120.158 70.54 121.158 71.18C119.758 71.9 119.038 73.08 119.038 74.58C119.038 77.26 121.378 79.24 124.518 79.24C127.678 79.24 130.038 77.26 130.038 74.58C130.038 73.1 129.298 71.94 127.898 71.18ZM124.518 66.46C125.618 66.46 126.358 67.18 126.358 68.24C126.358 69.28 125.618 69.98 124.518 69.98C123.418 69.98 122.678 69.28 122.678 68.24C122.678 67.18 123.418 66.46 124.518 66.46ZM124.518 76.64C123.098 76.64 122.158 75.82 122.158 74.6C122.158 73.38 123.098 72.58 124.518 72.58C125.958 72.58 126.918 73.38 126.918 74.6C126.918 75.82 125.958 76.64 124.518 76.64Z" fill="white"/>
</svg>
