<svg width="64" height="126" viewBox="0 0 64 126" fill="none" xmlns="http://www.w3.org/2000/svg">
<g opacity="0.2">
<circle cx="5.28669" cy="18.9128" r="5.93478" transform="rotate(32.7772 5.28669 18.9128)" fill="#8749D5"/>
<circle cx="5.28669" cy="18.9128" r="5.93478" transform="rotate(32.7772 5.28669 18.9128)" fill="#8749D5"/>
<circle cx="21.9195" cy="29.6222" r="5.93478" transform="rotate(32.7772 21.9195 29.6222)" fill="#8749D5"/>
<circle cx="-5.42308" cy="35.5456" r="5.93478" transform="rotate(32.7772 -5.42308 35.5456)" fill="#8749D5"/>
<circle cx="38.5524" cy="40.3322" r="5.93478" transform="rotate(32.7772 38.5524 40.3322)" fill="#8749D5"/>
<circle cx="21.9195" cy="29.6222" r="5.93478" transform="rotate(32.7772 21.9195 29.6222)" fill="#8749D5"/>
<circle cx="55.1853" cy="51.0417" r="5.93478" transform="rotate(32.7772 55.1853 51.0417)" fill="#8749D5"/>
<circle cx="11.2098" cy="46.255" r="5.93478" transform="rotate(32.7772 11.2098 46.255)" fill="#8749D5"/>
<circle cx="0.499997" cy="62.8879" r="5.93478" transform="rotate(32.7772 0.499997 62.8879)" fill="#8749D5"/>
<circle cx="38.5524" cy="40.3322" r="5.93478" transform="rotate(32.7772 38.5524 40.3322)" fill="#8749D5"/>
<circle cx="27.8426" cy="56.965" r="5.93478" transform="rotate(32.7772 27.8426 56.965)" fill="#8749D5"/>
<circle cx="17.1329" cy="73.5978" r="5.93478" transform="rotate(32.7772 17.1329 73.5978)" fill="#8749D5"/>
<circle cx="6.42311" cy="90.2306" r="5.93478" transform="rotate(32.7772 6.42311 90.2306)" fill="#8749D5"/>
<circle cx="-4.28667" cy="106.863" r="5.93478" transform="rotate(32.7772 -4.28667 106.863)" fill="#8749D5"/>
<circle cx="55.1853" cy="51.0417" r="5.93478" transform="rotate(32.7772 55.1853 51.0417)" fill="#8749D5"/>
<circle cx="44.4755" cy="67.675" r="5.93478" transform="rotate(32.7772 44.4755 67.675)" fill="#8749D5"/>
<circle cx="33.7657" cy="84.3078" r="5.93478" transform="rotate(32.7772 33.7657 84.3078)" fill="#8749D5"/>
<circle cx="23.056" cy="100.941" r="5.93478" transform="rotate(32.7772 23.056 100.941)" fill="#8749D5"/>
<circle cx="12.3462" cy="117.573" r="5.93478" transform="rotate(32.7772 12.3462 117.573)" fill="#8749D5"/>
</g>
</svg>
