<svg width="217" height="111" viewBox="0 0 217 111" fill="none" xmlns="http://www.w3.org/2000/svg">
<rect width="217" height="111" rx="20" fill="#1D1B27" fill-opacity="0.5"/>
<path opacity="0.8" d="M22.0982 35H23.6182V24.408H26.8342V23.08H18.8502V24.408H22.0982V35ZM30.734 35.192C33.182 35.192 35.102 33.32 35.102 30.744C35.102 28.168 33.198 26.328 30.734 26.328C28.27 26.328 26.366 28.168 26.366 30.744C26.366 33.32 28.286 35.192 30.734 35.192ZM30.734 33.864C29.086 33.864 27.822 32.536 27.822 30.76C27.822 28.984 29.086 27.656 30.734 27.656C32.382 27.656 33.646 28.984 33.646 30.76C33.646 32.536 32.382 33.864 30.734 33.864ZM39.7244 35.096C39.9644 35.096 40.3004 35.08 40.5724 35.016V33.896C40.3964 33.928 40.1564 33.944 39.9804 33.944C38.5244 33.944 38.4284 32.952 38.4284 32.408V27.832H40.4764V26.52H38.4284V23.768H37.0524V25.272C37.0524 26.024 36.5724 26.52 35.8364 26.52H35.4044V27.832H37.0524V32.408C37.0524 34.12 38.0124 35.096 39.7244 35.096ZM45.0596 26.328C43.4916 26.328 42.1156 27.224 41.6356 28.376L42.8676 29.016C43.2356 28.184 44.0356 27.64 45.0596 27.64C46.1796 27.64 46.9796 28.28 46.9796 29.256V29.496L44.0356 30.152C42.3236 30.536 41.3156 31.4 41.3156 32.648C41.3156 34.136 42.5316 35.192 44.3396 35.192C45.4276 35.192 46.4356 34.664 47.0116 33.816V35H48.3556V29.256C48.3556 27.528 46.9956 26.328 45.0596 26.328ZM44.4196 33.96C43.4116 33.96 42.7716 33.448 42.7716 32.648C42.7716 31.96 43.3956 31.432 44.3556 31.224L46.9796 30.616V31.352C46.9796 32.84 45.9076 33.96 44.4196 33.96ZM49.747 35H51.123V23.08H49.747V35ZM58.9574 26.328C57.9334 26.328 57.0534 26.744 56.5414 27.448V23.08H55.1654V35H56.5414V29.864C56.5414 28.536 57.3894 27.656 58.6534 27.656C59.9334 27.656 60.7494 28.536 60.7494 29.864V35H62.1254V29.432C62.1254 27.64 60.7974 26.328 58.9574 26.328ZM67.5516 35.192C69.9996 35.192 71.9196 33.32 71.9196 30.744C71.9196 28.168 70.0156 26.328 67.5516 26.328C65.0876 26.328 63.1836 28.168 63.1836 30.744C63.1836 33.32 65.1036 35.192 67.5516 35.192ZM67.5516 33.864C65.9036 33.864 64.6396 32.536 64.6396 30.76C64.6396 28.984 65.9036 27.656 67.5516 27.656C69.1996 27.656 70.4636 28.984 70.4636 30.76C70.4636 32.536 69.1996 33.864 67.5516 33.864ZM73.1462 35H74.5222V23.08H73.1462V35ZM83.0386 23.08V27.768C82.4306 26.872 81.2946 26.328 80.0146 26.328C77.6306 26.328 75.7426 28.2 75.7426 30.76C75.7426 33.32 77.6146 35.192 80.0306 35.192C81.3106 35.192 82.4466 34.68 83.0706 33.768V35H84.4146V23.08H83.0386ZM80.1106 33.864C78.4306 33.864 77.1986 32.552 77.1986 30.76C77.1986 28.984 78.4306 27.656 80.1106 27.656C81.7906 27.656 83.0386 28.984 83.0386 30.76C83.0386 32.552 81.7906 33.864 80.1106 33.864ZM93.7115 30.392C93.7115 28.232 92.1755 26.328 89.7595 26.328C87.3915 26.328 85.6315 28.184 85.6315 30.744C85.6315 33.304 87.4395 35.192 89.8715 35.192C91.6155 35.192 92.9915 34.248 93.5195 33.08L92.3195 32.44C91.8715 33.304 91.0875 33.944 89.8875 33.944C88.3995 33.944 87.1355 32.856 87.0715 31.176H93.6475C93.6955 30.904 93.7115 30.632 93.7115 30.392ZM87.1035 29.992C87.2955 28.456 88.4315 27.544 89.7595 27.544C91.0075 27.544 92.1755 28.584 92.1915 29.992H87.1035ZM98.3976 26.424C97.3736 26.424 96.5576 26.792 96.1096 27.576V26.52H94.7816V35H96.1576V29.944C96.1576 28.536 96.9736 27.736 98.1896 27.736H99.0856V26.424H98.3976ZM103.115 35.192C104.939 35.192 106.203 34.184 106.203 32.712C106.203 31.576 105.435 30.744 104.011 30.328L102.571 29.896C101.835 29.672 101.355 29.288 101.355 28.712C101.355 28.04 101.963 27.592 102.875 27.592C103.883 27.592 104.683 28.12 105.035 29.032L106.187 28.472C105.691 27.144 104.443 26.328 102.875 26.328C101.115 26.328 99.9309 27.32 99.9309 28.792C99.9309 29.944 100.667 30.76 102.091 31.16L103.483 31.544C104.267 31.768 104.779 32.104 104.779 32.712C104.779 33.416 104.107 33.928 103.115 33.928C102.059 33.928 101.147 33.368 100.715 32.296L99.5469 32.872C100.091 34.312 101.451 35.192 103.115 35.192Z" fill="white"/>
<path d="M22.6557 71H25.7558V56.1L19.8557 56.12V58.72H22.6557V71ZM28.3763 71H38.4963V68.4H32.1963L35.6563 64.84C37.4363 63.02 38.3163 61.66 38.3163 60.04C38.3163 57.54 36.3963 55.86 33.5563 55.86C31.0763 55.86 29.0963 57.12 28.4163 59.12L30.8563 60.52C31.2563 59.36 32.1963 58.66 33.3563 58.66C34.4963 58.66 35.2163 59.34 35.2163 60.42C35.2163 61.36 34.6963 62.06 32.3563 64.48L28.3563 68.6L28.3763 71ZM51.6783 65.2H49.1983V56.1H45.8983L39.2983 65.2V67.8H46.0983V71H49.1983V67.8H51.6783V65.2ZM42.3183 65.2L46.0983 59.84V65.2H42.3183ZM59.2293 61.78L62.1493 58.5V56.1H52.8493V58.7H58.6893L54.8493 62.86L55.5693 64.36C56.0493 64.12 56.6493 63.98 57.2493 63.98C58.7493 63.98 59.6493 64.82 59.6493 66.18C59.6493 67.56 58.7093 68.44 57.2493 68.44C55.9693 68.44 55.0493 67.78 54.6093 66.58L52.1693 67.98C52.9093 69.98 54.8693 71.24 57.2493 71.24C60.4093 71.24 62.7493 69.04 62.7493 66.06C62.7493 63.76 61.3893 62.14 59.2293 61.78Z" fill="white"/>
</svg>
