<svg width="75" height="129" viewBox="0 0 75 129" fill="none" xmlns="http://www.w3.org/2000/svg">
<g opacity="0.2">
<circle cx="7.55519" cy="8.62385" r="5.93478" transform="rotate(41.9832 7.55519 8.62385)" fill="#F1C6C3"/>
<circle cx="7.55519" cy="8.62385" r="5.93478" transform="rotate(41.9832 7.55519 8.62385)" fill="#F1C6C3"/>
<circle cx="7.55519" cy="8.62385" r="5.93478" transform="rotate(41.9832 7.55519 8.62385)" fill="#F1C6C3"/>
<circle cx="-5.67763" cy="23.3292" r="5.93478" transform="rotate(41.9832 -5.67763 23.3292)" fill="#F1C6C3"/>
<circle cx="22.2604" cy="21.8568" r="5.93478" transform="rotate(41.9832 22.2604 21.8568)" fill="#F1C6C3"/>
<circle cx="22.2604" cy="21.8568" r="5.93478" transform="rotate(41.9832 22.2604 21.8568)" fill="#F1C6C3"/>
<circle cx="36.9656" cy="35.0894" r="5.93478" transform="rotate(41.9832 36.9656 35.0894)" fill="#F1C6C3"/>
<circle cx="9.02761" cy="36.5618" r="5.93478" transform="rotate(41.9832 9.02761 36.5618)" fill="#F1C6C3"/>
<circle cx="-4.2052" cy="51.2672" r="5.93478" transform="rotate(41.9832 -4.2052 51.2672)" fill="#F1C6C3"/>
<circle cx="51.6709" cy="48.3223" r="5.93478" transform="rotate(41.9832 51.6709 48.3223)" fill="#F1C6C3"/>
<circle cx="36.9656" cy="35.0894" r="5.93478" transform="rotate(41.9832 36.9656 35.0894)" fill="#F1C6C3"/>
<circle cx="66.3761" cy="61.5552" r="5.93478" transform="rotate(41.9832 66.3761 61.5552)" fill="#F1C6C3"/>
<circle cx="23.7328" cy="49.7947" r="5.93478" transform="rotate(41.9832 23.7328 49.7947)" fill="#F1C6C3"/>
<circle cx="10.5" cy="64.5001" r="5.93478" transform="rotate(41.9832 10.5 64.5001)" fill="#F1C6C3"/>
<circle cx="-2.73282" cy="79.2051" r="5.93478" transform="rotate(41.9832 -2.73282 79.2051)" fill="#F1C6C3"/>
<circle cx="51.6709" cy="48.3223" r="5.93478" transform="rotate(41.9832 51.6709 48.3223)" fill="#F1C6C3"/>
<circle cx="38.4381" cy="63.0277" r="5.93478" transform="rotate(41.9832 38.4381 63.0277)" fill="#F1C6C3"/>
<circle cx="25.2053" cy="77.7327" r="5.93478" transform="rotate(41.9832 25.2053 77.7327)" fill="#F1C6C3"/>
<circle cx="11.9724" cy="92.4381" r="5.93478" transform="rotate(41.9832 11.9724 92.4381)" fill="#F1C6C3"/>
<circle cx="-1.26039" cy="107.143" r="5.93478" transform="rotate(41.9832 -1.26039 107.143)" fill="#F1C6C3"/>
<circle cx="66.3761" cy="61.5552" r="5.93478" transform="rotate(41.9832 66.3761 61.5552)" fill="#F1C6C3"/>
<circle cx="53.1433" cy="76.2603" r="5.93478" transform="rotate(41.9832 53.1433 76.2603)" fill="#F1C6C3"/>
<circle cx="39.9105" cy="90.9656" r="5.93478" transform="rotate(41.9832 39.9105 90.9656)" fill="#F1C6C3"/>
<circle cx="26.6776" cy="105.671" r="5.93478" transform="rotate(41.9832 26.6776 105.671)" fill="#F1C6C3"/>
<circle cx="13.4448" cy="120.376" r="5.93478" transform="rotate(41.9832 13.4448 120.376)" fill="#F1C6C3"/>
</g>
</svg>
