<svg width="46" height="46" viewBox="0 0 46 46" fill="none" xmlns="http://www.w3.org/2000/svg">
<g clip-path="url(#clip0_20_35)">
<path d="M38.0049 12.6724L27.4249 2.06365C26.8647 1.48642 26.1944 1.0275 25.4536 0.714119C24.7129 0.400735 23.9167 0.239258 23.1124 0.239258C22.308 0.239258 21.5119 0.400735 20.7711 0.714119C20.0303 1.0275 19.36 1.48642 18.7999 2.06365L8.19112 12.6724L23.0549 20.0899L38.0049 12.6724ZM42.0644 16.9562L44.1631 19.0549C44.744 19.6129 45.2062 20.2826 45.5219 21.0236C45.8376 21.7647 46.0003 22.5619 46.0003 23.3674C46.0003 24.1729 45.8376 24.9701 45.5219 25.7112C45.2062 26.4522 44.744 27.1219 44.1631 27.6799L27.2553 44.7545C26.8545 45.1645 26.3881 45.5046 25.8752 45.7608V25.0637L42.0644 16.9562ZM3.93613 16.9562L1.83738 19.0549C1.25643 19.6129 0.794224 20.2825 0.478488 21.0236C0.162752 21.7647 0 22.5619 0 23.3674C0 24.1729 0.162752 24.9701 0.478488 25.7112C0.794224 26.4523 1.25643 27.1219 1.83738 27.6799L18.7452 44.7545C19.146 45.1647 19.6125 45.5047 20.1252 45.7608V25.0637L3.93613 16.9562Z" fill="white" fill-opacity="0.1"/>
</g>
<defs>
<clipPath id="clip0_20_35">
<rect width="46" height="46" fill="white"/>
</clipPath>
</defs>
</svg>
