<svg width="226" height="111" viewBox="0 0 226 111" fill="none" xmlns="http://www.w3.org/2000/svg">
<rect width="226" height="111" rx="20" fill="#1D1B27" fill-opacity="0.5"/>
<path opacity="0.8" d="M26.2363 34H27.7563V23.408H30.9723V22.08H22.9883V23.408H26.2363V34ZM34.8721 34.192C37.3201 34.192 39.2401 32.32 39.2401 29.744C39.2401 27.168 37.3361 25.328 34.8721 25.328C32.4081 25.328 30.5041 27.168 30.5041 29.744C30.5041 32.32 32.4241 34.192 34.8721 34.192ZM34.8721 32.864C33.2241 32.864 31.9601 31.536 31.9601 29.76C31.9601 27.984 33.2241 26.656 34.8721 26.656C36.5201 26.656 37.7841 27.984 37.7841 29.76C37.7841 31.536 36.5201 32.864 34.8721 32.864ZM43.8624 34.096C44.1024 34.096 44.4384 34.08 44.7104 34.016V32.896C44.5344 32.928 44.2944 32.944 44.1184 32.944C42.6624 32.944 42.5664 31.952 42.5664 31.408V26.832H44.6144V25.52H42.5664V22.768H41.1904V24.272C41.1904 25.024 40.7104 25.52 39.9744 25.52H39.5424V26.832H41.1904V31.408C41.1904 33.12 42.1504 34.096 43.8624 34.096ZM49.1977 25.328C47.6297 25.328 46.2537 26.224 45.7737 27.376L47.0057 28.016C47.3737 27.184 48.1737 26.64 49.1977 26.64C50.3177 26.64 51.1177 27.28 51.1177 28.256V28.496L48.1737 29.152C46.4617 29.536 45.4537 30.4 45.4537 31.648C45.4537 33.136 46.6697 34.192 48.4777 34.192C49.5657 34.192 50.5737 33.664 51.1497 32.816V34H52.4937V28.256C52.4937 26.528 51.1337 25.328 49.1977 25.328ZM48.5577 32.96C47.5497 32.96 46.9097 32.448 46.9097 31.648C46.9097 30.96 47.5337 30.432 48.4937 30.224L51.1177 29.616V30.352C51.1177 31.84 50.0457 32.96 48.5577 32.96ZM53.8851 34H55.2611V22.08H53.8851V34ZM62.5674 25.328C60.9994 25.328 59.6234 26.224 59.1434 27.376L60.3754 28.016C60.7434 27.184 61.5434 26.64 62.5674 26.64C63.6874 26.64 64.4874 27.28 64.4874 28.256V28.496L61.5434 29.152C59.8314 29.536 58.8234 30.4 58.8234 31.648C58.8234 33.136 60.0394 34.192 61.8474 34.192C62.9354 34.192 63.9434 33.664 64.5194 32.816V34H65.8634V28.256C65.8634 26.528 64.5034 25.328 62.5674 25.328ZM61.9274 32.96C60.9194 32.96 60.2794 32.448 60.2794 31.648C60.2794 30.96 60.9034 30.432 61.8634 30.224L64.4874 29.616V30.352C64.4874 31.84 63.4154 32.96 61.9274 32.96ZM76.3268 25.328C75.1428 25.328 74.1508 25.872 73.6068 26.832C73.0948 25.904 72.1188 25.328 70.9508 25.328C69.9428 25.328 69.0788 25.76 68.5988 26.496V25.52H67.2548V34H68.6308V28.864C68.6308 27.52 69.4308 26.656 70.6308 26.656C71.8468 26.656 72.6308 27.504 72.6308 28.864V34H74.0068V28.864C74.0068 27.52 74.8068 26.656 76.0068 26.656C77.2228 26.656 78.0068 27.504 78.0068 28.864V34H79.3828V28.416C79.3828 26.624 78.0868 25.328 76.3268 25.328ZM84.8129 34.192C87.2609 34.192 89.1809 32.32 89.1809 29.744C89.1809 27.168 87.2769 25.328 84.8129 25.328C82.3489 25.328 80.4449 27.168 80.4449 29.744C80.4449 32.32 82.3649 34.192 84.8129 34.192ZM84.8129 32.864C83.1649 32.864 81.9009 31.536 81.9009 29.76C81.9009 27.984 83.1649 26.656 84.8129 26.656C86.4609 26.656 87.7249 27.984 87.7249 29.76C87.7249 31.536 86.4609 32.864 84.8129 32.864ZM95.8316 25.52V30.656C95.8316 31.984 94.9836 32.864 93.7356 32.864C92.4556 32.864 91.6236 32 91.6236 30.656V25.52H90.2476V30.912C90.2476 32.72 91.5916 34.192 93.4316 34.192C94.4556 34.192 95.3676 33.76 95.8636 33.024V34H97.2076V25.52H95.8316ZM102.698 25.328C101.658 25.328 100.746 25.76 100.25 26.496V25.52H98.9058V34H100.282V28.864C100.282 27.536 101.13 26.656 102.394 26.656C103.674 26.656 104.49 27.52 104.49 28.864V34H105.866V28.416C105.866 26.64 104.538 25.328 102.698 25.328ZM110.956 34.096C111.196 34.096 111.532 34.08 111.804 34.016V32.896C111.628 32.928 111.388 32.944 111.212 32.944C109.756 32.944 109.66 31.952 109.66 31.408V26.832H111.708V25.52H109.66V22.768H108.284V24.272C108.284 25.024 107.804 25.52 107.068 25.52H106.636V26.832H108.284V31.408C108.284 33.12 109.244 34.096 110.956 34.096ZM118.329 34.192C120.153 34.192 121.417 33.184 121.417 31.712C121.417 30.576 120.649 29.744 119.225 29.328L117.785 28.896C117.049 28.672 116.569 28.288 116.569 27.712C116.569 27.04 117.177 26.592 118.089 26.592C119.097 26.592 119.897 27.12 120.249 28.032L121.401 27.472C120.905 26.144 119.657 25.328 118.089 25.328C116.329 25.328 115.145 26.32 115.145 27.792C115.145 28.944 115.881 29.76 117.305 30.16L118.697 30.544C119.481 30.768 119.993 31.104 119.993 31.712C119.993 32.416 119.321 32.928 118.329 32.928C117.273 32.928 116.361 32.368 115.929 31.296L114.761 31.872C115.305 33.312 116.665 34.192 118.329 34.192ZM126.06 34.096C126.3 34.096 126.636 34.08 126.908 34.016V32.896C126.732 32.928 126.492 32.944 126.316 32.944C124.86 32.944 124.764 31.952 124.764 31.408V26.832H126.812V25.52H124.764V22.768H123.388V24.272C123.388 25.024 122.908 25.52 122.172 25.52H121.74V26.832H123.388V31.408C123.388 33.12 124.348 34.096 126.06 34.096ZM131.395 25.328C129.827 25.328 128.451 26.224 127.971 27.376L129.203 28.016C129.571 27.184 130.371 26.64 131.395 26.64C132.515 26.64 133.315 27.28 133.315 28.256V28.496L130.371 29.152C128.659 29.536 127.651 30.4 127.651 31.648C127.651 33.136 128.867 34.192 130.675 34.192C131.763 34.192 132.771 33.664 133.347 32.816V34H134.691V28.256C134.691 26.528 133.331 25.328 131.395 25.328ZM130.755 32.96C129.747 32.96 129.107 32.448 129.107 31.648C129.107 30.96 129.731 30.432 130.691 30.224L133.315 29.616V30.352C133.315 31.84 132.243 32.96 130.755 32.96ZM143.011 25.52H141.363L137.459 29.68V22.08H136.083V34H137.459V31.552L138.963 29.936L141.427 34H143.011L139.875 28.912L143.011 25.52ZM151.197 29.392C151.197 27.232 149.661 25.328 147.245 25.328C144.877 25.328 143.117 27.184 143.117 29.744C143.117 32.304 144.925 34.192 147.357 34.192C149.101 34.192 150.477 33.248 151.005 32.08L149.805 31.44C149.357 32.304 148.573 32.944 147.373 32.944C145.885 32.944 144.621 31.856 144.557 30.176H151.133C151.181 29.904 151.197 29.632 151.197 29.392ZM144.589 28.992C144.781 27.456 145.917 26.544 147.245 26.544C148.493 26.544 149.661 27.584 149.677 28.992H144.589ZM159.083 22.08V26.768C158.475 25.872 157.339 25.328 156.059 25.328C153.675 25.328 151.787 27.2 151.787 29.76C151.787 32.32 153.659 34.192 156.075 34.192C157.355 34.192 158.491 33.68 159.115 32.768V34H160.459V22.08H159.083ZM156.155 32.864C154.475 32.864 153.243 31.552 153.243 29.76C153.243 27.984 154.475 26.656 156.155 26.656C157.835 26.656 159.083 27.984 159.083 29.76C159.083 31.552 157.835 32.864 156.155 32.864Z" fill="white"/>
<path d="M34.4841 65.78C34.4841 63.74 33.2241 62.4 30.7241 61.62L30.2641 61.48V57.96C31.0041 58.36 31.5441 59.02 31.8441 59.86L34.4441 58.64C33.8041 56.9 32.2841 55.56 30.2641 55.06V53.1H28.2641V54.86C25.2041 54.96 23.1841 56.72 23.1841 59.3C23.1841 61.28 24.3841 62.72 26.9241 63.52L28.2641 63.94V67.46C27.0241 67.22 25.8641 66.3 25.2641 64.84L22.6641 66.06C23.4241 68.38 25.6041 69.96 28.2641 70.2V72H30.2641V70.14C32.8441 69.74 34.4841 68.1 34.4841 65.78ZM27.7641 60.7C26.8041 60.4 26.2841 59.88 26.2841 59.18C26.2841 58.32 27.0641 57.66 28.2641 57.58V60.86L27.7641 60.7ZM30.2641 67.32V64.58C30.9641 64.86 31.3841 65.28 31.3841 65.96C31.3841 66.54 30.9841 67.06 30.2641 67.32ZM37.8858 70H40.9858V55.1L35.0858 55.12V57.72H37.8858V70ZM49.0064 54.86C45.9064 54.86 43.6864 56.98 43.6864 59.8C43.6864 62.4 45.6864 64.66 48.4464 64.66H48.4664L44.7064 70H48.2064L52.8264 63.5C53.7664 62.18 54.3264 61.12 54.3264 59.8C54.3264 56.98 52.1064 54.86 49.0064 54.86ZM49.0064 62.12C47.7864 62.12 46.7864 61.24 46.7864 59.9C46.7864 58.56 47.7864 57.66 49.0064 57.66C50.2264 57.66 51.2264 58.56 51.2264 59.9C51.2264 61.24 50.2264 62.12 49.0064 62.12ZM55.6143 72.3H57.6143L59.1343 67H56.4343L55.6143 72.3ZM66.5043 60.44H66.4843L70.2443 55.1H66.7443L62.1243 61.6C61.2043 62.88 60.6243 63.96 60.6243 65.3C60.6243 68.12 62.8443 70.24 65.9443 70.24C69.0443 70.24 71.2643 68.12 71.2643 65.3C71.2643 62.7 69.2643 60.44 66.5043 60.44ZM65.9443 67.44C64.7243 67.44 63.7243 66.54 63.7243 65.2C63.7243 63.86 64.7243 62.98 65.9443 62.98C67.1643 62.98 68.1643 63.86 68.1643 65.2C68.1643 66.54 67.1643 67.44 65.9443 67.44ZM81.1122 62.18C82.1122 61.52 82.7322 60.3 82.7322 59C82.7322 56.6 80.6122 54.86 77.7322 54.86C74.8322 54.86 72.7522 56.6 72.7522 59C72.7522 60.32 73.3722 61.54 74.3722 62.18C72.9722 62.9 72.2522 64.08 72.2522 65.58C72.2522 68.26 74.5922 70.24 77.7322 70.24C80.8922 70.24 83.2522 68.26 83.2522 65.58C83.2522 64.1 82.5122 62.94 81.1122 62.18ZM77.7322 57.46C78.8322 57.46 79.5722 58.18 79.5722 59.24C79.5722 60.28 78.8322 60.98 77.7322 60.98C76.6322 60.98 75.8922 60.28 75.8922 59.24C75.8922 58.18 76.6322 57.46 77.7322 57.46ZM77.7322 67.64C76.3122 67.64 75.3722 66.82 75.3722 65.6C75.3722 64.38 76.3122 63.58 77.7322 63.58C79.1722 63.58 80.1322 64.38 80.1322 65.6C80.1322 66.82 79.1722 67.64 77.7322 67.64ZM96.6219 64.2H94.1419V55.1H90.8419L84.2419 64.2V66.8H91.0419V70H94.1419V66.8H96.6219V64.2ZM87.2619 64.2L91.0419 58.84V64.2H87.2619ZM97.9128 70H100.913V67H97.9128V70ZM107.73 54.86C104.63 54.86 102.41 56.98 102.41 59.8C102.41 62.4 104.41 64.66 107.17 64.66H107.19L103.43 70H106.93L111.55 63.5C112.49 62.18 113.05 61.12 113.05 59.8C113.05 56.98 110.83 54.86 107.73 54.86ZM107.73 62.12C106.51 62.12 105.51 61.24 105.51 59.9C105.51 58.56 106.51 57.66 107.73 57.66C108.95 57.66 109.95 58.56 109.95 59.9C109.95 61.24 108.95 62.12 107.73 62.12ZM122.898 62.18C123.898 61.52 124.518 60.3 124.518 59C124.518 56.6 122.398 54.86 119.518 54.86C116.618 54.86 114.538 56.6 114.538 59C114.538 60.32 115.158 61.54 116.158 62.18C114.758 62.9 114.038 64.08 114.038 65.58C114.038 68.26 116.378 70.24 119.518 70.24C122.678 70.24 125.038 68.26 125.038 65.58C125.038 64.1 124.298 62.94 122.898 62.18ZM119.518 57.46C120.618 57.46 121.358 58.18 121.358 59.24C121.358 60.28 120.618 60.98 119.518 60.98C118.418 60.98 117.678 60.28 117.678 59.24C117.678 58.18 118.418 57.46 119.518 57.46ZM119.518 67.64C118.098 67.64 117.158 66.82 117.158 65.6C117.158 64.38 118.098 63.58 119.518 63.58C120.958 63.58 121.918 64.38 121.918 65.6C121.918 66.82 120.958 67.64 119.518 67.64Z" fill="white"/>
</svg>
