<svg width="135" height="257" viewBox="0 0 135 257" fill="none" xmlns="http://www.w3.org/2000/svg">
<g opacity="0.4">
<mask id="path-1-inside-1_302_2411" fill="white">
<path d="M129.295 99.0322C131.891 101.225 133.189 102.322 133.914 103.694C134.528 104.855 134.846 106.15 134.841 107.463C134.835 109.016 134.193 110.589 132.91 113.736L77.8227 248.798C76.5393 251.945 75.8975 253.518 74.8164 254.632C73.9016 255.574 72.7687 256.277 71.5179 256.678C70.0398 257.152 68.3451 257.027 64.9558 256.779L-80.5187 246.125C-83.9081 245.877 -85.6028 245.753 -86.9961 245.068C-88.1751 244.49 -89.1935 243.629 -89.9613 242.564C-90.8686 241.304 -91.2743 239.654 -92.0855 236.354L-126.907 94.7072C-127.718 91.407 -128.124 89.7569 -127.904 88.2205C-127.718 86.9202 -127.214 85.6859 -126.438 84.6263C-125.52 83.3743 -124.076 82.4786 -121.188 80.6872L2.76532 3.79891C5.65327 2.00752 7.09725 1.11183 8.62651 0.846272C9.92063 0.621547 11.2502 0.718921 12.4977 1.12979C13.972 1.61532 15.2701 2.71185 17.8662 4.90489L129.295 99.0322Z"/>
</mask>
<path d="M8.62651 0.846272L4.34925 -23.7851L8.62651 0.846272ZM17.8662 4.90489L33.9989 -14.1932L17.8662 4.90489ZM12.4977 1.12979L20.318 -22.6156L12.4977 1.12979ZM-127.904 88.2205L-152.651 84.6769L-127.904 88.2205ZM-121.188 80.6872L-134.367 59.4424L-121.188 80.6872ZM-126.438 84.6263L-146.604 69.851L-126.438 84.6263ZM-86.9961 245.068L-75.9785 222.627L-86.9961 245.068ZM-89.9613 242.564L-69.6774 227.95L-89.9613 242.564ZM77.8227 248.798L54.6741 239.356L77.8227 248.798ZM74.8164 254.632L92.7548 272.045L74.8164 254.632ZM71.5179 256.678L63.8875 232.871L71.5179 256.678ZM132.91 113.736L109.761 104.294L132.91 113.736ZM134.841 107.463L109.841 107.364L134.841 107.463ZM133.914 103.694L111.81 115.374L133.914 103.694ZM109.761 104.294L54.6741 239.356L100.971 258.239L156.058 123.177L109.761 104.294ZM66.7818 231.846L-78.6927 221.192L-82.3448 271.058L63.1297 281.712L66.7818 231.846ZM-67.8084 230.386L-102.63 88.7391L-151.184 100.675L-116.363 242.322L-67.8084 230.386ZM-108.01 101.932L15.9434 25.0436L-10.4127 -17.4458L-134.367 59.4424L-108.01 101.932ZM1.73351 24.003L113.162 118.13L145.428 79.9341L33.9989 -14.1932L1.73351 24.003ZM15.9434 25.0436C16.7075 24.5697 17.1811 24.2764 17.5692 24.043C17.9544 23.8114 17.9988 23.7945 17.8574 23.869C17.5301 24.0414 15.6836 24.9949 12.9038 25.4777L4.34925 -23.7851C-3.11738 -22.4885 -9.38563 -18.0829 -10.4127 -17.4458L15.9434 25.0436ZM33.9989 -14.1932C33.0756 -14.9731 27.5161 -20.245 20.318 -22.6156L4.67743 24.8752C1.99761 23.9926 0.309725 22.7802 0.0110184 22.5619C-0.118003 22.4676 -0.0765133 22.4908 0.2708 22.7761C0.620742 23.0636 1.04663 23.4227 1.73351 24.003L33.9989 -14.1932ZM12.9038 25.4777C10.1538 25.9552 7.32851 25.7483 4.67743 24.8752L20.318 -22.6156C15.1718 -24.3104 9.68747 -24.7121 4.34925 -23.7851L12.9038 25.4777ZM-102.63 88.7391C-102.844 87.866 -102.977 87.3249 -103.079 86.8836C-103.18 86.4457 -103.182 86.3983 -103.155 86.5557C-103.092 86.9203 -102.756 88.9711 -103.156 91.7641L-152.651 84.6769C-153.725 92.1787 -151.472 99.5016 -151.184 100.675L-102.63 88.7391ZM-134.367 59.4424C-135.394 60.0795 -142.125 63.7378 -146.604 69.851L-106.271 99.4016C-107.939 101.678 -109.613 102.908 -109.913 103.125C-110.043 103.218 -110.008 103.186 -109.629 102.944C-109.248 102.7 -108.775 102.406 -108.01 101.932L-134.367 59.4424ZM-103.156 91.7641C-103.552 94.527 -104.622 97.1501 -106.271 99.4016L-146.604 69.851C-149.807 74.2216 -151.883 79.3134 -152.651 84.6769L-103.156 91.7641ZM-78.6927 221.192C-79.5894 221.126 -80.145 221.085 -80.5961 221.046C-81.0439 221.007 -81.0898 220.994 -80.9316 221.017C-80.5654 221.07 -78.5111 221.384 -75.9785 222.627L-98.0137 267.51C-91.2109 270.85 -83.5502 270.97 -82.3448 271.058L-78.6927 221.192ZM-116.363 242.322C-116.074 243.496 -114.675 251.029 -110.245 257.177L-69.6774 227.95C-68.0281 230.239 -67.3752 232.212 -67.2618 232.564C-67.2129 232.716 -67.2328 232.673 -67.3461 232.238C-67.4602 231.8 -67.5937 231.259 -67.8084 230.386L-116.363 242.322ZM-75.9785 222.627C-73.473 223.857 -71.3089 225.685 -69.6774 227.95L-110.245 257.177C-107.078 261.573 -102.877 265.122 -98.0137 267.51L-75.9785 222.627ZM54.6741 239.356C54.3345 240.189 54.1237 240.705 53.9469 241.122C53.7715 241.535 53.7455 241.575 53.8161 241.432C53.9795 241.1 54.9129 239.243 56.8781 237.219L92.7548 272.045C98.0333 266.607 100.515 259.359 100.971 258.239L54.6741 239.356ZM63.1297 281.712C64.3351 281.801 71.9316 282.798 79.1483 280.485L63.8875 232.871C66.5743 232.01 68.6524 231.998 69.0224 231.999C69.1822 232 69.135 232.005 68.6863 231.979C68.2342 231.952 67.6786 231.912 66.7818 231.846L63.1297 281.712ZM56.8781 237.219C58.8222 235.216 61.2295 233.723 63.8875 232.871L79.1483 280.485C84.3079 278.831 88.9809 275.933 92.7548 272.045L56.8781 237.219ZM156.058 123.177C156.515 122.058 159.811 115.142 159.841 107.563L109.841 107.364C109.853 104.542 110.484 102.562 110.599 102.211C110.649 102.059 110.64 102.106 110.476 102.524C110.311 102.946 110.101 103.462 109.761 104.294L156.058 123.177ZM113.162 118.13C113.849 118.71 114.275 119.07 114.616 119.367C114.956 119.662 114.986 119.699 114.871 119.588C114.606 119.33 113.128 117.868 111.81 115.374L156.019 92.0147C152.478 85.3142 146.351 80.7141 145.428 79.9341L113.162 118.13ZM159.841 107.563C159.863 102.145 158.55 96.8052 156.019 92.0147L111.81 115.374C110.506 112.906 109.83 110.155 109.841 107.364L159.841 107.563Z" fill="url(#paint0_linear_302_2411)" mask="url(#path-1-inside-1_302_2411)"/>
</g>
<defs>
<linearGradient id="paint0_linear_302_2411" x1="251.503" y1="180.547" x2="-43.2319" y2="91.508" gradientUnits="userSpaceOnUse">
<stop stop-color="white"/>
<stop offset="1" stop-color="white" stop-opacity="0"/>
</linearGradient>
</defs>
</svg>
