<svg width="32" height="32" viewBox="0 0 32 32" fill="none" xmlns="http://www.w3.org/2000/svg">
<g clip-path="url(#clip0_134_2476)">
<path d="M15.7337 14.5333C12.707 13.7467 11.7337 12.9333 11.7337 11.6667C11.7337 10.2133 13.0803 9.2 15.3337 9.2C17.227 9.2 18.1737 9.92 18.5203 11.0667C18.6803 11.6 19.1203 12 19.6803 12H20.0803C20.9603 12 21.587 11.1333 21.2803 10.3067C20.7203 8.73333 19.4137 7.42667 17.3337 6.92V6C17.3337 4.89333 16.4403 4 15.3337 4C14.227 4 13.3337 4.89333 13.3337 6V6.88C10.747 7.44 8.66699 9.12 8.66699 11.6933C8.66699 14.7733 11.2137 16.3067 14.9337 17.2C18.267 18 18.9337 19.1733 18.9337 20.4133C18.9337 21.3333 18.2803 22.8 15.3337 22.8C13.1337 22.8 12.0003 22.0133 11.5603 20.8933C11.3603 20.3733 10.907 20 10.3603 20H9.98699C9.09366 20 8.46699 20.9067 8.80033 21.7333C9.56033 23.5867 11.3337 24.68 13.3337 25.1067V26C13.3337 27.1067 14.227 28 15.3337 28C16.4403 28 17.3337 27.1067 17.3337 26V25.1333C19.9337 24.64 22.0003 23.1333 22.0003 20.4C22.0003 16.6133 18.7603 15.32 15.7337 14.5333Z" fill="#D4DFE9"/>
</g>
<defs>
<clipPath id="clip0_134_2476">
<rect width="32" height="32" fill="white"/>
</clipPath>
</defs>
</svg>
