<svg width="30" height="30" viewBox="0 0 30 30" fill="none" xmlns="http://www.w3.org/2000/svg">
<path fill-rule="evenodd" clip-rule="evenodd" d="M24.8 22.7413C24.8 26.8613 19.15 27.3375 14.9012 27.3375L14.5972 27.3372C11.8903 27.3307 5 27.1598 5 22.7163C5 18.6803 10.4229 18.141 14.6394 18.1206L15.2053 18.1203C17.9121 18.1268 24.8 18.2978 24.8 22.7413ZM14.9012 19.995C9.575 19.995 6.875 20.91 6.875 22.7163C6.875 24.5388 9.575 25.4625 14.9012 25.4625C20.2262 25.4625 22.925 24.5475 22.925 22.7413C22.925 20.9188 20.2262 19.995 14.9012 19.995ZM14.9012 2.49951C18.5612 2.49951 21.5375 5.47701 21.5375 9.13701C21.5375 12.797 18.5612 15.7733 14.9012 15.7733H14.8612C11.2087 15.762 8.25 12.7833 8.26246 9.13326C8.26246 5.47701 11.24 2.49951 14.9012 2.49951ZM14.9012 4.28451C12.225 4.28451 10.0475 6.46076 10.0475 9.13701C10.0387 11.8045 12.2 13.9795 14.865 13.9895L14.9012 14.882V13.9895C17.5762 13.9895 19.7525 11.812 19.7525 9.13701C19.7525 6.46076 17.5762 4.28451 14.9012 4.28451Z" fill="url(#paint0_linear_78_1617)"/>
<defs>
<linearGradient id="paint0_linear_78_1617" x1="14.9" y1="2.49951" x2="14.9" y2="27.3375" gradientUnits="userSpaceOnUse">
<stop stop-color="#8150ED"/>
<stop offset="1" stop-color="#0C6CF2"/>
</linearGradient>
</defs>
</svg>
