<svg width="32" height="32" viewBox="0 0 32 32" fill="none" xmlns="http://www.w3.org/2000/svg">
<path d="M22.667 26.6668H29.3337V24.0002C29.3337 21.791 27.5429 20.0002 25.3337 20.0002C24.0595 20.0002 22.9245 20.5959 22.1921 21.524M22.667 26.6668H9.33366M22.667 26.6668V24.0002C22.667 23.1252 22.4985 22.2895 22.1921 21.524M22.1921 21.524C21.209 19.0682 18.8073 17.3335 16.0003 17.3335C13.1934 17.3335 10.7917 19.0682 9.80866 21.524M9.33366 26.6668H2.66699V24.0002C2.66699 21.791 4.45786 20.0002 6.66699 20.0002C7.94114 20.0002 9.07614 20.5959 9.80866 21.524M9.33366 26.6668V24.0002C9.33366 23.1252 9.50222 22.2895 9.80866 21.524M20.0003 9.3335C20.0003 11.5426 18.2095 13.3335 16.0003 13.3335C13.7911 13.3335 12.0003 11.5426 12.0003 9.3335C12.0003 7.12436 13.7911 5.3335 16.0003 5.3335C18.2095 5.3335 20.0003 7.12436 20.0003 9.3335ZM28.0003 13.3335C28.0003 14.8063 26.8065 16.0002 25.3337 16.0002C23.8609 16.0002 22.667 14.8063 22.667 13.3335C22.667 11.8607 23.8609 10.6668 25.3337 10.6668C26.8065 10.6668 28.0003 11.8607 28.0003 13.3335ZM9.33366 13.3335C9.33366 14.8063 8.13975 16.0002 6.66699 16.0002C5.19423 16.0002 4.00033 14.8063 4.00033 13.3335C4.00033 11.8607 5.19423 10.6668 6.66699 10.6668C8.13975 10.6668 9.33366 11.8607 9.33366 13.3335Z" stroke="#D4DFE9" stroke-width="2" stroke-linecap="round" stroke-linejoin="round"/>
</svg>
