<svg width="18" height="19" viewBox="0 0 18 19" fill="none" xmlns="http://www.w3.org/2000/svg">
<g opacity="0.6">
<path fill-rule="evenodd" clip-rule="evenodd" d="M11.3045 2.95452C11.6043 2.95452 11.8476 3.19783 11.8476 3.49763C11.8476 3.79742 11.6043 4.04073 11.3045 4.04073H6.0415C4.22537 4.04073 3.05154 5.28914 3.05154 7.22259V13.0751C3.05154 15.0339 4.19713 16.2504 6.0415 16.2504H12.272C14.0881 16.2504 15.262 15.0042 15.262 13.0751V7.97787C15.262 7.67807 15.5053 7.43476 15.8051 7.43476C16.1048 7.43476 16.3482 7.67807 16.3482 7.97787V13.0751C16.3482 15.624 14.7102 17.3366 12.272 17.3366H6.0415C3.60333 17.3366 1.96533 15.624 1.96533 13.0751V7.22259C1.96533 4.67001 3.60333 2.95452 6.0415 2.95452H11.3045ZM12.8364 7.90024C13.0739 8.08417 13.1173 8.42524 12.9334 8.66203L10.8117 11.3993C10.7233 11.5137 10.593 11.5883 10.4496 11.6057C10.3048 11.6252 10.1614 11.5832 10.047 11.4941L8.00638 9.8909L6.17359 12.2726C6.06641 12.4116 5.90566 12.4848 5.74273 12.4848C5.62686 12.4848 5.51028 12.4478 5.41179 12.3725C5.17428 12.1893 5.12938 11.8482 5.31259 11.6107L7.47993 8.79383C7.56828 8.67869 7.69935 8.6041 7.84272 8.586C7.989 8.56717 8.13238 8.60772 8.24607 8.69824L10.2881 10.3022L12.0746 7.99728C12.2585 7.75903 12.5989 7.71486 12.8364 7.90024ZM14.9762 2.34473C16.0436 2.34473 16.9111 3.21224 16.9111 4.27962C16.9111 5.347 16.0436 6.21524 14.9762 6.21524C13.9096 6.21524 13.0413 5.347 13.0413 4.27962C13.0413 3.21224 13.9096 2.34473 14.9762 2.34473ZM14.9762 3.43093C14.5084 3.43093 14.1275 3.81111 14.1275 4.27962C14.1275 4.74742 14.5084 5.12904 14.9762 5.12904C15.444 5.12904 15.8249 4.74742 15.8249 4.27962C15.8249 3.81111 15.444 3.43093 14.9762 3.43093Z" fill="white"/>
</g>
</svg>
