<svg width="32" height="32" viewBox="0 0 32 32" fill="none" xmlns="http://www.w3.org/2000/svg">
<g clip-path="url(#clip0_134_2485)">
<path d="M21 0C14.92 0 10 1.76 10 4V8C4 8.2 0 9.88 0 12V16V20V24C0 26.18 4.92 28 11 28C11.04 28 11.086 28 11.134 28C12.598 28 14.034 27.89 15.44 27.68C16.836 30.29 19.628 31.996 22.82 31.996C26.854 31.996 30.25 29.27 31.268 25.562C31.686 25.164 31.956 24.678 32.002 24.128V20V4C32.002 1.76 27.082 0 21.002 0L21 0ZM11 10C16 10 20 10.9 20 12C20 13.1 16 14 11 14C6 14 2 13.1 2 12C2 10.9 6 10 11 10ZM11 26C5.58 26 2.5 24.58 2 24V22.4C4.398 23.424 7.19 24.018 10.12 24.018C10.43 24.018 10.738 24.012 11.044 23.998C12.06 23.996 13.104 23.938 14.132 23.828C14.046 24.57 14.176 25.252 14.378 25.902C13.474 25.944 12.444 26.004 11.402 26.004C11.262 26.004 11.12 26.002 10.98 26H11ZM14.14 21.82C13.206 21.934 12.124 22 11.028 22C11.018 22 11.008 22 11 22C5.582 22 2.502 20.58 2.002 20V18.32C4.448 19.39 7.3 20.012 10.296 20.012C10.544 20.012 10.792 20.008 11.038 20C12.302 19.998 13.58 19.912 14.832 19.744C14.438 20.356 14.25 21.052 14.148 21.774L14.14 21.82ZM11 18C5.58 18 2.5 16.58 2 16V14.2C4.446 15.27 7.298 15.892 10.294 15.892C10.542 15.892 10.79 15.888 11.036 15.88C11.212 15.888 11.46 15.892 11.71 15.892C14.706 15.892 17.556 15.27 20.138 14.148L20.002 14.88C18.448 15.41 17.138 16.314 16.132 17.488C14.628 17.818 12.91 18 11.15 18C11.098 18 11.046 18 10.996 18H11ZM22.82 30C19.054 30 16 26.946 16 23.18C16 19.414 19.054 16.36 22.82 16.36C26.586 16.36 29.64 19.414 29.64 23.18C29.64 26.946 26.586 30 22.82 30ZM30 16C29.65 16.334 29.23 16.6 28.766 16.772C28.19 16.284 27.566 15.852 26.89 15.504C28.04 15.198 29.092 14.8 30.076 14.284L30 16ZM30 12C29.52 12.62 26.78 13.88 22 14V12C22.006 12 22.014 12 22.022 12C24.908 12 27.65 11.39 30.128 10.29L30 12ZM30 8C29.5 8.66 26.42 10 21 10H20.54C18.114 8.74 15.244 8 12.202 8C12.174 8 12.144 8 12.116 8H12V6.2C14.446 7.27 17.298 7.892 20.294 7.892C20.542 7.892 20.79 7.888 21.036 7.88C21.212 7.888 21.46 7.892 21.71 7.892C24.706 7.892 27.556 7.27 30.138 6.148L30.002 8H30ZM21 6C16 6 12 5.1 12 4C12 2.9 16 2 21 2C26 2 30 2.9 30 4C30 5.1 26 6 21 6Z" fill="#D4DFE9"/>
<path d="M21 22H22V28H24V18H23L21 22Z" fill="#D4DFE9"/>
</g>
<defs>
<clipPath id="clip0_134_2485">
<rect width="32" height="32" fill="white"/>
</clipPath>
</defs>
</svg>
