<svg width="36" height="36" viewBox="0 0 36 36" fill="none" xmlns="http://www.w3.org/2000/svg">
<circle cx="17.9029" cy="17.7135" r="17.6441" fill="white" fill-opacity="0.1"/>
<path d="M18.5721 22.9266H15.8987V14.9065H18.5721V16.2432C19.1419 15.5182 20.006 15.086 20.928 15.0649C22.5858 15.0741 23.9236 16.4232 23.9188 18.0811V22.9266H21.2454V18.4153C21.1385 17.6685 20.4981 17.1144 19.7437 17.116C19.4137 17.1265 19.1022 17.271 18.8811 17.5161C18.66 17.7613 18.5484 18.086 18.5721 18.4153V22.9266ZM14.562 22.9266H11.8887V14.9065H14.562V22.9266ZM13.2253 13.5698C12.4871 13.5698 11.8887 12.9714 11.8887 12.2332C11.8887 11.4949 12.4871 10.8965 13.2253 10.8965C13.9636 10.8965 14.562 11.4949 14.562 12.2332C14.562 12.5877 14.4212 12.9277 14.1705 13.1783C13.9198 13.429 13.5799 13.5698 13.2253 13.5698Z" fill="white"/>
</svg>
