<svg width="36" height="36" viewBox="0 0 36 36" fill="none" xmlns="http://www.w3.org/2000/svg">
<circle cx="18.2115" cy="17.7135" r="17.6441" fill="white" fill-opacity="0.1"/>
<g clip-path="url(#clip0_77_716)">
<path d="M23.5587 13.441C23.024 13.703 22.5 13.8094 21.9546 13.9703C21.3553 13.2939 20.4667 13.2565 19.6128 13.5762C18.7589 13.896 18.1996 14.6777 18.2119 15.5743V16.109C16.4769 16.1534 14.9317 15.3631 13.9346 13.9703C13.9346 13.9703 11.6986 17.9445 16.0733 19.8517C15.0724 20.5184 14.0741 20.9681 12.8652 20.921C14.6339 21.885 16.5614 22.2165 18.2301 21.7321C20.1442 21.1761 21.7172 19.7415 22.3209 17.5927C22.501 16.9391 22.5904 16.264 22.5866 15.5861C22.5856 15.4529 23.394 14.104 23.5587 13.4404V13.441Z" stroke="white" stroke-width="0.725625" stroke-linecap="round" stroke-linejoin="round"/>
</g>
<defs>
<clipPath id="clip0_77_716">
<rect width="12.8321" height="12.8321" fill="white" transform="translate(11.7959 11.2969)"/>
</clipPath>
</defs>
</svg>
