<svg width="64" height="127" viewBox="0 0 64 127" fill="none" xmlns="http://www.w3.org/2000/svg">
<g opacity="0.2">
<circle cx="5.28669" cy="19.5245" r="5.93478" transform="rotate(32.7772 5.28669 19.5245)" fill="#8749D5"/>
<circle cx="5.28669" cy="19.5245" r="5.93478" transform="rotate(32.7772 5.28669 19.5245)" fill="#8749D5"/>
<circle cx="21.9195" cy="30.2343" r="5.93478" transform="rotate(32.7772 21.9195 30.2343)" fill="#8749D5"/>
<circle cx="-5.42308" cy="36.1574" r="5.93478" transform="rotate(32.7772 -5.42308 36.1574)" fill="#8749D5"/>
<circle cx="38.5524" cy="40.9441" r="5.93478" transform="rotate(32.7772 38.5524 40.9441)" fill="#8749D5"/>
<circle cx="21.9195" cy="30.2343" r="5.93478" transform="rotate(32.7772 21.9195 30.2343)" fill="#8749D5"/>
<circle cx="55.1853" cy="51.6538" r="5.93478" transform="rotate(32.7772 55.1853 51.6538)" fill="#8749D5"/>
<circle cx="11.2098" cy="46.8672" r="5.93478" transform="rotate(32.7772 11.2098 46.8672)" fill="#8749D5"/>
<circle cx="0.499997" cy="63.5" r="5.93478" transform="rotate(32.7772 0.499997 63.5)" fill="#8749D5"/>
<circle cx="38.5524" cy="40.9441" r="5.93478" transform="rotate(32.7772 38.5524 40.9441)" fill="#8749D5"/>
<circle cx="27.8426" cy="57.5769" r="5.93478" transform="rotate(32.7772 27.8426 57.5769)" fill="#8749D5"/>
<circle cx="17.1329" cy="74.2098" r="5.93478" transform="rotate(32.7772 17.1329 74.2098)" fill="#8749D5"/>
<circle cx="6.42311" cy="90.8427" r="5.93478" transform="rotate(32.7772 6.42311 90.8427)" fill="#8749D5"/>
<circle cx="-4.28667" cy="107.475" r="5.93478" transform="rotate(32.7772 -4.28667 107.475)" fill="#8749D5"/>
<circle cx="55.1853" cy="51.6538" r="5.93478" transform="rotate(32.7772 55.1853 51.6538)" fill="#8749D5"/>
<circle cx="44.4755" cy="68.2867" r="5.93478" transform="rotate(32.7772 44.4755 68.2867)" fill="#8749D5"/>
<circle cx="33.7657" cy="84.9195" r="5.93478" transform="rotate(32.7772 33.7657 84.9195)" fill="#8749D5"/>
<circle cx="23.056" cy="101.552" r="5.93478" transform="rotate(32.7772 23.056 101.552)" fill="#8749D5"/>
<circle cx="12.3462" cy="118.185" r="5.93478" transform="rotate(32.7772 12.3462 118.185)" fill="#8749D5"/>
</g>
</svg>
