<svg width="855" height="760" viewBox="0 0 855 760" fill="none" xmlns="http://www.w3.org/2000/svg">
<path opacity="0.0416667" d="M472.105 327.218C499.586 322.996 513.948 292.196 499.519 268.43L480.042 236.351C475.219 228.408 473.391 219.003 474.887 209.832L480.929 172.792C485.405 145.352 460.55 122.175 433.489 128.554L396.961 137.165C387.916 139.297 378.407 138.13 370.147 133.873L336.788 116.681C312.073 103.944 282.35 120.42 280.055 148.128L276.957 185.529C276.19 194.79 272.141 203.473 265.539 210.014L238.88 236.428C219.13 255.996 225.614 289.356 251.257 300.102L285.87 314.605C294.441 318.197 301.447 324.731 305.628 333.03L322.511 366.547C335.019 391.378 368.75 395.519 386.893 374.452L411.383 346.015C417.447 338.974 425.827 334.329 435.012 332.918L472.105 327.218Z" fill="url(#paint0_linear_1_104)" fill-opacity="0.1"/>
<path opacity="0.0833333" d="M462.04 323.204C489.048 316.603 500.671 284.668 484.225 262.25L462.026 231.991C456.529 224.498 453.889 215.289 454.58 206.022L457.371 168.597C459.438 140.871 432.658 119.948 406.256 128.662L370.618 140.423C361.793 143.336 352.218 143.001 343.618 139.481L308.887 125.261C283.157 114.727 254.983 133.731 255.111 161.534L255.285 199.062C255.328 208.355 252.051 217.358 246.045 224.449L221.789 253.086C203.819 274.301 213.187 306.969 239.669 315.439L275.414 326.871C284.265 329.702 291.815 335.6 296.703 343.503L316.443 375.421C331.067 399.067 365.031 400.253 381.269 377.685L403.187 347.222C408.615 339.679 416.557 334.321 425.584 332.115L462.04 323.204Z" fill="url(#paint1_linear_1_104)" fill-opacity="0.1"/>
<path opacity="0.125" d="M451.947 320.343C478.277 311.413 487.073 278.586 468.735 257.688L443.984 229.478C437.855 222.493 434.421 213.549 434.302 204.257L433.82 166.731C433.464 138.93 404.962 120.421 379.419 131.403L344.942 146.226C336.405 149.896 326.837 150.398 317.963 147.64L282.125 136.502C255.575 128.25 229.164 149.637 231.715 177.323L235.159 214.694C236.011 223.947 233.532 233.201 228.166 240.789L206.499 271.431C190.447 294.132 202.626 325.859 229.745 331.988L266.35 340.261C275.415 342.31 283.45 347.528 289.008 354.975L311.454 385.051C328.084 407.333 362.022 405.554 376.231 381.656L395.411 349.399C400.161 341.411 407.606 335.382 416.407 332.397L451.947 320.343Z" fill="url(#paint2_linear_1_104)" fill-opacity="0.1"/>
<path opacity="0.166667" d="M441.928 318.634C467.379 307.443 473.28 273.975 453.192 254.754L426.075 228.809C419.361 222.385 415.161 213.774 414.232 204.527L410.482 167.186C407.704 139.522 377.697 123.568 353.209 136.734L320.155 154.505C311.97 158.906 302.483 160.239 293.402 158.265L256.73 150.293C229.561 144.387 205.115 167.994 210.069 195.353L216.757 232.281C218.413 241.425 216.749 250.86 212.065 258.886L193.151 291.3C179.138 315.314 194.036 345.859 221.586 349.601L258.774 354.652C267.982 355.903 276.441 360.401 282.627 367.335L307.61 395.34C326.118 416.088 359.772 411.358 371.844 386.313L388.14 352.506C392.175 344.135 399.066 337.48 407.573 333.74L441.928 318.634Z" fill="url(#paint3_linear_1_104)" fill-opacity="0.1"/>
<path opacity="0.208333" d="M432.084 318.065C456.463 304.699 459.425 270.844 437.737 253.447L408.463 229.964C401.214 224.149 396.28 215.937 394.549 206.807L387.558 169.935C382.379 142.618 351.097 129.34 327.849 144.59L296.47 165.175C288.699 170.272 279.364 172.427 270.146 171.252L232.919 166.506C205.339 162.99 183.043 188.639 190.363 215.461L200.243 251.666C202.69 260.631 201.855 270.175 197.889 278.579L181.872 312.518C170.005 337.662 187.508 366.792 215.28 368.119L252.766 369.91C262.048 370.353 270.867 374.096 277.634 380.466L304.962 406.187C325.209 425.242 358.322 417.597 368.166 391.595L381.453 356.497C384.743 347.806 391.028 340.576 399.177 336.108L432.084 318.065Z" fill="url(#paint4_linear_1_104)" fill-opacity="0.1"/>
<path opacity="0.25" d="M422.512 318.619C445.633 303.178 445.633 269.194 422.512 253.753L391.303 232.911C383.574 227.75 377.943 220 375.423 211.055L365.245 174.933C357.705 148.171 325.384 137.67 303.554 154.888L274.088 178.129C266.792 183.884 257.68 186.845 248.395 186.478L210.895 184.995C183.114 183.896 163.138 211.39 172.768 237.472L185.767 272.678C188.985 281.396 188.985 290.976 185.767 299.694L172.768 334.9C163.138 360.982 183.114 388.476 210.895 387.377L248.395 385.894C257.68 385.527 266.792 388.488 274.088 394.243L303.554 417.484C325.384 434.702 357.705 424.201 365.245 397.439L375.423 361.317C377.943 352.372 383.574 344.622 391.303 339.461L422.512 318.619Z" fill="url(#paint5_linear_1_104)" fill-opacity="0.1"/>
<path opacity="0.291667" d="M413.31 320.265C434.997 302.868 432.035 269.013 407.656 255.646L374.749 237.604C366.601 233.136 360.315 225.905 357.025 217.214L343.738 182.117C333.894 156.114 300.781 148.47 280.535 167.525L253.206 193.246C246.439 199.615 237.62 203.359 228.338 203.802L190.852 205.593C163.081 206.92 145.577 236.05 157.444 261.194L173.461 295.133C177.427 303.537 178.262 313.081 175.816 322.046L165.935 358.251C158.615 385.073 180.911 410.721 208.491 407.205L245.718 402.46C254.937 401.285 264.272 403.44 272.042 408.537L303.421 429.122C326.669 444.372 357.952 431.093 363.131 403.777L370.121 366.905C371.852 357.775 376.787 349.562 384.035 343.748L413.31 320.265Z" fill="url(#paint6_linear_1_104)" fill-opacity="0.1"/>
<path opacity="0.333333" d="M404.572 322.969C424.661 303.747 418.759 270.279 393.308 259.088L358.954 243.982C350.447 240.242 343.555 233.587 339.52 225.216L323.224 191.409C311.152 166.364 277.498 161.634 258.99 182.382L234.007 210.387C227.821 217.322 219.362 221.819 210.154 223.07L172.967 228.121C145.416 231.863 130.519 262.408 144.531 286.422L163.446 318.836C168.129 326.862 169.793 336.297 168.137 345.442L161.449 382.37C156.495 409.728 180.941 433.335 208.11 427.429L244.782 419.457C253.863 417.483 263.35 418.816 271.535 423.217L304.589 440.988C329.077 454.155 359.084 438.2 361.862 410.536L365.613 373.195C366.541 363.949 370.741 355.338 377.456 348.913L404.572 322.969Z" fill="url(#paint7_linear_1_104)" fill-opacity="0.1"/>
<path opacity="0.375" d="M396.387 326.684C414.724 305.785 405.928 272.959 379.598 264.029L344.058 251.974C335.258 248.99 327.812 242.96 323.063 234.973L303.883 202.715C289.673 178.818 255.736 177.039 239.106 199.321L216.659 229.396C211.101 236.844 203.066 242.062 194.002 244.11L157.396 252.383C130.277 258.513 118.098 290.24 134.151 312.941L155.818 343.583C161.183 351.17 163.663 360.424 162.81 369.678L159.367 407.049C156.816 434.735 183.226 456.122 209.777 447.87L245.615 436.732C254.489 433.974 264.056 434.475 272.594 438.146L307.071 452.969C332.613 463.951 361.115 445.441 361.472 417.64L361.953 380.115C362.073 370.823 365.506 361.879 371.635 354.893L396.387 326.684Z" fill="url(#paint8_linear_1_104)" fill-opacity="0.1"/>
<path opacity="0.416667" d="M388.843 331.36C405.289 308.942 393.665 277.008 366.657 270.406L330.202 261.495C321.175 259.289 313.232 253.932 307.805 246.388L285.886 215.925C269.648 193.357 235.684 194.543 221.06 218.189L201.32 250.107C196.432 258.01 188.883 263.909 180.031 266.739L144.286 278.171C117.804 286.641 108.437 319.309 126.407 340.524L150.662 369.161C156.668 376.252 159.945 385.255 159.902 394.548L159.729 432.076C159.6 459.879 187.775 478.883 213.505 468.349L248.236 454.13C256.836 450.609 266.41 450.274 275.235 453.187L310.873 464.949C337.276 473.662 364.056 452.739 361.988 425.013L359.197 387.588C358.506 378.321 361.147 369.112 366.644 361.619L388.843 331.36Z" fill="url(#paint9_linear_1_104)" fill-opacity="0.1"/>
<path opacity="0.458333" d="M382.019 336.937C396.449 313.172 382.086 282.371 354.606 278.149L317.512 272.449C308.327 271.038 299.948 266.393 293.883 259.352L269.394 230.915C251.25 209.848 217.519 213.989 205.011 238.82L188.128 272.337C183.948 280.636 176.941 287.17 168.37 290.762L133.757 305.266C108.114 316.011 101.63 349.371 121.38 368.94L148.039 395.354C154.641 401.894 158.69 410.577 159.457 419.838L162.555 457.239C164.85 484.947 194.574 501.423 219.288 488.686L252.647 471.494C260.908 467.237 270.417 466.07 279.462 468.202L315.989 476.813C343.051 483.193 367.905 460.015 363.429 432.575L357.387 395.536C355.891 386.364 357.719 376.959 362.542 369.016L382.019 336.937Z" fill="url(#paint10_linear_1_104)" fill-opacity="0.1"/>
<path opacity="0.5" d="M375.992 343.349C388.296 318.416 371.304 288.985 343.559 287.173L306.11 284.728C296.837 284.123 288.085 280.226 281.43 273.74L254.555 247.546C234.644 228.14 201.403 235.206 191.107 261.032L177.209 295.893C173.768 304.525 167.357 311.645 159.132 315.97L125.915 333.435C101.306 346.374 97.7538 380.172 119.135 397.945L147.994 421.935C155.141 427.876 159.931 436.173 161.502 445.332L167.848 482.32C172.55 509.723 203.596 523.546 227.106 508.703L258.84 488.669C266.698 483.709 276.069 481.717 285.266 483.052L322.405 488.447C349.919 492.444 372.659 467.188 365.808 440.242L356.561 403.871C354.271 394.864 355.273 385.336 359.385 377.003L375.992 343.349Z" fill="url(#paint11_linear_1_104)" fill-opacity="0.1"/>
<path opacity="0.541667" d="M370.833 350.522C380.917 324.612 361.424 296.773 333.628 297.387L296.108 298.215C286.818 298.421 277.759 295.301 270.564 289.42L241.508 265.668C219.982 248.071 187.483 258.007 179.477 284.633L168.67 320.572C165.995 329.471 160.229 337.123 152.412 342.148L120.843 362.442C97.456 377.477 96.863 411.456 119.711 427.298L150.552 448.681C158.189 453.976 163.684 461.824 166.048 470.811L175.594 507.106C182.665 533.994 214.798 545.059 236.925 528.224L266.792 505.5C274.188 499.873 283.35 497.072 292.628 497.602L330.096 499.739C357.854 501.322 378.306 474.181 369.133 447.935L356.751 412.507C353.685 403.735 353.852 394.156 357.222 385.496L370.833 350.522Z" fill="url(#paint12_linear_1_104)" fill-opacity="0.1"/>
<path opacity="0.583333" d="M366.603 358.379C374.39 331.689 352.545 305.655 324.908 308.689L287.604 312.784C278.366 313.798 269.07 311.48 261.39 306.248L230.375 285.119C207.397 269.465 175.887 282.196 170.232 309.418L162.599 346.163C160.709 355.261 155.632 363.386 148.283 369.073L118.603 392.041C96.6154 409.057 98.9861 442.959 123.128 456.749L155.716 475.363C163.785 479.972 169.943 487.312 173.081 496.059L185.754 531.383C195.142 557.553 228.117 565.775 248.692 547.075L276.465 521.835C283.343 515.585 292.226 511.996 301.514 511.715L339.026 510.578C366.816 509.737 384.825 480.916 373.399 455.569L357.977 421.356C354.158 412.884 353.49 403.327 356.092 394.406L366.603 358.379Z" fill="url(#paint13_linear_1_104)" fill-opacity="0.1"/>
<path opacity="0.625" d="M363.359 366.836C368.79 339.569 344.759 315.538 317.492 320.969L280.686 328.3C271.572 330.116 262.11 328.617 254.003 324.074L221.264 305.728C197.009 292.137 166.729 307.565 163.468 335.177L159.067 372.446C157.977 381.675 153.627 390.212 146.802 396.518L119.237 421.985C98.8154 440.853 104.132 474.419 129.384 486.052L163.47 501.755C171.91 505.644 178.684 512.418 182.573 520.859L198.276 554.944C209.909 580.196 243.475 585.513 262.343 565.091L287.81 537.527C294.117 530.701 302.653 526.351 311.882 525.262L349.151 520.86C376.763 517.599 392.191 487.319 378.6 463.064L360.254 430.325C355.711 422.218 354.213 412.756 356.028 403.642L363.359 366.836Z" fill="url(#paint14_linear_1_104)" fill-opacity="0.1"/>
<path opacity="0.666667" d="M361.15 375.805C364.184 348.168 338.15 326.323 311.46 334.11L275.433 344.621C266.512 347.224 256.955 346.555 248.483 342.736L214.27 327.314C188.923 315.888 160.102 333.897 159.26 361.687L158.124 399.199C157.843 408.488 154.254 417.37 148.004 424.248L122.763 452.021C104.064 472.596 112.286 505.571 138.456 514.96L173.78 527.632C182.527 530.77 189.866 536.928 194.476 544.998L213.09 577.585C226.88 601.727 260.782 604.098 277.797 582.11L300.766 552.43C306.453 545.081 314.578 540.004 323.676 538.114L360.421 530.481C387.643 524.826 400.373 493.316 384.72 470.338L363.59 439.323C358.358 431.643 356.041 422.347 357.055 413.109L361.15 375.805Z" fill="url(#paint15_linear_1_104)" fill-opacity="0.1"/>
<path opacity="0.708333" d="M360.015 385.193C360.629 357.397 332.79 337.904 306.88 347.987L271.907 361.598C263.246 364.969 253.667 365.136 244.895 362.07L209.468 349.688C183.221 340.515 156.08 360.967 157.663 388.725L159.801 426.193C160.33 435.471 157.529 444.633 151.902 452.028L129.178 481.895C112.344 504.022 123.408 536.155 150.297 543.227L186.591 552.773C195.578 555.136 203.426 560.632 208.721 568.268L230.105 599.109C245.946 621.958 279.926 621.365 294.961 597.977L315.254 566.409C320.28 558.592 327.931 552.826 336.83 550.15L372.77 539.344C399.395 531.338 409.331 498.839 391.734 477.312L367.982 448.257C362.101 441.062 358.982 432.003 359.187 422.713L360.015 385.193Z" fill="url(#paint16_linear_1_104)" fill-opacity="0.1"/>
<path opacity="0.75" d="M359.988 394.905C358.177 367.161 328.745 350.169 303.813 362.473L270.158 379.08C261.825 383.192 252.297 384.193 243.29 381.904L206.919 372.656C179.973 365.806 154.718 388.546 158.714 416.06L164.109 453.199C165.445 462.396 163.453 471.767 158.492 479.625L138.458 511.359C123.616 534.869 137.438 565.915 164.841 570.616L201.829 576.962C210.988 578.534 219.285 583.324 225.226 590.47L249.216 619.33C266.989 640.711 300.787 637.159 313.726 612.55L331.192 579.333C335.516 571.108 342.636 564.697 351.268 561.256L386.129 547.358C411.955 537.062 419.021 503.82 399.615 483.91L373.421 457.035C366.935 450.38 363.038 441.628 362.433 432.354L359.988 394.905Z" fill="url(#paint17_linear_1_104)" fill-opacity="0.1"/>
<path opacity="0.791667" d="M361.093 404.845C356.871 377.364 326.071 363.002 302.305 377.431L270.226 396.909C262.283 401.732 252.878 403.56 243.707 402.063L206.667 396.021C179.227 391.545 156.05 416.4 162.429 443.461L171.04 479.989C173.172 489.034 172.005 498.543 167.748 506.803L150.556 540.163C137.819 564.877 154.295 594.6 182.003 596.895L219.404 599.994C228.665 600.761 237.348 604.81 243.889 611.411L270.303 638.07C289.871 657.821 323.231 651.336 333.977 625.693L348.48 591.08C352.072 582.509 358.606 575.503 366.905 571.322L400.422 554.439C425.253 541.931 429.394 508.2 408.327 490.057L379.89 465.567C372.849 459.503 368.204 451.123 366.793 441.938L361.093 404.845Z" fill="url(#paint18_linear_1_104)" fill-opacity="0.1"/>
<path opacity="0.833333" d="M363.345 414.911C356.743 387.903 324.808 376.279 302.391 392.725L272.132 414.924C264.639 420.421 255.43 423.062 246.162 422.371L208.738 419.58C181.011 417.513 160.088 444.293 168.802 470.695L180.564 506.333C183.476 515.158 183.142 524.732 179.621 533.333L165.402 568.063C154.868 593.793 173.872 621.968 201.674 621.839L239.203 621.666C248.496 621.623 257.498 624.9 264.589 630.906L293.226 655.162C314.442 673.131 347.11 663.764 355.579 637.282L367.011 601.537C369.842 592.686 375.741 585.136 383.644 580.248L415.562 560.508C439.208 545.884 440.394 511.92 417.826 495.682L387.363 473.764C379.819 468.336 374.462 460.394 372.255 451.366L363.345 414.911Z" fill="url(#paint19_linear_1_104)" fill-opacity="0.1"/>
<path opacity="0.875" d="M366.75 425.003C357.82 398.673 324.993 389.878 304.094 408.215L275.885 432.967C268.9 439.096 259.956 442.529 250.664 442.648L213.138 443.13C185.337 443.487 166.828 471.988 177.81 497.531L192.633 532.008C196.303 540.545 196.805 550.113 194.047 558.987L182.908 594.825C174.657 621.375 196.044 647.786 223.73 645.235L261.1 641.791C270.354 640.939 279.608 643.418 287.196 648.784L317.838 670.451C340.539 686.503 372.266 674.324 378.395 647.205L386.668 610.6C388.717 601.536 393.935 593.501 401.382 587.942L431.458 565.496C453.74 548.866 451.961 514.928 428.063 500.719L395.806 481.539C387.818 476.79 381.789 469.344 378.804 460.544L366.75 425.003Z" fill="url(#paint20_linear_1_104)" fill-opacity="0.1"/>
<path opacity="0.916667" d="M371.308 435.022C360.117 409.571 326.649 403.67 307.427 423.759L281.483 450.875C275.058 457.589 266.447 461.789 257.201 462.718L219.86 466.468C192.196 469.247 176.241 499.253 189.408 523.741L207.179 556.795C211.58 564.98 212.913 574.467 210.939 583.548L202.967 620.221C197.061 647.389 220.668 671.835 248.026 666.881L284.954 660.194C294.099 658.538 303.534 660.201 311.56 664.885L343.974 683.799C367.988 697.812 398.532 682.914 402.275 655.364L407.326 618.177C408.577 608.968 413.075 600.509 420.009 594.323L448.014 569.34C468.762 550.832 464.032 517.178 438.987 505.106L405.18 488.81C396.809 484.775 390.154 477.884 386.413 469.377L371.308 435.022Z" fill="url(#paint21_linear_1_104)" fill-opacity="0.1"/>
<path opacity="0.958333" d="M377.005 444.867C363.639 420.488 329.784 417.526 312.387 439.213L288.904 468.488C283.089 475.736 274.877 480.671 265.747 482.402L228.875 489.392C201.558 494.571 188.279 525.854 203.53 549.102L224.115 580.481C229.212 588.251 231.367 597.586 230.192 606.805L225.446 644.032C221.93 671.612 247.579 693.908 274.401 686.588L310.606 676.707C319.571 674.261 329.115 675.096 337.519 679.062L371.458 695.079C396.601 706.946 425.732 689.442 427.059 661.671L428.849 624.185C429.293 614.902 433.036 606.084 439.405 599.317L465.127 571.988C484.182 551.742 476.537 518.629 450.535 508.785L415.437 495.498C406.746 492.208 399.516 485.922 395.048 477.774L377.005 444.867Z" fill="url(#paint22_linear_1_104)" fill-opacity="0.1"/>
<path d="M383.824 454.438C368.384 431.317 334.399 431.317 318.959 454.438L298.117 485.648C292.956 493.376 285.205 499.007 276.26 501.527L240.138 511.705C213.377 519.245 202.875 551.566 220.094 573.396L243.335 602.862C249.09 610.158 252.051 619.27 251.683 628.555L250.2 666.055C249.102 693.836 276.596 713.812 302.678 704.182L337.884 691.184C346.601 687.965 356.182 687.965 364.9 691.184L400.105 704.182C426.188 713.812 453.681 693.836 452.583 666.055L451.1 628.555C450.733 619.27 453.693 610.158 459.448 602.862L482.69 573.396C499.908 551.566 489.406 519.245 462.645 511.705L426.523 501.527C417.578 499.007 409.827 493.376 404.666 485.648L383.824 454.438Z" fill="url(#paint23_linear_1_104)" fill-opacity="0.1"/>
<path opacity="0.0416667" d="M467.256 327.218C439.775 322.996 425.413 292.196 439.843 268.43L459.32 236.351C464.143 228.408 465.971 219.003 464.475 209.832L458.433 172.792C453.956 145.352 478.811 122.175 505.872 128.554L542.4 137.165C551.445 139.297 560.954 138.13 569.214 133.873L602.574 116.681C627.288 103.944 657.011 120.42 659.307 148.128L662.405 185.529C663.172 194.79 667.221 203.473 673.822 210.014L700.481 236.428C720.232 255.996 713.747 289.356 688.104 300.102L653.491 314.605C644.921 318.197 637.914 324.731 633.733 333.03L616.85 366.547C604.342 391.378 570.611 395.519 552.468 374.452L527.978 346.015C521.914 338.974 513.535 334.329 504.349 332.918L467.256 327.218Z" fill="url(#paint24_linear_1_104)" fill-opacity="0.1"/>
<path opacity="0.0833333" d="M477.322 323.204C450.314 316.603 438.691 284.668 455.137 262.25L477.336 231.991C482.833 224.498 485.474 215.289 484.783 206.022L481.992 168.597C479.924 140.871 506.704 119.948 533.107 128.662L568.745 140.423C577.569 143.336 587.144 143.001 595.744 139.481L630.475 125.261C656.205 114.727 684.379 133.731 684.251 161.534L684.078 199.062C684.035 208.355 687.311 217.358 693.318 224.449L717.573 253.086C735.543 274.301 726.176 306.969 699.694 315.439L663.949 326.871C655.097 329.702 647.548 335.6 642.66 343.503L622.92 375.421C608.295 399.067 574.332 400.253 558.094 377.685L536.175 347.222C530.748 339.679 522.805 334.321 513.778 332.115L477.322 323.204Z" fill="url(#paint25_linear_1_104)" fill-opacity="0.1"/>
<path opacity="0.125" d="M487.416 320.343C461.086 311.413 452.29 278.586 470.627 257.688L495.379 229.478C501.508 222.493 504.941 213.549 505.06 204.257L505.542 166.731C505.899 138.93 534.4 120.421 559.943 131.403L594.42 146.226C602.958 149.896 612.525 150.398 621.399 147.64L657.237 136.502C683.787 128.25 710.198 149.637 707.647 177.323L704.204 214.694C703.351 223.947 705.831 233.201 711.196 240.789L732.863 271.431C748.916 294.132 736.737 325.859 709.617 331.988L673.012 340.261C663.948 342.31 655.913 347.528 650.354 354.975L627.908 385.051C611.278 407.333 577.34 405.554 563.131 381.656L543.951 349.399C539.202 341.411 531.756 335.382 522.956 332.397L487.416 320.343Z" fill="url(#paint26_linear_1_104)" fill-opacity="0.1"/>
<path opacity="0.166667" d="M497.435 318.634C471.983 307.443 466.082 273.975 486.171 254.754L513.287 228.809C520.001 222.385 524.201 213.774 525.13 204.527L528.88 167.186C531.659 139.522 561.665 123.568 586.153 136.734L619.207 154.505C627.392 158.906 636.88 160.239 645.96 158.265L682.633 150.293C709.801 144.387 734.248 167.994 729.293 195.353L722.606 232.281C720.95 241.425 722.613 250.86 727.297 258.886L746.211 291.3C760.224 315.314 745.326 345.859 717.776 349.601L680.589 354.652C671.38 355.903 662.921 360.401 656.735 367.335L631.753 395.34C613.244 416.088 579.591 411.358 567.518 386.313L551.223 352.506C547.187 344.135 540.296 337.48 531.789 333.74L497.435 318.634Z" fill="url(#paint27_linear_1_104)" fill-opacity="0.1"/>
<path opacity="0.208333" d="M507.278 318.065C482.899 304.699 479.937 270.844 501.625 253.447L530.899 229.964C538.148 224.149 543.082 215.937 544.813 206.807L551.804 169.935C556.983 142.618 588.266 129.34 611.513 144.59L642.893 165.175C650.663 170.272 659.998 172.427 669.216 171.252L706.444 166.506C734.024 162.99 756.319 188.639 748.999 215.461L739.119 251.666C736.672 260.631 737.507 270.175 741.473 278.579L757.491 312.518C769.357 337.662 751.854 366.792 724.082 368.119L686.596 369.91C677.314 370.353 668.495 374.096 661.728 380.466L634.4 406.187C614.154 425.242 581.04 417.597 571.197 391.595L557.91 356.497C554.619 347.806 548.334 340.576 540.186 336.108L507.278 318.065Z" fill="url(#paint28_linear_1_104)" fill-opacity="0.1"/>
<path opacity="0.25" d="M516.85 318.619C493.729 303.178 493.729 269.194 516.85 253.753L548.06 232.911C555.788 227.75 561.419 220 563.939 211.055L574.117 174.933C581.657 148.171 613.978 137.67 635.808 154.888L665.274 178.129C672.57 183.884 681.682 186.845 690.968 186.478L728.467 184.995C756.248 183.896 776.224 211.39 766.594 237.472L753.596 272.678C750.377 281.396 750.377 290.976 753.596 299.694L766.594 334.9C776.224 360.982 756.248 388.476 728.467 387.377L690.968 385.894C681.682 385.527 672.57 388.488 665.274 394.243L635.808 417.484C613.978 434.702 581.657 424.201 574.117 397.439L563.939 361.317C561.419 352.372 555.788 344.622 548.06 339.461L516.85 318.619Z" fill="url(#paint29_linear_1_104)" fill-opacity="0.1"/>
<path opacity="0.291667" d="M526.053 320.265C504.365 302.868 507.327 269.013 531.706 255.646L564.613 237.604C572.762 233.136 579.047 225.905 582.337 217.214L595.624 182.117C605.468 156.114 638.581 148.47 658.828 167.525L686.156 193.246C692.923 199.615 701.742 203.359 711.024 203.802L748.51 205.593C776.282 206.92 793.785 236.05 781.918 261.194L765.901 295.133C761.935 303.537 761.1 313.081 763.547 322.046L773.427 358.251C780.747 385.073 758.451 410.721 730.871 407.205L693.644 402.46C684.426 401.285 675.091 403.44 667.32 408.537L635.941 429.122C612.693 444.372 581.411 431.093 576.232 403.777L569.241 366.905C567.51 357.775 562.576 349.562 555.327 343.748L526.053 320.265Z" fill="url(#paint30_linear_1_104)" fill-opacity="0.1"/>
<path opacity="0.333333" d="M534.791 322.969C514.702 303.747 520.603 270.279 546.054 259.088L580.409 243.982C588.916 240.242 595.807 233.587 599.842 225.216L616.138 191.409C628.21 166.364 661.864 161.634 680.372 182.382L705.355 210.387C711.541 217.322 720 221.819 729.209 223.07L766.396 228.121C793.946 231.863 808.844 262.408 794.831 286.422L775.917 318.836C771.233 326.862 769.569 336.297 771.225 345.442L777.913 382.37C782.867 409.728 758.421 433.335 731.252 427.429L694.58 419.457C685.499 417.483 676.012 418.816 667.827 423.217L634.773 440.988C610.285 454.155 580.278 438.2 577.5 410.536L573.75 373.195C572.821 363.949 568.621 355.338 561.907 348.913L534.791 322.969Z" fill="url(#paint31_linear_1_104)" fill-opacity="0.1"/>
<path opacity="0.375" d="M542.976 326.684C524.638 305.785 533.434 272.959 559.764 264.029L595.304 251.974C604.105 248.99 611.55 242.96 616.3 234.973L635.479 202.715C649.689 178.818 683.627 177.039 700.256 199.321L722.703 229.396C728.261 236.844 736.296 242.062 745.36 244.11L781.966 252.383C809.085 258.513 821.264 290.24 805.212 312.941L783.544 343.583C778.179 351.17 775.699 360.424 776.552 369.678L779.996 407.049C782.547 434.735 756.136 456.122 729.585 447.87L693.748 436.732C684.873 433.974 675.306 434.475 666.769 438.146L632.291 452.969C606.749 463.951 578.247 445.441 577.89 417.64L577.409 380.115C577.29 370.823 573.856 361.879 567.727 354.893L542.976 326.684Z" fill="url(#paint32_linear_1_104)" fill-opacity="0.1"/>
<path opacity="0.416667" d="M550.52 331.36C534.074 308.942 545.697 277.008 572.705 270.406L609.16 261.495C618.188 259.289 626.13 253.932 631.558 246.388L653.476 215.925C669.714 193.357 703.678 194.543 718.302 218.189L738.042 250.107C742.93 258.01 750.48 263.909 759.331 266.739L795.076 278.171C821.558 286.641 830.925 319.309 812.956 340.524L788.7 369.161C782.694 376.252 779.417 385.255 779.46 394.548L779.633 432.076C779.762 459.879 751.588 478.883 725.857 468.349L691.127 454.13C682.527 450.609 672.952 450.274 664.127 453.187L628.489 464.949C602.087 473.662 575.307 452.739 577.374 425.013L580.165 387.588C580.856 378.321 578.215 369.112 572.718 361.619L550.52 331.36Z" fill="url(#paint33_linear_1_104)" fill-opacity="0.1"/>
<path opacity="0.458333" d="M557.343 336.937C542.914 313.172 557.276 282.371 584.757 278.149L621.85 272.449C631.035 271.038 639.415 266.393 645.479 259.352L669.969 230.915C688.112 209.848 721.843 213.989 734.351 238.82L751.234 272.337C755.415 280.636 762.421 287.17 770.992 290.762L805.605 305.266C831.248 316.011 837.732 349.371 817.982 368.94L791.323 395.354C784.721 401.894 780.673 410.577 779.905 419.838L776.807 457.239C774.512 484.947 744.789 501.423 720.074 488.686L686.715 471.494C678.455 467.237 668.946 466.07 659.901 468.202L623.373 476.813C596.312 483.193 571.457 460.015 575.933 432.575L581.975 395.536C583.471 386.364 581.643 376.959 576.82 369.016L557.343 336.937Z" fill="url(#paint34_linear_1_104)" fill-opacity="0.1"/>
<path opacity="0.5" d="M563.37 343.349C551.067 318.416 568.059 288.985 595.803 287.173L633.252 284.728C642.525 284.123 651.277 280.226 657.932 273.74L684.807 247.546C704.718 228.14 737.96 235.206 748.256 261.032L762.153 295.893C765.595 304.525 772.005 311.645 780.23 315.97L813.447 333.435C838.056 346.374 841.608 380.172 820.228 397.945L791.368 421.935C784.222 427.876 779.431 436.173 777.86 445.332L771.514 482.32C766.813 509.723 735.766 523.546 712.256 508.703L680.522 488.669C672.664 483.709 663.293 481.717 654.097 483.052L616.958 488.447C589.443 492.444 566.703 467.188 573.554 440.242L582.801 403.871C585.091 394.864 584.09 385.336 579.977 377.003L563.37 343.349Z" fill="url(#paint35_linear_1_104)" fill-opacity="0.1"/>
<path opacity="0.541667" d="M568.529 350.522C558.445 324.612 577.938 296.773 605.735 297.387L643.254 298.215C652.545 298.421 661.603 295.301 668.798 289.42L697.854 265.668C719.38 248.071 751.88 258.007 759.885 284.633L770.692 320.572C773.368 329.471 779.133 337.123 786.95 342.148L818.519 362.442C841.906 377.477 842.499 411.456 819.651 427.298L788.81 448.681C781.173 453.976 775.678 461.824 773.314 470.811L763.769 507.106C756.697 533.994 724.564 545.059 702.437 528.224L672.57 505.5C665.174 499.873 656.012 497.072 646.734 497.602L609.267 499.739C581.509 501.322 561.056 474.181 570.229 447.935L582.611 412.507C585.677 403.735 585.51 394.156 582.14 385.496L568.529 350.522Z" fill="url(#paint36_linear_1_104)" fill-opacity="0.1"/>
<path opacity="0.583333" d="M572.759 358.379C564.972 331.689 586.817 305.655 614.454 308.689L651.759 312.784C660.996 313.798 670.292 311.48 677.972 306.248L708.988 285.119C731.965 269.465 763.475 282.196 769.13 309.418L776.763 346.163C778.653 355.261 783.73 363.386 791.079 369.073L820.759 392.041C842.747 409.057 840.376 442.959 816.234 456.749L783.647 475.363C775.578 479.972 769.419 487.312 766.281 496.059L753.609 531.383C744.22 557.553 711.245 565.775 690.67 547.075L662.897 521.835C656.02 515.585 647.137 511.996 637.848 511.715L600.337 510.578C572.546 509.737 554.537 480.916 565.963 455.569L581.386 421.356C585.205 412.884 585.873 403.327 583.27 394.406L572.759 358.379Z" fill="url(#paint37_linear_1_104)" fill-opacity="0.1"/>
<path opacity="0.625" d="M576.003 366.836C570.572 339.569 594.603 315.538 621.87 320.969L658.676 328.3C667.79 330.116 677.253 328.617 685.36 324.074L718.099 305.728C742.353 292.137 772.634 307.565 775.894 335.177L780.296 372.446C781.386 381.675 785.735 390.212 792.561 396.518L820.126 421.985C840.547 440.853 835.231 474.419 809.978 486.052L775.893 501.755C767.452 505.644 760.678 512.418 756.79 520.859L741.087 554.944C729.453 580.196 695.887 585.513 677.019 565.091L651.552 537.527C645.246 530.701 636.709 526.351 627.481 525.262L590.211 520.86C562.6 517.599 547.171 487.319 560.762 463.064L579.108 430.325C583.651 422.218 585.15 412.756 583.334 403.642L576.003 366.836Z" fill="url(#paint38_linear_1_104)" fill-opacity="0.1"/>
<path opacity="0.666667" d="M578.212 375.805C575.178 348.168 601.212 326.323 627.902 334.11L663.929 344.621C672.85 347.224 682.407 346.555 690.879 342.736L725.093 327.314C750.44 315.888 779.26 333.897 780.102 361.687L781.238 399.199C781.52 408.488 785.109 417.37 791.359 424.248L816.599 452.021C835.298 472.596 827.076 505.571 800.906 514.96L765.582 527.632C756.835 530.77 749.496 536.928 744.887 544.998L726.273 577.585C712.482 601.727 678.581 604.098 661.565 582.11L638.597 552.43C632.909 545.081 624.785 540.004 615.686 538.114L578.942 530.481C551.72 524.826 538.989 493.316 554.643 470.338L575.772 439.323C581.004 431.643 583.322 422.347 582.308 413.109L578.212 375.805Z" fill="url(#paint39_linear_1_104)" fill-opacity="0.1"/>
<path opacity="0.708333" d="M579.347 385.193C578.733 357.397 606.572 337.904 632.482 347.987L667.456 361.598C676.116 364.969 685.695 365.136 694.467 362.07L729.895 349.688C756.141 340.515 783.282 360.967 781.699 388.725L779.562 426.193C779.032 435.471 781.833 444.633 787.46 452.028L810.184 481.895C827.019 504.022 815.954 536.155 789.066 543.227L752.771 552.773C743.784 555.136 735.936 560.632 730.641 568.268L709.258 599.109C693.416 621.958 659.437 621.365 644.402 597.977L624.108 566.409C619.083 558.592 611.431 552.826 602.532 550.15L566.593 539.344C539.967 531.338 530.031 498.839 547.628 477.312L571.38 448.257C577.261 441.062 580.381 432.003 580.175 422.713L579.347 385.193Z" fill="url(#paint40_linear_1_104)" fill-opacity="0.1"/>
<path opacity="0.75" d="M579.374 394.905C581.186 367.161 610.617 350.169 635.55 362.473L669.204 379.08C677.537 383.192 687.065 384.193 696.072 381.904L732.444 372.656C759.389 365.806 784.645 388.546 780.648 416.06L775.254 453.199C773.918 462.396 775.91 471.767 780.87 479.625L800.905 511.359C815.747 534.869 801.924 565.915 774.521 570.616L737.533 576.962C728.374 578.534 720.077 583.324 714.136 590.47L690.146 619.33C672.374 640.711 638.575 637.159 625.636 612.55L608.171 579.333C603.846 571.108 596.726 564.697 588.094 561.256L553.233 547.358C527.407 537.062 520.341 503.82 539.747 483.91L565.941 457.035C572.427 450.38 576.324 441.628 576.929 432.354L579.374 394.905Z" fill="url(#paint41_linear_1_104)" fill-opacity="0.1"/>
<path opacity="0.791667" d="M578.269 404.845C582.491 377.364 613.292 363.002 637.057 377.431L669.136 396.909C677.079 401.732 686.484 403.56 695.656 402.063L732.695 396.021C760.135 391.545 783.313 416.4 776.933 443.461L768.322 479.989C766.19 489.034 767.357 498.543 771.615 506.803L788.807 540.163C801.543 564.877 785.067 594.6 757.359 596.895L719.958 599.994C710.697 600.761 702.014 604.81 695.474 611.411L669.06 638.07C649.491 657.821 616.131 651.336 605.386 625.693L590.882 591.08C587.29 582.509 580.756 575.503 572.457 571.322L538.94 554.439C514.109 541.931 509.968 508.2 531.035 490.057L559.472 465.567C566.513 459.503 571.158 451.123 572.57 441.938L578.269 404.845Z" fill="url(#paint42_linear_1_104)" fill-opacity="0.1"/>
<path opacity="0.833333" d="M576.018 414.911C582.619 387.903 614.554 376.279 636.971 392.725L667.231 414.924C674.723 420.421 683.933 423.062 693.2 422.371L730.625 419.58C758.351 417.513 779.274 444.293 770.56 470.695L758.798 506.333C755.886 515.158 756.22 524.732 759.741 533.333L773.96 568.063C784.495 593.793 765.491 621.968 737.688 621.839L700.159 621.666C690.867 621.623 681.864 624.9 674.773 630.906L646.136 655.162C624.92 673.131 592.252 663.764 583.783 637.282L572.351 601.537C569.52 592.686 563.622 585.136 555.718 580.248L523.801 560.508C500.154 545.884 498.968 511.92 521.537 495.682L552 473.764C559.543 468.336 564.9 460.394 567.107 451.366L576.018 414.911Z" fill="url(#paint43_linear_1_104)" fill-opacity="0.1"/>
<path opacity="0.875" d="M572.612 425.003C581.543 398.673 614.369 389.878 635.268 408.215L663.477 432.967C670.462 439.096 679.407 442.529 688.699 442.648L726.224 443.13C754.025 443.487 772.534 471.988 761.553 497.531L746.73 532.008C743.059 540.545 742.558 550.113 745.316 558.987L756.454 594.825C764.705 621.375 743.318 647.786 715.632 645.235L678.262 641.791C669.008 640.939 659.754 643.418 652.167 648.784L621.525 670.451C598.824 686.503 567.096 674.324 560.967 647.205L552.694 610.6C550.646 601.536 545.428 593.501 537.98 587.942L507.904 565.496C485.623 548.866 487.401 514.928 511.299 500.719L543.557 481.539C551.544 476.79 557.573 469.344 560.558 460.544L572.612 425.003Z" fill="url(#paint44_linear_1_104)" fill-opacity="0.1"/>
<path opacity="0.916667" d="M568.055 435.022C579.246 409.571 612.714 403.67 631.935 423.759L657.88 450.875C664.304 457.589 672.915 461.789 682.161 462.718L719.502 466.468C747.166 469.247 763.121 499.253 749.955 523.741L732.183 556.795C727.783 564.98 726.449 574.467 728.423 583.548L736.396 620.221C742.302 647.389 718.694 671.835 691.336 666.881L654.408 660.194C645.264 658.538 635.829 660.201 627.802 664.885L595.389 683.799C571.375 697.812 540.83 682.914 537.088 655.364L532.036 618.177C530.786 608.968 526.288 600.509 519.353 594.323L491.348 569.34C470.601 550.832 475.33 517.178 500.376 505.106L534.182 488.81C542.553 484.775 549.208 477.884 552.949 469.377L568.055 435.022Z" fill="url(#paint45_linear_1_104)" fill-opacity="0.1"/>
<path opacity="0.958333" d="M562.357 444.867C575.724 420.488 609.579 417.526 626.976 439.213L650.458 468.488C656.273 475.736 664.485 480.671 673.616 482.402L710.487 489.392C737.804 494.571 751.083 525.854 735.833 549.102L715.248 580.481C710.15 588.251 707.995 597.586 709.17 606.805L713.916 644.032C717.432 671.612 691.784 693.908 664.961 686.588L628.757 676.707C619.792 674.261 610.248 675.096 601.843 679.062L567.905 695.079C542.761 706.946 513.631 689.442 512.304 661.671L510.513 624.185C510.069 614.902 506.326 606.084 499.957 599.317L474.236 571.988C455.18 551.742 462.825 518.629 488.827 508.785L523.925 495.498C532.616 492.208 539.847 485.922 544.314 477.774L562.357 444.867Z" fill="url(#paint46_linear_1_104)" fill-opacity="0.1"/>
<path d="M555.538 454.438C570.979 431.317 604.963 431.317 620.404 454.438L641.245 485.648C646.406 493.376 654.157 499.007 663.102 501.527L699.224 511.705C725.985 519.245 736.487 551.566 719.269 573.396L696.027 602.862C690.272 610.158 687.312 619.27 687.679 628.555L689.162 666.055C690.261 693.836 662.767 713.812 636.685 704.182L601.479 691.184C592.761 687.965 583.18 687.965 574.463 691.184L539.257 704.182C513.175 713.812 485.681 693.836 486.779 666.055L488.262 628.555C488.63 619.27 485.669 610.158 479.914 602.862L456.673 573.396C439.454 551.566 449.956 519.245 476.717 511.705L512.84 501.527C521.784 499.007 529.535 493.376 534.696 485.648L555.538 454.438Z" fill="url(#paint47_linear_1_104)" fill-opacity="0.1"/>
<defs>
<linearGradient id="paint0_linear_1_104" x1="526.731" y1="348.022" x2="172.652" y2="227.927" gradientUnits="userSpaceOnUse">
<stop stop-color="#D4DFE9"/>
<stop offset="1" stop-color="#0665BD"/>
</linearGradient>
<linearGradient id="paint1_linear_1_104" x1="518.27" y1="339.167" x2="155.072" y2="250.389" gradientUnits="userSpaceOnUse">
<stop stop-color="#D4DFE9"/>
<stop offset="1" stop-color="#0665BD"/>
</linearGradient>
<linearGradient id="paint2_linear_1_104" x1="509.355" y1="331.345" x2="139.801" y2="274.56" gradientUnits="userSpaceOnUse">
<stop stop-color="#D4DFE9"/>
<stop offset="1" stop-color="#0665BD"/>
</linearGradient>
<linearGradient id="paint3_linear_1_104" x1="500.076" y1="324.59" x2="126.979" y2="300.23" gradientUnits="userSpaceOnUse">
<stop stop-color="#D4DFE9"/>
<stop offset="1" stop-color="#0665BD"/>
</linearGradient>
<linearGradient id="paint4_linear_1_104" x1="490.53" y1="318.931" x2="116.73" y2="327.181" gradientUnits="userSpaceOnUse">
<stop stop-color="#D4DFE9"/>
<stop offset="1" stop-color="#0665BD"/>
</linearGradient>
<linearGradient id="paint5_linear_1_104" x1="480.811" y1="314.387" x2="109.152" y2="355.185" gradientUnits="userSpaceOnUse">
<stop stop-color="#D4DFE9"/>
<stop offset="1" stop-color="#0665BD"/>
</linearGradient>
<linearGradient id="paint6_linear_1_104" x1="471.018" y1="310.969" x2="104.329" y2="384.003" gradientUnits="userSpaceOnUse">
<stop stop-color="#D4DFE9"/>
<stop offset="1" stop-color="#0665BD"/>
</linearGradient>
<linearGradient id="paint7_linear_1_104" x1="461.251" y1="308.678" x2="102.322" y2="413.393" gradientUnits="userSpaceOnUse">
<stop stop-color="#D4DFE9"/>
<stop offset="1" stop-color="#0665BD"/>
</linearGradient>
<linearGradient id="paint8_linear_1_104" x1="451.604" y1="307.508" x2="103.169" y2="443.107" gradientUnits="userSpaceOnUse">
<stop stop-color="#D4DFE9"/>
<stop offset="1" stop-color="#0665BD"/>
</linearGradient>
<linearGradient id="paint9_linear_1_104" x1="442.179" y1="307.444" x2="106.887" y2="472.896" gradientUnits="userSpaceOnUse">
<stop stop-color="#D4DFE9"/>
<stop offset="1" stop-color="#0665BD"/>
</linearGradient>
<linearGradient id="paint10_linear_1_104" x1="433.068" y1="308.464" x2="113.472" y2="502.509" gradientUnits="userSpaceOnUse">
<stop stop-color="#D4DFE9"/>
<stop offset="1" stop-color="#0665BD"/>
</linearGradient>
<linearGradient id="paint11_linear_1_104" x1="424.365" y1="310.534" x2="122.898" y2="531.695" gradientUnits="userSpaceOnUse">
<stop stop-color="#D4DFE9"/>
<stop offset="1" stop-color="#0665BD"/>
</linearGradient>
<linearGradient id="paint12_linear_1_104" x1="416.162" y1="313.617" x2="135.117" y2="560.211" gradientUnits="userSpaceOnUse">
<stop stop-color="#D4DFE9"/>
<stop offset="1" stop-color="#0665BD"/>
</linearGradient>
<linearGradient id="paint13_linear_1_104" x1="408.543" y1="317.663" x2="150.06" y2="587.814" gradientUnits="userSpaceOnUse">
<stop stop-color="#D4DFE9"/>
<stop offset="1" stop-color="#0665BD"/>
</linearGradient>
<linearGradient id="paint14_linear_1_104" x1="401.591" y1="322.62" x2="167.636" y2="614.271" gradientUnits="userSpaceOnUse">
<stop stop-color="#D4DFE9"/>
<stop offset="1" stop-color="#0665BD"/>
</linearGradient>
<linearGradient id="paint15_linear_1_104" x1="395.383" y1="328.425" x2="187.737" y2="639.356" gradientUnits="userSpaceOnUse">
<stop stop-color="#D4DFE9"/>
<stop offset="1" stop-color="#0665BD"/>
</linearGradient>
<linearGradient id="paint16_linear_1_104" x1="389.988" y1="335.01" x2="210.232" y2="662.855" gradientUnits="userSpaceOnUse">
<stop stop-color="#D4DFE9"/>
<stop offset="1" stop-color="#0665BD"/>
</linearGradient>
<linearGradient id="paint17_linear_1_104" x1="385.473" y1="342.301" x2="234.975" y2="684.566" gradientUnits="userSpaceOnUse">
<stop stop-color="#D4DFE9"/>
<stop offset="1" stop-color="#0665BD"/>
</linearGradient>
<linearGradient id="paint18_linear_1_104" x1="381.897" y1="350.219" x2="261.802" y2="704.299" gradientUnits="userSpaceOnUse">
<stop stop-color="#D4DFE9"/>
<stop offset="1" stop-color="#0665BD"/>
</linearGradient>
<linearGradient id="paint19_linear_1_104" x1="379.308" y1="358.68" x2="290.53" y2="721.879" gradientUnits="userSpaceOnUse">
<stop stop-color="#D4DFE9"/>
<stop offset="1" stop-color="#0665BD"/>
</linearGradient>
<linearGradient id="paint20_linear_1_104" x1="377.752" y1="367.595" x2="320.966" y2="737.15" gradientUnits="userSpaceOnUse">
<stop stop-color="#D4DFE9"/>
<stop offset="1" stop-color="#0665BD"/>
</linearGradient>
<linearGradient id="paint21_linear_1_104" x1="377.264" y1="376.874" x2="352.904" y2="749.971" gradientUnits="userSpaceOnUse">
<stop stop-color="#D4DFE9"/>
<stop offset="1" stop-color="#0665BD"/>
</linearGradient>
<linearGradient id="paint22_linear_1_104" x1="377.871" y1="386.421" x2="386.121" y2="760.221" gradientUnits="userSpaceOnUse">
<stop stop-color="#D4DFE9"/>
<stop offset="1" stop-color="#0665BD"/>
</linearGradient>
<linearGradient id="paint23_linear_1_104" x1="379.593" y1="396.139" x2="420.39" y2="767.798" gradientUnits="userSpaceOnUse">
<stop stop-color="#D4DFE9"/>
<stop offset="1" stop-color="#0665BD"/>
</linearGradient>
<linearGradient id="paint24_linear_1_104" x1="412.631" y1="348.022" x2="766.71" y2="227.927" gradientUnits="userSpaceOnUse">
<stop stop-color="#D4DFE9"/>
<stop offset="1" stop-color="#0665BD"/>
</linearGradient>
<linearGradient id="paint25_linear_1_104" x1="421.092" y1="339.167" x2="784.29" y2="250.389" gradientUnits="userSpaceOnUse">
<stop stop-color="#D4DFE9"/>
<stop offset="1" stop-color="#0665BD"/>
</linearGradient>
<linearGradient id="paint26_linear_1_104" x1="430.008" y1="331.345" x2="799.562" y2="274.56" gradientUnits="userSpaceOnUse">
<stop stop-color="#D4DFE9"/>
<stop offset="1" stop-color="#0665BD"/>
</linearGradient>
<linearGradient id="paint27_linear_1_104" x1="439.286" y1="324.59" x2="812.383" y2="300.23" gradientUnits="userSpaceOnUse">
<stop stop-color="#D4DFE9"/>
<stop offset="1" stop-color="#0665BD"/>
</linearGradient>
<linearGradient id="paint28_linear_1_104" x1="448.832" y1="318.931" x2="822.633" y2="327.181" gradientUnits="userSpaceOnUse">
<stop stop-color="#D4DFE9"/>
<stop offset="1" stop-color="#0665BD"/>
</linearGradient>
<linearGradient id="paint29_linear_1_104" x1="458.551" y1="314.387" x2="830.21" y2="355.185" gradientUnits="userSpaceOnUse">
<stop stop-color="#D4DFE9"/>
<stop offset="1" stop-color="#0665BD"/>
</linearGradient>
<linearGradient id="paint30_linear_1_104" x1="468.344" y1="310.969" x2="835.033" y2="384.003" gradientUnits="userSpaceOnUse">
<stop stop-color="#D4DFE9"/>
<stop offset="1" stop-color="#0665BD"/>
</linearGradient>
<linearGradient id="paint31_linear_1_104" x1="478.112" y1="308.678" x2="837.04" y2="413.393" gradientUnits="userSpaceOnUse">
<stop stop-color="#D4DFE9"/>
<stop offset="1" stop-color="#0665BD"/>
</linearGradient>
<linearGradient id="paint32_linear_1_104" x1="487.758" y1="307.508" x2="836.194" y2="443.107" gradientUnits="userSpaceOnUse">
<stop stop-color="#D4DFE9"/>
<stop offset="1" stop-color="#0665BD"/>
</linearGradient>
<linearGradient id="paint33_linear_1_104" x1="497.183" y1="307.444" x2="832.475" y2="472.896" gradientUnits="userSpaceOnUse">
<stop stop-color="#D4DFE9"/>
<stop offset="1" stop-color="#0665BD"/>
</linearGradient>
<linearGradient id="paint34_linear_1_104" x1="506.295" y1="308.464" x2="825.89" y2="502.509" gradientUnits="userSpaceOnUse">
<stop stop-color="#D4DFE9"/>
<stop offset="1" stop-color="#0665BD"/>
</linearGradient>
<linearGradient id="paint35_linear_1_104" x1="514.997" y1="310.534" x2="816.465" y2="531.695" gradientUnits="userSpaceOnUse">
<stop stop-color="#D4DFE9"/>
<stop offset="1" stop-color="#0665BD"/>
</linearGradient>
<linearGradient id="paint36_linear_1_104" x1="523.2" y1="313.617" x2="804.245" y2="560.211" gradientUnits="userSpaceOnUse">
<stop stop-color="#D4DFE9"/>
<stop offset="1" stop-color="#0665BD"/>
</linearGradient>
<linearGradient id="paint37_linear_1_104" x1="530.819" y1="317.663" x2="789.303" y2="587.814" gradientUnits="userSpaceOnUse">
<stop stop-color="#D4DFE9"/>
<stop offset="1" stop-color="#0665BD"/>
</linearGradient>
<linearGradient id="paint38_linear_1_104" x1="537.772" y1="322.62" x2="771.726" y2="614.271" gradientUnits="userSpaceOnUse">
<stop stop-color="#D4DFE9"/>
<stop offset="1" stop-color="#0665BD"/>
</linearGradient>
<linearGradient id="paint39_linear_1_104" x1="543.98" y1="328.425" x2="751.625" y2="639.356" gradientUnits="userSpaceOnUse">
<stop stop-color="#D4DFE9"/>
<stop offset="1" stop-color="#0665BD"/>
</linearGradient>
<linearGradient id="paint40_linear_1_104" x1="549.374" y1="335.01" x2="729.13" y2="662.855" gradientUnits="userSpaceOnUse">
<stop stop-color="#D4DFE9"/>
<stop offset="1" stop-color="#0665BD"/>
</linearGradient>
<linearGradient id="paint41_linear_1_104" x1="553.889" y1="342.301" x2="704.387" y2="684.566" gradientUnits="userSpaceOnUse">
<stop stop-color="#D4DFE9"/>
<stop offset="1" stop-color="#0665BD"/>
</linearGradient>
<linearGradient id="paint42_linear_1_104" x1="557.466" y1="350.219" x2="677.561" y2="704.299" gradientUnits="userSpaceOnUse">
<stop stop-color="#D4DFE9"/>
<stop offset="1" stop-color="#0665BD"/>
</linearGradient>
<linearGradient id="paint43_linear_1_104" x1="560.054" y1="358.68" x2="648.832" y2="721.879" gradientUnits="userSpaceOnUse">
<stop stop-color="#D4DFE9"/>
<stop offset="1" stop-color="#0665BD"/>
</linearGradient>
<linearGradient id="paint44_linear_1_104" x1="561.611" y1="367.595" x2="618.396" y2="737.15" gradientUnits="userSpaceOnUse">
<stop stop-color="#D4DFE9"/>
<stop offset="1" stop-color="#0665BD"/>
</linearGradient>
<linearGradient id="paint45_linear_1_104" x1="562.098" y1="376.874" x2="586.459" y2="749.971" gradientUnits="userSpaceOnUse">
<stop stop-color="#D4DFE9"/>
<stop offset="1" stop-color="#0665BD"/>
</linearGradient>
<linearGradient id="paint46_linear_1_104" x1="561.491" y1="386.421" x2="553.241" y2="760.221" gradientUnits="userSpaceOnUse">
<stop stop-color="#D4DFE9"/>
<stop offset="1" stop-color="#0665BD"/>
</linearGradient>
<linearGradient id="paint47_linear_1_104" x1="559.769" y1="396.139" x2="518.972" y2="767.798" gradientUnits="userSpaceOnUse">
<stop stop-color="#D4DFE9"/>
<stop offset="1" stop-color="#0665BD"/>
</linearGradient>
</defs>
</svg>
