<svg width="62" height="62" viewBox="0 0 62 62" fill="none" xmlns="http://www.w3.org/2000/svg">
<path d="M14.208 44.8047L30.9997 54.25L41.333 48.4375L47.7913 44.8047" stroke="white" stroke-opacity="0.1" stroke-width="4" stroke-linecap="round" stroke-linejoin="round"/>
<path d="M51.6663 38.75V19.375L35.5205 10.293" stroke="white" stroke-opacity="0.1" stroke-width="4" stroke-linecap="round" stroke-linejoin="round"/>
<path d="M26.4788 10.293L10.333 19.375V38.75" stroke="white" stroke-opacity="0.1" stroke-width="4" stroke-linecap="round" stroke-linejoin="round"/>
<path d="M27.125 24.2189L23.25 26.4793V31.0002V35.521L27.125 37.7814L31 40.0418L34.875 37.7814L38.75 35.521V31.0002V26.4793L34.875 24.2189L31 21.9585L27.125 24.2189Z" fill="white" fill-opacity="0.1" stroke="white" stroke-opacity="0.1" stroke-width="4" stroke-linecap="round" stroke-linejoin="round"/>
<path d="M31 21.9582V12.9165" stroke="white" stroke-opacity="0.1" stroke-width="4" stroke-linecap="round" stroke-linejoin="round"/>
<path d="M38.75 34.875L47.7917 40.0417" stroke="white" stroke-opacity="0.1" stroke-width="4" stroke-linecap="round" stroke-linejoin="round"/>
<path d="M23.2497 34.875L14.208 40.0417" stroke="white" stroke-opacity="0.1" stroke-width="4" stroke-linecap="round" stroke-linejoin="round"/>
<path d="M31 12.9165C33.1401 12.9165 34.875 11.1816 34.875 9.0415C34.875 6.9014 33.1401 5.1665 31 5.1665C28.8599 5.1665 27.125 6.9014 27.125 9.0415C27.125 11.1816 28.8599 12.9165 31 12.9165Z" fill="white" fill-opacity="0.1" stroke="white" stroke-opacity="0.1" stroke-width="4" stroke-linecap="round" stroke-linejoin="round"/>
<path d="M10.333 46.5C12.4731 46.5 14.208 44.7651 14.208 42.625C14.208 40.4849 12.4731 38.75 10.333 38.75C8.1929 38.75 6.45801 40.4849 6.45801 42.625C6.45801 44.7651 8.1929 46.5 10.333 46.5Z" fill="white" fill-opacity="0.1" stroke="white" stroke-opacity="0.1" stroke-width="4" stroke-linecap="round" stroke-linejoin="round"/>
<path d="M51.667 46.5C53.8071 46.5 55.542 44.7651 55.542 42.625C55.542 40.4849 53.8071 38.75 51.667 38.75C49.5269 38.75 47.792 40.4849 47.792 42.625C47.792 44.7651 49.5269 46.5 51.667 46.5Z" fill="white" fill-opacity="0.1" stroke="white" stroke-opacity="0.1" stroke-width="4" stroke-linecap="round" stroke-linejoin="round"/>
</svg>
