<svg width="127" height="262" viewBox="0 0 127 262" fill="none" xmlns="http://www.w3.org/2000/svg">
<g opacity="0.4">
<mask id="path-1-inside-1_302_4007" fill="white">
<path d="M-62.5391 8.08382C-60.9572 5.07601 -60.1662 3.57211 -58.9824 2.56823C-57.9806 1.71871 -56.7851 1.12893 -55.5014 0.850944C-53.9844 0.522456 -52.3096 0.809972 -48.9602 1.38501L94.8007 26.0662C98.1501 26.6412 99.8248 26.9287 101.145 27.7444C102.263 28.4346 103.193 29.3894 103.854 30.5244C104.636 31.8656 104.88 33.5472 105.368 36.9104L126.319 181.262C126.807 184.625 127.051 186.307 126.684 187.815C126.373 189.091 125.752 190.271 124.877 191.25C123.843 192.408 122.319 193.159 119.271 194.663L-11.5412 259.196C-14.589 260.7 -16.1128 261.451 -17.6606 261.568C-18.9704 261.666 -20.2843 261.44 -21.4862 260.911C-22.9066 260.285 -24.0924 259.068 -26.4642 256.634L-128.262 152.166C-130.634 149.732 -131.82 148.515 -132.409 147.079C-132.907 145.864 -133.098 144.544 -132.966 143.238C-132.81 141.693 -132.019 140.189 -130.437 137.182L-62.5391 8.08382Z"/>
</mask>
<path d="M-132.409 147.079L-155.539 156.565L-132.409 147.079ZM-130.437 137.182L-152.563 125.544L-130.437 137.182ZM-132.966 143.238L-157.839 140.719L-132.966 143.238ZM-17.6606 261.568L-15.7869 286.497L-17.6606 261.568ZM-26.4642 256.634L-44.3692 274.081L-26.4642 256.634ZM-21.4862 260.911L-31.5675 283.788L-21.4862 260.911ZM126.684 187.815L102.395 181.893L126.684 187.815ZM124.877 191.25L106.235 174.593L124.877 191.25ZM94.8007 26.0662L90.5705 50.7057L94.8007 26.0662ZM101.145 27.7444L114.283 6.47448L101.145 27.7444ZM103.854 30.5244L82.2515 43.1068L103.854 30.5244ZM-48.9602 1.38501L-53.1904 26.0245L-48.9602 1.38501ZM-55.5014 0.850944L-50.2104 25.2847L-55.5014 0.850944ZM-58.9824 2.56823L-42.8132 21.6354L-58.9824 2.56823ZM-53.1904 26.0245L90.5705 50.7057L99.0308 1.42666L-44.73 -23.2545L-53.1904 26.0245ZM80.627 40.5013L101.578 184.853L151.06 177.671L130.108 33.3195L80.627 40.5013ZM108.211 172.243L-22.6017 236.776L-0.480733 281.616L130.331 217.083L108.211 172.243ZM-8.55919 239.187L-110.357 134.719L-146.167 169.613L-44.3692 274.081L-8.55919 239.187ZM-108.31 148.819L-40.4127 19.721L-84.6655 -3.55334L-152.563 125.544L-108.31 148.819ZM-110.357 134.719C-110.984 134.075 -111.373 133.675 -111.684 133.347C-111.994 133.02 -112.02 132.981 -111.917 133.103C-111.678 133.385 -110.349 134.983 -109.278 137.593L-155.539 156.565C-152.664 163.576 -147.011 168.748 -146.167 169.613L-110.357 134.719ZM-152.563 125.544C-153.126 126.614 -157.075 133.179 -157.839 140.719L-108.093 145.756C-108.377 148.563 -109.198 150.473 -109.346 150.811C-109.411 150.958 -109.397 150.912 -109.193 150.512C-108.988 150.108 -108.729 149.615 -108.31 148.819L-152.563 125.544ZM-109.278 137.593C-108.219 140.176 -107.812 142.979 -108.093 145.756L-157.839 140.719C-158.385 146.11 -157.595 151.552 -155.539 156.565L-109.278 137.593ZM-22.6017 236.776C-23.408 237.174 -23.9079 237.42 -24.3167 237.614C-24.7225 237.808 -24.7683 237.82 -24.6204 237.76C-24.2779 237.62 -22.3478 236.849 -19.5343 236.638L-15.7869 286.497C-8.22981 285.929 -1.56467 282.151 -0.480733 281.616L-22.6017 236.776ZM-44.3692 274.081C-43.5257 274.947 -38.5024 280.732 -31.5675 283.788L-11.4049 238.034C-8.82306 239.171 -7.26041 240.541 -6.98423 240.788C-6.86493 240.894 -6.90399 240.867 -7.22206 240.549C-7.54254 240.229 -7.93168 239.831 -8.55919 239.187L-44.3692 274.081ZM-19.5343 236.638C-16.751 236.429 -13.9591 236.908 -11.4049 238.034L-31.5675 283.788C-26.6095 285.973 -21.1897 286.903 -15.7869 286.497L-19.5343 236.638ZM101.578 184.853C101.707 185.743 101.787 186.294 101.846 186.743C101.904 187.189 101.902 187.236 101.89 187.077C101.863 186.708 101.727 184.634 102.395 181.893L150.972 193.736C152.767 186.374 151.233 178.867 151.06 177.671L101.578 184.853ZM130.331 217.083C131.415 216.548 138.47 213.559 143.519 207.908L106.235 174.593C108.115 172.489 109.9 171.426 110.22 171.24C110.358 171.159 110.32 171.188 109.92 171.392C109.516 171.598 109.017 171.845 108.211 172.243L130.331 217.083ZM102.395 181.893C103.056 179.181 104.375 176.674 106.235 174.593L143.519 207.908C147.129 203.867 149.689 199 150.972 193.736L102.395 181.893ZM90.5705 50.7057C91.4567 50.8578 92.0057 50.9526 92.4509 51.0353C92.8928 51.1175 92.9373 51.1343 92.7821 51.0962C92.4227 51.0082 90.4084 50.4969 88.008 49.0143L114.283 6.47448C107.835 2.49207 100.222 1.63117 99.0308 1.42666L90.5705 50.7057ZM130.108 33.3195C129.935 32.1234 129.271 24.4905 125.457 17.942L82.2515 43.1068C80.8315 40.6688 80.3725 38.6419 80.2938 38.2804C80.2598 38.1243 80.2754 38.1691 80.3461 38.613C80.4173 39.0603 80.4978 39.6115 80.627 40.5013L130.108 33.3195ZM88.008 49.0143C85.6333 47.5475 83.6563 45.5186 82.2515 43.1068L125.457 17.942C122.73 13.2601 118.893 9.32168 114.283 6.47448L88.008 49.0143ZM-44.73 -23.2545C-45.9213 -23.459 -53.3856 -25.1866 -60.7923 -23.5828L-50.2104 25.2847C-52.9679 25.8818 -55.0374 25.6919 -55.4055 25.6551C-55.5646 25.6392 -55.517 25.6382 -55.073 25.7081C-54.6257 25.7786 -54.0765 25.8724 -53.1904 26.0245L-44.73 -23.2545ZM-40.4127 19.721C-39.9942 18.9252 -39.7344 18.4323 -39.5181 18.0345C-39.3035 17.6396 -39.2737 17.6025 -39.3579 17.7384C-39.5527 18.0529 -40.6614 19.8106 -42.8132 21.6354L-75.1516 -16.499C-80.9315 -11.5975 -84.1028 -4.62307 -84.6655 -3.55334L-40.4127 19.721ZM-60.7923 -23.5828C-66.0877 -22.4361 -71.0193 -20.0032 -75.1516 -16.499L-42.8132 21.6354C-44.942 23.4406 -47.4825 24.6939 -50.2104 25.2847L-60.7923 -23.5828Z" fill="url(#paint0_linear_302_4007)" mask="url(#path-1-inside-1_302_4007)"/>
</g>
<defs>
<linearGradient id="paint0_linear_302_4007" x1="-9.28041" y1="-128.821" x2="-32.7003" y2="178.177" gradientUnits="userSpaceOnUse">
<stop stop-color="white"/>
<stop offset="1" stop-color="white" stop-opacity="0"/>
</linearGradient>
</defs>
</svg>
